<?xml version="1.0" encoding="UTF-8" standalone="no"?>
<!-- Created with Inkscape (http://www.inkscape.org/) -->

<svg
   width="148.6609mm"
   height="120.11132mm"
   viewBox="0 0 148.6609 120.11132"
   version="1.1"
   id="svg1"
   xmlns:xlink="http://www.w3.org/1999/xlink"
   xmlns="http://www.w3.org/2000/svg"
   xmlns:svg="http://www.w3.org/2000/svg"><defs
   id="defs1">
  <style
     id="style1">.cls-1{fill:#fff}.cls-2{fill:#326ce5}</style>
  <mask
     id="holes-2">
    <rect
       x="-60"
       y="-60"
       width="120"
       height="120"
       fill="#ffffff"
       id="rect35-1" />
    <circle
       id="hole-5"
       cy="-40"
       r="3"
       cx="0" />
    <use
       xlink:href="#hole-5"
       transform="rotate(72)"
       id="use36-9" />
    <use
       xlink:href="#hole-5"
       transform="rotate(144)"
       id="use37-9" />
    <use
       xlink:href="#hole-5"
       transform="rotate(-144)"
       id="use38-1" />
    <use
       xlink:href="#hole-5"
       transform="rotate(-72)"
       id="use39-4" />
  </mask>
</defs>

<style
   type="text/css"
   id="style1-7">
	.st0{fill:#000000;}
</style>



<style
   type="text/css"
   id="style1-9">
<![CDATA[
	.st0{fill:#000000;}
]]>
</style>

<g
   id="g11"
   transform="translate(-158.75458,-0.00978887)">
  <path
     class="st0"
     d="m 176.21652,58.758063 c 3.16229,0 6.12442,-0.844456 8.68218,-2.313978 l 6.5158,2.637353 -1.46689,-7.006082 c 2.33451,-2.967217 3.72954,-6.708334 3.72954,-10.778001 0,-9.643435 -7.81719,-17.460625 -17.46063,-17.460625 -9.64344,0 -17.46194,7.81719 -17.46194,17.460625 0,9.643435 7.8185,17.460708 17.46194,17.460708 z"
     id="path1-3"
     style="fill:#00ffff;stroke-width:0.264583" />
  <text
     xml:space="preserve"
     style="font-size:14.8873px;line-height:1.25;font-family:mono;-inkscape-font-specification:mono;letter-spacing:0px;word-spacing:0px;fill:#ffffff;stroke-width:0.264583"
     x="162.35132"
     y="46.455902"
     id="text1"><tspan
       id="tspan1"
       style="fill:#ffffff;stroke-width:0.264583"
       x="162.35132"
       y="46.455902">&lt;/&gt;</tspan></text>
</g>

<g
   id="g218"
   transform="matrix(-1.4648763,0,0,1.4648763,376.6093,-293.62807)"
   style="stroke-width:0.682652">
  <path
     d="m 196.38867,201.42737 c -0.0381,-0.11436 -0.0762,-0.22873 -0.11553,-0.34656 0.67141,-0.3357 1.87156,-0.17698 2.57751,0.0144 1.53781,0.54988 2.71844,1.63809 3.42959,3.10463 0.38514,0.96494 0.40362,2.10848 0.0145,3.07574 -0.0802,0.16924 -0.16196,0.33778 -0.24548,0.50541 -0.16092,0.32392 -0.24479,0.5024 -0.17883,0.86294 0.0519,0.1481 0.0519,0.1481 0.10478,0.29908 0.21405,0.70572 0.23369,1.34663 0.21845,2.07973 -0.001,0.12476 -0.003,0.24952 -0.004,0.37798 -0.0425,3.00019 -0.0425,3.00019 -0.25588,3.42704 0.0834,0.0262 0.16681,0.0524 0.25276,0.0795 0.59262,0.27656 1.00399,0.74904 1.2802,1.34201 0.30763,1.13522 0.19292,2.40526 -0.37775,3.43039 -0.0784,0.11483 -0.157,0.22966 -0.23786,0.34807 -0.30244,0.53197 -0.27899,1.02537 -0.26119,1.62388 10e-4,0.11067 0.002,0.22134 0.003,0.33547 0.004,0.35245 0.0113,0.70468 0.019,1.05713 0.0533,2.89831 0.0533,2.89831 -0.2166,4.14432 -0.0386,0.18218 -0.0386,0.18218 -0.078,0.36816 -0.37764,1.70406 -1.12795,3.21588 -2.46348,4.3682 -0.0763,0.0381 -0.15249,0.0762 -0.23104,0.11552 -0.0118,0.78196 -0.004,1.53678 0.11552,2.31042 0.0762,-0.3431 0.15248,-0.6862 0.23104,-1.03969 0.90834,0.0726 1.80651,0.18241 2.70758,0.31768 0.13377,0.02 0.26766,0.0401 0.40559,0.0607 5.14485,0.78277 10.2585,1.87214 14.44602,5.16668 0.15075,0.11771 0.15075,0.11771 0.30462,0.23786 0.2858,0.22595 0.56883,0.45515 0.85059,0.68631 0.0831,0.0673 0.16623,0.13458 0.25183,0.204 0.19038,0.15746 0.37441,0.32254 0.55681,0.48912 0,0.0762 0,0.15249 0,0.23104 0.066,0.0273 0.13193,0.0545 0.19985,0.0826 1.73293,0.98123 3.0441,3.64169 3.9946,5.34423 0.0645,0.11517 0.12892,0.23047 0.19535,0.34922 0.0406,0.10108 0.0814,0.20228 0.12337,0.30648 0.21199,0.31849 0.21199,0.31849 0.65767,0.34125 0.18668,0.002 0.37325,8.7e-4 0.55992,-0.003 0.10271,2.3e-4 0.20552,4.4e-4 0.31145,8.7e-4 0.34587,1.2e-4 0.69162,-0.004 1.03749,-0.008 0.24745,-8.8e-4 0.4949,-0.001 0.74234,-0.001 0.53371,-8.8e-4 1.0673,-0.004 1.60089,-0.008 0.84423,-0.007 1.68846,-0.009 2.53269,-0.0112 1.48837,-0.004 2.97662,-0.0116 4.46488,-0.0199 2.23798,-0.0124 4.47609,-0.0222 6.71408,-0.0285 0.83868,-0.003 1.67748,-0.007 2.51616,-0.0127 0.52285,-0.003 1.04569,-0.005 1.56854,-0.007 0.2419,-8.7e-4 0.48369,-0.003 0.72559,-0.005 0.3312,-0.003 0.66228,-0.004 0.9936,-0.004 0.0947,-0.001 0.18957,-0.003 0.2873,-0.004 0.8373,0.003 1.65634,0.13146 2.31145,0.67741 0.41184,0.51477 0.52182,0.78462 0.50841,1.42957 -0.0987,0.76868 -0.39554,1.49196 -0.65997,2.21651 -0.0586,0.16404 -0.11679,0.32808 -0.1749,0.49212 -0.11159,0.31444 -0.22376,0.62855 -0.33674,0.94253 -0.26743,0.74731 -0.50887,1.50016 -0.74326,2.25855 -0.31607,1.01555 -0.65189,2.02428 -0.99025,3.03266 -0.10813,0.3223 -0.2159,0.64484 -0.32369,0.96726 -0.30613,0.91538 -0.61261,1.83066 -0.91931,2.74581 -0.18899,0.56386 -0.37764,1.12772 -0.56605,1.69169 -0.0709,0.21221 -0.1421,0.42443 -0.21326,0.63652 -0.36966,1.10023 -0.72628,2.2016 -1.04893,3.31673 -0.17259,0.5962 -0.35996,1.18478 -0.56397,1.77093 -0.05,0.14567 -0.05,0.14567 -0.10097,0.29435 -0.072,0.20932 -0.14393,0.41865 -0.21614,0.62797 -0.20123,0.58315 -0.40085,1.16676 -0.60024,1.75049 -0.0433,0.12673 -0.0866,0.25357 -0.13135,0.38411 -0.37487,1.09964 -0.74349,2.20125 -1.1105,3.30355 -0.0289,0.0868 -0.0579,0.17363 -0.0877,0.26304 -0.2895,0.86976 -0.57865,1.73963 -0.86733,2.60974 -0.10825,0.32611 -0.21672,0.65223 -0.32508,0.97834 -0.0754,0.22689 -0.15052,0.45389 -0.22573,0.68088 -0.0449,0.13528 -0.09,0.27067 -0.13631,0.40999 -0.0589,0.1779 -0.0589,0.1779 -0.11911,0.35927 -0.098,0.28071 -0.098,0.28071 -0.21348,0.51176 0.17548,-3.5e-4 0.17548,-3.5e-4 0.35442,-8.8e-4 1.09987,-0.002 2.19975,-0.004 3.29963,-0.005 0.56559,-4.4e-4 1.13106,-10e-4 1.69665,-0.003 0.54526,-10e-4 1.09052,-0.002 1.63578,-0.002 0.20851,-2.4e-4 0.41703,-4.4e-4 0.62554,-10e-4 0.29112,-8.8e-4 0.58211,-8.8e-4 0.87311,-8.8e-4 0.0871,-3.4e-4 0.17421,-8.7e-4 0.26385,-0.001 0.59505,0.001 0.59505,0.001 0.72374,0.12985 0.0217,0.3394 0.0217,0.3394 0,0.69312 -0.23104,0.23105 -0.23104,0.23105 -0.50806,0.25993 -0.11771,0 -0.23543,0 -0.35673,0 -0.13574,4.3e-4 -0.27159,8.7e-4 -0.41148,0.002 -0.15076,-4.3e-4 -0.30152,-10e-4 -0.45689,-0.002 -0.16115,2.3e-4 -0.32231,4.3e-4 -0.48357,8.7e-4 -0.44649,8.7e-4 -0.89298,1.2e-4 -1.33947,-8.7e-4 -0.48438,-8.8e-4 -0.96876,-1.2e-4 -1.45313,4.3e-4 -0.85012,4.4e-4 -1.70024,3.5e-4 -2.55048,-3.5e-4 -1.26414,-0.001 -2.52829,-8.7e-4 -3.79243,-4.3e-4 -2.12617,8.7e-4 -4.25233,3.5e-4 -6.37861,-8.8e-4 -2.10618,-8.7e-4 -4.21247,-0.001 -6.31877,-0.001 -0.13077,0 -0.26154,0 -0.39635,0 -0.53093,0 -1.06187,0 -1.5928,0 -4.98485,1.2e-4 -9.96958,-8.7e-4 -14.95442,-0.003 -4.43289,-10e-4 -8.86578,-0.002 -13.29866,-0.002 -0.28465,0 -0.56929,0 -0.85393,0 -0.21106,0 -0.21106,0 -0.42639,0 -0.70826,1.2e-4 -1.41663,1.2e-4 -2.12489,1.2e-4 -0.13967,0 -0.27945,0 -0.42339,0 -3.69944,0 -7.39877,-4.4e-4 -11.09821,-0.001 -0.13158,0 -0.26304,0 -0.39855,0 -0.52897,-1.2e-4 -1.05794,-2.3e-4 -1.58691,-3.5e-4 -1.84348,-3.4e-4 -3.68685,-4.3e-4 -5.53033,-4.3e-4 -2.37512,-1.2e-4 -4.75023,-4.4e-4 -7.12522,-0.002 -1.25745,-8.7e-4 -2.51478,-8.7e-4 -3.77211,-8.7e-4 -0.83833,0 -1.67655,-3.5e-4 -2.51477,-8.8e-4 -0.47872,-3.4e-4 -0.95744,-4.3e-4 -1.43605,-2.3e-4 -0.43447,3.5e-4 -0.86894,1.1e-4 -1.30342,-4.4e-4 -0.23196,-2.3e-4 -0.46393,1.2e-4 -0.69578,4.4e-4 -0.13551,-3.5e-4 -0.27101,-8.7e-4 -0.41056,-8.7e-4 -0.11772,0 -0.23543,0 -0.35673,0 -0.26258,-0.0145 -0.26258,-0.0145 -0.3781,-0.13008 0,-0.30497 0,-0.60995 0,-0.92416 5.54674,-0.0572 5.54674,-0.0572 11.20553,-0.11553 -0.41934,-0.26685 -0.83868,-0.5337 -1.27073,-0.80864 -2.07464,-1.73085 -3.10405,-4.18267 -3.46563,-6.81574 -0.0758,-0.88662 -0.0671,-1.77521 -0.0578,-2.66414 7e-4,-0.11969 0.001,-0.23925 0.002,-0.36251 0.0106,-1.71063 0.10466,-3.3441 0.44475,-5.02389 0.0833,-0.43586 0.15145,-0.87334 0.21753,-1.31209 0.42165,-2.76788 1.03541,-5.47881 1.70393,-8.19655 0.0526,-0.21499 0.10513,-0.42997 0.1578,-0.64496 1.7863,-7.27909 1.7863,-7.27909 3.19231,-10.21402 0.0334,-0.0702 0.0669,-0.14047 0.10131,-0.21279 3.02908,-6.24437 10.31637,-8.41685 16.37441,-10.6069 0.24571,-0.0899 0.49142,-0.17987 0.73691,-0.27032 0.11228,-0.0411 0.22468,-0.0822 0.34044,-0.12453 0.10269,-0.039 0.20539,-0.0781 0.31121,-0.11829 0.0886,-0.0333 0.17721,-0.0665 0.26858,-0.10085 0.26374,-0.13297 0.41958,-0.28349 0.61758,-0.50102 0.10247,-0.10247 0.20493,-0.20493 0.31052,-0.31052 0.41853,0 0.57241,0.11206 0.92417,0.34656 0.44637,-2.83281 0.36054,-5.50445 -1.01705,-8.05135 -0.16092,-0.31005 -0.27505,-0.623 -0.3692,-0.95928 -0.095,0.005 -0.19004,0.0107 -0.28788,0.0163 -1.23388,0.0399 -2.02959,-0.15561 -2.97559,-0.96217 -0.50541,-0.48392 -0.90522,-0.98239 -1.24185,-1.59558 -0.0392,-0.0679 -0.0783,-0.13585 -0.11864,-0.20574 -0.38861,-0.8165 -0.38873,-2.02035 -0.13585,-2.87948 0.18287,-0.37914 0.41483,-0.67013 0.71657,-0.95801 -0.16069,-0.51915 -0.3677,-0.99233 -0.60648,-1.48006 -0.27182,-0.5605 -0.49651,-1.11639 -0.6847,-1.71017 -0.27482,-0.86467 -0.56905,-1.44124 -1.22856,-2.09081 -0.79675,-0.83233 -1.11212,-1.68846 -1.12136,-2.81201 0.0341,-1.37216 0.76336,-2.42467 1.70116,-3.39089 1.40959,-1.30712 3.04155,-2.24423 4.74237,-3.11988 0.46982,-0.24363 0.91354,-0.49084 1.34189,-0.80379 1.55664,-1.05575 3.68593,-0.95536 5.48274,-0.70664 1.75903,0.3439 3.60864,1.11974 4.74225,2.57253 0.10651,0.15885 0.20528,0.32277 0.30185,0.48785 -0.24502,-1.06175 -1.10773,-1.91361 -1.96385,-2.54146 -0.64149,-0.38446 -1.21286,-0.58223 -1.96201,-0.61411 -0.10801,-0.005 -0.21603,-0.01 -0.32716,-0.0147 -0.11182,-0.005 -0.22376,-0.009 -0.33893,-0.0138 -0.11368,-0.005 -0.22724,-0.0101 -0.34426,-0.0151 -0.28002,-0.0122 -0.55993,-0.024 -0.83983,-0.0355 -0.0381,-0.15249 -0.0762,-0.30498 -0.11553,-0.46208 1.6054,-1.08602 3.72879,-0.24907 5.31397,0.46208 z"
     fill="#5d8ab9"
     id="path2"
     style="stroke-width:0.180618" />
  <path
     d="m 186.68491,233.65772 c 0.29885,0.29609 0.59273,0.59366 0.88038,0.90072 1.2616,1.33531 2.73103,2.23325 4.43358,2.91148 0.0749,0.0298 0.14971,0.0597 0.22677,0.0905 1.76573,0.67441 3.76275,0.82713 5.53195,0.0887 1.09929,-0.50309 2.21072,-1.35252 2.66715,-2.51131 0.10558,-0.37903 0.18945,-0.74326 0.2382,-1.13349 0.0617,0.0218 0.12337,0.0437 0.18692,0.0662 0.84734,0.2784 1.70173,0.4027 2.58189,0.52019 5.33175,0.71935 11.26179,2.24584 15.09408,6.29797 0.17097,0.18287 0.17097,0.18287 0.44718,0.38631 1.46689,1.21019 2.56873,3.00343 3.51623,4.62799 0.0574,0.0982 0.11483,0.19639 0.17409,0.29759 0.0531,0.0924 0.10628,0.18483 0.16115,0.28002 0.0481,0.0834 0.0961,0.16681 0.14568,0.25276 0.10385,0.20932 0.10385,0.20932 0.10385,0.44037 -2.21107,0 -4.42214,0 -6.70022,0 -0.0381,-1.60113 -0.0762,-3.20224 -0.11552,-4.85188 -0.19061,-0.0381 -0.38122,-0.0762 -0.57761,-0.11552 0,1.63924 0,3.27848 0,4.9674 -0.46462,0.003 -0.92925,0.006 -1.40796,0.009 -0.37244,0.003 -0.745,0.008 -1.11744,0.0122 -0.39208,0.004 -0.78415,0.008 -1.17623,0.01 -0.45088,0.003 -0.90164,0.008 -1.35241,0.0138 -0.20886,1.2e-4 -0.20886,1.2e-4 -0.42199,3.5e-4 -0.92752,0.0161 -1.58691,0.12326 -2.29275,0.77029 -0.30451,0.51129 -0.47745,1.04651 -0.66424,1.61013 -0.0641,0.1898 -0.12835,0.37972 -0.1927,0.56952 -0.33188,0.98493 -0.65292,1.97183 -0.95685,2.96589 -0.24976,0.80864 -0.5128,1.61313 -0.7733,2.41843 -0.0433,0.13435 -0.0866,0.2687 -0.13123,0.40698 -0.0383,0.11818 -0.0765,0.23624 -0.11576,0.35788 -0.12118,0.3788 -0.23774,0.75897 -0.3543,1.13915 -0.23243,0.75713 -0.47074,1.51229 -0.71103,2.26687 -0.0739,0.23255 -0.14786,0.46497 -0.22168,0.69752 -0.18334,0.57679 -0.36678,1.15359 -0.55023,1.73039 -0.15584,0.48992 -0.31168,0.97996 -0.4674,1.46989 -0.0718,0.22607 -0.14371,0.45214 -0.21567,0.6781 -0.26027,0.81905 -0.51511,1.63925 -0.76129,2.46256 -0.0936,0.28049 -0.0936,0.28049 -0.20909,0.39601 -0.16046,-10e-4 -0.32092,-0.01 -0.48103,-0.0213 -1.50697,-0.079 -2.44165,0.0931 -3.67772,0.94542 -0.17779,0.11841 -0.35558,0.23682 -0.53336,0.35511 -0.46868,0.31503 -0.93203,0.6371 -1.39446,0.96102 -0.40813,0.28372 -0.82077,0.56017 -1.23457,0.83545 -0.10397,0.0695 -0.10397,0.0695 -0.21002,0.14047 -1.06857,0.7115 -1.06857,0.7115 -1.47948,0.7115 -0.0381,-0.30498 -0.0762,-0.60995 -0.11552,-0.92417 -0.33397,0.0302 -0.33397,0.0302 -0.69313,0.23104 -1.15359,1.60054 -1.44886,4.00719 -1.43141,5.92345 0.002,0.24156 0,0.48288 -0.002,0.72444 -0.002,1.30065 0.0952,2.66044 0.62497,3.86452 0.2791,-0.003 0.2791,-0.003 0.57761,-0.11552 0.35557,-0.52678 0.46139,-1.11778 0.5776,-1.73282 0.11437,0 0.22873,0 0.34656,0 0.0337,0.157 0.0337,0.157 0.0682,0.31723 0.20528,0.47363 0.47988,0.62196 0.92094,0.84515 0.0723,0.0388 0.14451,0.0776 0.21903,0.11759 0.14486,0.0776 0.29018,0.15458 0.43597,0.23047 0.27817,0.14556 0.55161,0.29943 0.82516,0.45342 0.13956,0.0772 0.27911,0.15422 0.41877,0.23104 0,0.0381 0,0.0762 0,0.11552 -2.76488,0.005 -5.52987,0.009 -8.29475,0.012 -1.28436,0.001 -2.56873,0.003 -3.85309,0.005 -1.12205,0.002 -2.24411,0.004 -3.36605,0.004 -0.59181,3.5e-4 -1.18351,8.8e-4 -1.77532,0.003 -2.28189,0.006 -4.56308,-0.002 -6.84347,-0.0931 -0.20285,-0.008 -0.40571,-0.015 -0.60856,-0.0213 -1.80409,-0.0577 -3.0583,-0.49755 -4.48556,-1.64282 -0.12685,-0.0983 -0.12685,-0.0983 -0.25635,-0.19858 -0.99579,-0.812 -1.5779,-1.85955 -2.05407,-3.03601 -0.0416,-0.0996 -0.0831,-0.19927 -0.12592,-0.30186 -0.60972,-1.55318 -0.74014,-3.07574 -0.71877,-4.7233 7e-4,-0.0913 0.001,-0.18253 0.002,-0.27656 0.0343,-4.23997 0.8083,-8.36984 1.76678,-12.48851 0.0531,-0.23197 0.10616,-0.46393 0.1593,-0.69579 0.23555,-1.01831 0.49409,-2.02773 0.77989,-3.033 0.17732,-0.62647 0.33628,-1.25594 0.49038,-1.88842 1.32226,-5.35497 2.98298,-10.33231 7.92255,-13.35076 2.43483,-1.44805 5.07957,-2.57935 7.77294,-3.44899 0.32531,-0.11194 0.63802,-0.24075 0.95397,-0.37672 0.74349,-0.31837 1.50443,-0.58003 2.26953,-0.84064 0.0958,-0.0328 0.19142,-0.0656 0.28995,-0.0993 0.12835,-0.0436 0.12835,-0.0436 0.25923,-0.0879 0.48531,-0.16693 0.48531,-0.16693 0.82563,-0.52181 0.0402,-0.10847 0.0402,-0.10847 0.0812,-0.21926 0.0477,-0.12869 0.0953,-0.25738 0.1444,-0.38988 z"
     fill="#f1e8d7"
     id="path3"
     style="stroke-width:0.180618" />
  <path
     d="m 196.38867,201.42737 c -0.0381,-0.11436 -0.0762,-0.22873 -0.11553,-0.34656 0.67141,-0.3357 1.87156,-0.17698 2.57751,0.0144 1.53781,0.54988 2.71844,1.63809 3.42959,3.10463 0.38514,0.96494 0.40362,2.10848 0.0145,3.07574 -0.0802,0.16924 -0.16196,0.33778 -0.24548,0.50541 -0.16092,0.32392 -0.24479,0.5024 -0.17883,0.86294 0.0519,0.1481 0.0519,0.1481 0.10478,0.29908 0.21405,0.70572 0.23369,1.34663 0.21845,2.07973 -0.001,0.12476 -0.003,0.24952 -0.004,0.37798 -0.0425,3.00019 -0.0425,3.00019 -0.25588,3.42704 0.0834,0.0262 0.16681,0.0524 0.25276,0.0795 0.59262,0.27656 1.00399,0.74904 1.2802,1.34201 0.30763,1.13522 0.19292,2.40526 -0.37775,3.43039 -0.0784,0.11483 -0.157,0.22966 -0.23786,0.34807 -0.30244,0.53197 -0.27899,1.02537 -0.26119,1.62388 10e-4,0.11067 0.002,0.22134 0.003,0.33547 0.004,0.35245 0.0113,0.70468 0.019,1.05713 0.0533,2.89831 0.0533,2.89831 -0.2166,4.14432 -0.0386,0.18218 -0.0386,0.18218 -0.078,0.36816 -0.37764,1.70406 -1.12795,3.21588 -2.46348,4.3682 -0.0763,0.0381 -0.15249,0.0762 -0.23104,0.11552 -0.0118,0.78196 -0.004,1.53678 0.11552,2.31042 0.0762,-0.3431 0.15248,-0.6862 0.23104,-1.03969 0.90834,0.0726 1.80651,0.18241 2.70758,0.31768 0.13377,0.02 0.26766,0.0401 0.40559,0.0607 5.14485,0.78277 10.2585,1.87214 14.44602,5.16668 0.15075,0.11771 0.15075,0.11771 0.30462,0.23786 0.2858,0.22595 0.56883,0.45515 0.85059,0.68631 0.0831,0.0673 0.16623,0.13458 0.25183,0.204 0.19038,0.15746 0.37441,0.32254 0.55681,0.48912 0,0.0762 0,0.15249 0,0.23104 0.066,0.0273 0.13193,0.0545 0.19985,0.0826 1.73293,0.98123 3.0441,3.64169 3.9946,5.34423 0.0645,0.11517 0.12892,0.23047 0.19535,0.34922 0.0406,0.10108 0.0814,0.20228 0.12337,0.30648 0.21199,0.31849 0.21199,0.31849 0.65767,0.34125 0.18668,0.002 0.37325,8.7e-4 0.55992,-0.003 0.10271,2.3e-4 0.20552,4.4e-4 0.31145,8.7e-4 0.34587,1.2e-4 0.69162,-0.004 1.03749,-0.008 0.24745,-8.8e-4 0.4949,-0.001 0.74234,-0.001 0.53371,-8.8e-4 1.0673,-0.004 1.60089,-0.008 0.84423,-0.007 1.68846,-0.009 2.53269,-0.0112 1.48837,-0.004 2.97662,-0.0116 4.46488,-0.0199 2.23798,-0.0124 4.47609,-0.0222 6.71408,-0.0285 0.83868,-0.003 1.67748,-0.007 2.51616,-0.0127 0.52285,-0.003 1.04569,-0.005 1.56854,-0.007 0.2419,-8.7e-4 0.48369,-0.003 0.72559,-0.005 0.3312,-0.003 0.66228,-0.004 0.9936,-0.004 0.0947,-0.001 0.18957,-0.003 0.2873,-0.004 0.8373,0.003 1.65634,0.13146 2.31145,0.67741 0.41184,0.51477 0.52182,0.78462 0.50841,1.42957 -0.0987,0.76868 -0.39554,1.49196 -0.65997,2.21651 -0.0586,0.16404 -0.11679,0.32808 -0.1749,0.49212 -0.11159,0.31444 -0.22376,0.62855 -0.33674,0.94253 -0.26743,0.74731 -0.50887,1.50016 -0.74326,2.25855 -0.31607,1.01555 -0.65189,2.02428 -0.99025,3.03266 -0.10813,0.3223 -0.2159,0.64484 -0.32369,0.96726 -0.30613,0.91538 -0.61261,1.83066 -0.91931,2.74581 -0.18899,0.56386 -0.37764,1.12772 -0.56605,1.69169 -0.0709,0.21221 -0.1421,0.42443 -0.21326,0.63652 -0.36966,1.10023 -0.72628,2.2016 -1.04893,3.31673 -0.17259,0.5962 -0.35996,1.18478 -0.56397,1.77093 -0.05,0.14567 -0.05,0.14567 -0.10097,0.29435 -0.072,0.20932 -0.14393,0.41865 -0.21614,0.62797 -0.20123,0.58315 -0.40085,1.16676 -0.60024,1.75049 -0.0433,0.12673 -0.0866,0.25357 -0.13135,0.38411 -0.37487,1.09964 -0.74349,2.20125 -1.1105,3.30355 -0.0289,0.0868 -0.0579,0.17363 -0.0877,0.26304 -0.2895,0.86976 -0.57865,1.73963 -0.86733,2.60974 -0.10825,0.32611 -0.21672,0.65223 -0.32508,0.97834 -0.0754,0.22689 -0.15052,0.45389 -0.22573,0.68088 -0.0449,0.13528 -0.09,0.27067 -0.13631,0.40999 -0.0589,0.1779 -0.0589,0.1779 -0.11911,0.35927 -0.098,0.28071 -0.098,0.28071 -0.21348,0.51176 0.17548,-3.5e-4 0.17548,-3.5e-4 0.35442,-8.8e-4 1.09987,-0.002 2.19975,-0.004 3.29963,-0.005 0.56559,-4.4e-4 1.13106,-10e-4 1.69665,-0.003 0.54526,-10e-4 1.09052,-0.002 1.63578,-0.002 0.20851,-2.4e-4 0.41703,-4.4e-4 0.62554,-10e-4 0.29112,-8.8e-4 0.58211,-8.8e-4 0.87311,-8.8e-4 0.0871,-3.4e-4 0.17421,-8.7e-4 0.26385,-0.001 0.59505,0.001 0.59505,0.001 0.72374,0.12985 0.0217,0.3394 0.0217,0.3394 0,0.69312 -0.23104,0.23105 -0.23104,0.23105 -0.50806,0.25993 -0.11771,0 -0.23543,0 -0.35673,0 -0.13574,4.3e-4 -0.27159,8.7e-4 -0.41148,0.002 -0.15076,-4.3e-4 -0.30152,-10e-4 -0.45689,-0.002 -0.16115,2.3e-4 -0.32231,4.3e-4 -0.48357,8.7e-4 -0.44649,8.7e-4 -0.89298,1.2e-4 -1.33947,-8.7e-4 -0.48438,-8.8e-4 -0.96876,-1.2e-4 -1.45313,4.3e-4 -0.85012,4.4e-4 -1.70024,3.5e-4 -2.55048,-3.5e-4 -1.26414,-0.001 -2.52829,-8.7e-4 -3.79243,-4.3e-4 -2.12617,8.7e-4 -4.25233,3.5e-4 -6.37861,-8.8e-4 -2.10618,-8.7e-4 -4.21247,-0.001 -6.31877,-0.001 -0.13077,0 -0.26154,0 -0.39635,0 -0.53093,0 -1.06187,0 -1.5928,0 -4.98485,1.2e-4 -9.96958,-8.7e-4 -14.95442,-0.003 -4.43289,-10e-4 -8.86578,-0.002 -13.29866,-0.002 -0.28465,0 -0.56929,0 -0.85393,0 -0.21106,0 -0.21106,0 -0.42639,0 -0.70826,1.2e-4 -1.41663,1.2e-4 -2.12489,1.2e-4 -0.13967,0 -0.27945,0 -0.42339,0 -3.69944,0 -7.39877,-4.4e-4 -11.09821,-0.001 -0.13158,0 -0.26304,0 -0.39855,0 -0.52897,-1.2e-4 -1.05794,-2.3e-4 -1.58691,-3.5e-4 -1.84348,-3.4e-4 -3.68685,-4.3e-4 -5.53033,-4.3e-4 -2.37512,-1.2e-4 -4.75023,-4.4e-4 -7.12522,-0.002 -1.25745,-8.7e-4 -2.51478,-8.7e-4 -3.77211,-8.7e-4 -0.83833,0 -1.67655,-3.5e-4 -2.51477,-8.8e-4 -0.47872,-3.4e-4 -0.95744,-4.3e-4 -1.43605,-2.3e-4 -0.43447,3.5e-4 -0.86894,1.1e-4 -1.30342,-4.4e-4 -0.23196,-2.3e-4 -0.46393,1.2e-4 -0.69578,4.4e-4 -0.13551,-3.5e-4 -0.27101,-8.7e-4 -0.41056,-8.7e-4 -0.11772,0 -0.23543,0 -0.35673,0 -0.26258,-0.0145 -0.26258,-0.0145 -0.3781,-0.13008 0,-0.30497 0,-0.60995 0,-0.92416 5.54674,-0.0572 5.54674,-0.0572 11.20553,-0.11553 -0.41934,-0.26685 -0.83868,-0.5337 -1.27073,-0.80864 -2.07464,-1.73085 -3.10405,-4.18267 -3.46563,-6.81574 -0.0758,-0.88662 -0.0671,-1.77521 -0.0578,-2.66414 7e-4,-0.11969 0.001,-0.23925 0.002,-0.36251 0.0106,-1.71063 0.10466,-3.3441 0.44475,-5.02389 0.0833,-0.43586 0.15145,-0.87334 0.21753,-1.31209 0.42165,-2.76788 1.03541,-5.47881 1.70393,-8.19655 0.0526,-0.21499 0.10513,-0.42997 0.1578,-0.64496 1.7863,-7.27909 1.7863,-7.27909 3.19231,-10.21402 0.0334,-0.0702 0.0669,-0.14047 0.10131,-0.21279 3.02908,-6.24437 10.31637,-8.41685 16.37441,-10.6069 0.24571,-0.0899 0.49142,-0.17987 0.73691,-0.27032 0.11228,-0.0411 0.22468,-0.0822 0.34044,-0.12453 0.10269,-0.039 0.20539,-0.0781 0.31121,-0.11829 0.0886,-0.0333 0.17721,-0.0665 0.26858,-0.10085 0.26374,-0.13297 0.41958,-0.28349 0.61758,-0.50102 0.10247,-0.10247 0.20493,-0.20493 0.31052,-0.31052 0.41853,0 0.57241,0.11206 0.92417,0.34656 0.44637,-2.83281 0.36054,-5.50445 -1.01705,-8.05135 -0.16092,-0.31005 -0.27505,-0.623 -0.3692,-0.95928 -0.095,0.005 -0.19004,0.0107 -0.28788,0.0163 -1.23388,0.0399 -2.02959,-0.15561 -2.97559,-0.96217 -0.50541,-0.48392 -0.90522,-0.98239 -1.24185,-1.59558 -0.0392,-0.0679 -0.0783,-0.13585 -0.11864,-0.20574 -0.38861,-0.8165 -0.38873,-2.02035 -0.13585,-2.87948 0.18287,-0.37914 0.41483,-0.67013 0.71657,-0.95801 -0.16069,-0.51915 -0.3677,-0.99233 -0.60648,-1.48006 -0.27182,-0.5605 -0.49651,-1.11639 -0.6847,-1.71017 -0.27482,-0.86467 -0.56905,-1.44124 -1.22856,-2.09081 -0.79675,-0.83233 -1.11212,-1.68846 -1.12136,-2.81201 0.0341,-1.37216 0.76336,-2.42467 1.70116,-3.39089 1.40959,-1.30712 3.04155,-2.24423 4.74237,-3.11988 0.46982,-0.24363 0.91354,-0.49084 1.34189,-0.80379 1.55664,-1.05575 3.68593,-0.95536 5.48274,-0.70664 1.75903,0.3439 3.60864,1.11974 4.74225,2.57253 0.10651,0.15885 0.20528,0.32277 0.30185,0.48785 -0.24502,-1.06175 -1.10773,-1.91361 -1.96385,-2.54146 -0.64149,-0.38446 -1.21286,-0.58223 -1.96201,-0.61411 -0.10801,-0.005 -0.21603,-0.01 -0.32716,-0.0147 -0.11182,-0.005 -0.22376,-0.009 -0.33893,-0.0138 -0.11368,-0.005 -0.22724,-0.0101 -0.34426,-0.0151 -0.28002,-0.0122 -0.55993,-0.024 -0.83983,-0.0355 -0.0381,-0.15249 -0.0762,-0.30498 -0.11553,-0.46208 1.6054,-1.08602 3.72879,-0.24907 5.31397,0.46208 z m -9.70376,32.23035 c -0.0388,0.12569 -0.0778,0.25138 -0.11784,0.38088 -0.16866,0.39219 -0.22769,0.42719 -0.63444,0.64622 -0.15976,0.0553 -0.32057,0.10767 -0.48241,0.15699 -0.0788,0.0265 -0.15769,0.053 -0.2389,0.0803 -0.15988,0.0538 -0.32011,0.10651 -0.48068,0.15803 -0.39301,0.12962 -0.77827,0.27864 -1.1648,0.42593 -0.20863,0.0778 -0.20863,0.0778 -0.42142,0.15699 -0.47606,0.17767 -0.95166,0.3565 -1.42692,0.53613 -0.11841,0.0446 -0.11841,0.0446 -0.23913,0.0902 -5.61639,2.12189 -5.61639,2.12189 -10.3888,5.68582 -0.0858,0.0844 -0.17154,0.16889 -0.25992,0.25588 -2.52529,2.63481 -3.50756,6.38438 -4.39257,9.81616 -0.10766,0.41692 -0.21822,0.83303 -0.32935,1.24902 -0.035,0.13192 -0.07,0.26385 -0.10605,0.39982 -0.0804,0.29723 -0.1623,0.59366 -0.2464,0.88985 -0.34449,1.2154 -0.65547,2.43542 -0.93722,3.66698 -0.0571,0.24815 -0.11483,0.49617 -0.17328,0.74396 -0.46498,1.97749 -0.84319,3.96121 -1.16515,5.967 -0.0262,0.16104 -0.0262,0.16104 -0.0529,0.32531 -0.3111,1.92412 -0.44637,3.82098 -0.45134,5.77004 -0.001,0.26582 -0.005,0.53152 -0.008,0.79733 -0.0187,2.6117 0.67603,5.35243 2.52656,7.2844 1.16238,1.08428 2.56203,1.97403 4.17123,2.05686 0.0903,0.005 0.18056,0.01 0.27356,0.0149 0.30105,0.0159 0.60209,0.0308 0.90314,0.0454 0.15722,0.008 0.15722,0.008 0.31768,0.0156 2.41532,0.11575 4.82774,0.12465 7.24536,0.1176 0.59921,-0.001 1.19853,-0.002 1.79774,-0.002 1.12621,-8.8e-4 2.25231,-0.003 3.37853,-0.005 1.28574,-0.003 2.57149,-0.004 3.85724,-0.005 2.637,-0.003 5.27388,-0.006 7.91088,-0.0117 -0.2672,-0.27725 -0.50806,-0.44984 -0.85243,-0.62497 -0.14533,-0.075 -0.14533,-0.075 -0.29354,-0.15144 -0.10074,-0.0511 -0.20147,-0.10224 -0.30521,-0.15492 -0.2002,-0.10212 -0.40005,-0.20447 -0.59978,-0.3074 -0.0885,-0.0449 -0.1771,-0.0899 -0.26824,-0.13631 -0.22227,-0.12673 -0.22227,-0.12673 -0.45331,-0.35777 -0.0722,-0.30324 -0.0722,-0.30324 -0.11552,-0.57761 -0.11436,0 -0.22873,0 -0.34656,0 -0.021,0.085 -0.042,0.17005 -0.0636,0.25762 -0.31607,1.22717 -0.31607,1.22717 -0.62948,1.59072 -0.15248,0 -0.30497,0 -0.46208,0 -0.5865,-1.35957 -0.62843,-2.81213 -0.6282,-4.27428 -1.2e-4,-0.0831 -2.3e-4,-0.16623 -4.4e-4,-0.25183 0.002,-1.44009 0.16878,-2.76846 0.62867,-4.13796 0.0259,-0.0786 0.0517,-0.15711 0.0784,-0.23809 0.42131,-1.24902 0.42131,-1.24902 0.84573,-1.72577 0.31041,-0.0866 0.31041,-0.0866 0.57761,-0.11552 0.0381,0.30497 0.0762,0.60995 0.11552,0.92417 0.60059,-0.0548 0.99891,-0.36667 1.48005,-0.70029 0.18495,-0.12557 0.36979,-0.25103 0.55462,-0.37637 0.14914,-0.102 0.14914,-0.102 0.30128,-0.20597 0.58661,-0.40051 1.17554,-0.79756 1.76504,-1.19391 0.11437,-0.0777 0.22873,-0.15561 0.34645,-0.23578 1.1522,-0.7748 2.00498,-1.31624 3.42243,-1.25144 0.11043,0.003 0.22098,0.005 0.33478,0.008 0.26893,0.007 0.53728,0.0166 0.80599,0.0282 0.33177,-0.69717 0.57841,-1.38487 0.77745,-2.12998 0.40421,-1.45996 0.87103,-2.8983 1.33797,-4.3392 0.1749,-0.54156 0.34944,-1.08324 0.524,-1.62492 0.0632,-0.19627 0.0632,-0.19627 0.12765,-0.39635 0.36654,-1.13904 0.72385,-2.28061 1.07099,-3.42554 0.2337,-0.76521 0.49547,-1.51679 0.76741,-2.26918 0.1548,-0.43805 0.28684,-0.87634 0.41253,-1.32353 0.20551,-0.71357 0.42061,-1.42344 0.64968,-2.12997 0.027,-0.0857 0.054,-0.17143 0.0817,-0.25981 0.27586,-0.8381 0.62935,-1.40542 1.41293,-1.85561 0.35789,-0.11933 0.61492,-0.13343 0.99037,-0.1392 0.19765,-0.004 0.19765,-0.004 0.39935,-0.007 0.14232,-0.002 0.28453,-0.004 0.43113,-0.006 0.14567,-0.003 0.29134,-0.005 0.4414,-0.007 0.38676,-0.006 0.77364,-0.0121 1.16052,-0.0177 0.39497,-0.006 0.78982,-0.0122 1.18479,-0.0186 0.77457,-0.0125 1.54913,-0.0239 2.3237,-0.0354 0,-1.63925 0,-3.27849 0,-4.9674 0.19061,0.0381 0.38122,0.0762 0.57761,0.11552 0.0381,1.60111 0.0762,3.20224 0.11552,4.85188 2.21107,0 4.42214,0 6.70022,0 -0.20459,-0.61793 -0.20459,-0.61793 -0.49501,-1.167 -0.0513,-0.0844 -0.10247,-0.16901 -0.15526,-0.25599 -0.082,-0.13193 -0.082,-0.13193 -0.16554,-0.26651 -0.0567,-0.0918 -0.11345,-0.18356 -0.1719,-0.27817 -0.69636,-1.11351 -1.47185,-2.12905 -2.36379,-3.09492 -0.18426,-0.2017 -0.35661,-0.40537 -0.52562,-0.61966 -0.36747,-0.42396 -0.7763,-0.77387 -1.20581,-1.13349 -0.14116,-0.12176 -0.14116,-0.12176 -0.28522,-0.24594 -0.8202,-0.69359 -1.68695,-1.27755 -2.6028,-1.83344 -0.10374,-0.0643 -0.10374,-0.0643 -0.20956,-0.12996 -3.52235,-2.16983 -7.664,-3.05091 -11.71209,-3.59132 -0.86363,-0.11737 -1.69331,-0.26096 -2.51847,-0.55299 -0.0129,0.0702 -0.0259,0.14059 -0.0392,0.21302 -0.22943,1.20361 -0.73009,2.0163 -1.69365,2.79052 -1.7327,1.05991 -3.57954,1.35749 -5.56938,0.92463 -2.41994,-0.62566 -4.37802,-1.91603 -6.09824,-3.69713 -0.1176,-0.11818 -0.23555,-0.23624 -0.35372,-0.35373 -0.0739,-0.0739 -0.14775,-0.14775 -0.22388,-0.22388 z m 21.80966,15.03483 c -0.26801,0.42604 -0.38919,0.84319 -0.52042,1.32629 -0.0595,0.20829 -0.11934,0.41646 -0.17952,0.62462 -0.032,0.11125 -0.064,0.22261 -0.0969,0.33733 -0.18391,0.62473 -0.38469,1.24404 -0.58454,1.86381 -0.0419,0.13031 -0.0839,0.26073 -0.12708,0.39497 -0.12915,0.40166 -0.25876,0.80321 -0.38826,1.20477 -0.13077,0.4057 -0.26142,0.81142 -0.39196,1.21724 -0.0804,0.24964 -0.16092,0.4994 -0.24156,0.74904 -0.23693,0.73575 -0.46739,1.47312 -0.69358,2.21222 -0.1444,0.47075 -0.29285,0.94035 -0.44187,1.40971 -0.21314,0.67348 -0.42524,1.3472 -0.63537,2.02161 -0.39739,1.27501 -0.80472,2.5469 -1.21043,3.81924 -0.10431,0.32739 -0.20863,0.65478 -0.31294,0.98216 -0.0306,0.0959 -0.0611,0.19165 -0.0926,0.29042 -0.14001,0.43933 -0.27922,0.87889 -0.41553,1.31936 -0.50471,1.6292 -1.04027,3.24823 -1.57224,4.86864 -0.44106,1.34397 -0.88108,2.68794 -1.29938,4.03907 -0.13458,0.43101 -0.27309,0.8604 -0.41298,1.28956 -0.0451,0.1384 -0.0901,0.27679 -0.13655,0.41946 -0.0923,0.28314 -0.18495,0.56628 -0.27795,0.8492 -0.0442,0.13654 -0.0886,0.27297 -0.13423,0.41367 -0.0399,0.12188 -0.0797,0.24387 -0.12084,0.36944 -0.10189,0.30937 -0.10189,0.30937 -0.0863,0.6535 13.80013,0 27.60027,0 41.81859,0 0.45746,-1.37238 0.91492,-2.74477 1.38625,-4.15875 0.42743,-1.24682 0.42743,-1.24682 0.63721,-1.84915 0.43043,-1.2378 0.84458,-2.47804 1.22557,-3.7319 0.50725,-1.66801 1.0584,-3.321 1.61001,-4.97468 0.0441,-0.13227 0.0883,-0.26454 0.13366,-0.40086 0.45365,-1.36107 0.91308,-2.71959 1.38937,-4.07292 0.29077,-0.82725 0.55854,-1.65623 0.79871,-2.49953 0.26328,-0.91689 0.57622,-1.81633 0.88801,-2.71763 0.14325,-0.41437 0.28557,-0.82909 0.42778,-1.24381 0.0713,-0.20771 0.14255,-0.41542 0.21394,-0.62301 0.87796,-2.5537 0.87796,-2.5537 1.69354,-5.12774 0.0237,-0.0761 0.0472,-0.15214 0.0716,-0.23047 0.12973,-0.44105 0.21441,-0.83464 0.15226,-1.29302 -0.36424,-0.36366 -0.64888,-0.39 -1.15209,-0.39023 -0.14209,-8.8e-4 -0.2843,-0.002 -0.43067,-0.003 -0.15803,8.7e-4 -0.31594,0.001 -0.47398,0.002 -0.16762,-3.5e-4 -0.33524,-8.7e-4 -0.50286,-0.002 -0.46127,-10e-4 -0.92255,-8.7e-4 -1.38371,3.5e-4 -0.49732,8.7e-4 -0.99452,-4.4e-4 -1.49172,-0.001 -0.9743,-0.001 -1.94861,-0.001 -2.92303,-2.3e-4 -0.79178,8.7e-4 -1.58368,8.7e-4 -2.37546,4.4e-4 -0.11263,-1.2e-4 -0.22515,-1.2e-4 -0.34113,-2.3e-4 -0.22873,-1.2e-4 -0.45746,-2.4e-4 -0.6862,-3.5e-4 -2.14614,-8.7e-4 -4.29229,2.3e-4 -6.43844,0.002 -1.84198,0.001 -3.68397,0.001 -5.52595,-3.5e-4 -2.13806,-0.002 -4.276,-0.003 -6.41407,-10e-4 -0.22792,1.1e-4 -0.45584,2.3e-4 -0.68377,3.4e-4 -0.16831,0 -0.16831,0 -0.33997,1.2e-4 -0.79086,3.5e-4 -1.58172,-2.3e-4 -2.37257,-8.8e-4 -0.9638,-8.7e-4 -1.92758,-8.7e-4 -2.89149,0.001 -0.49189,8.8e-4 -0.98378,0.001 -1.47555,1.2e-4 -0.4503,-8.8e-4 -0.90049,-4.4e-4 -1.35067,0.001 -0.16289,3.4e-4 -0.32589,2.3e-4 -0.48877,-8.8e-4 -0.22146,-8.7e-4 -0.44291,2.4e-4 -0.66436,0.002 -0.12292,1.2e-4 -0.24595,1.2e-4 -0.37268,2.3e-4 -0.53162,0.0667 -0.91249,0.26628 -1.29429,0.63814 z"
     fill="#16203f"
     id="path4"
     style="stroke-width:0.180618" />
  <path
     d="m 199.16117,209.74488 c 0.45099,0.45365 0.64784,0.96946 0.85924,1.55954 0.0522,0.14521 0.0522,0.14521 0.10547,0.29342 1.72312,4.9376 2.98934,12.6403 0.84435,17.62492 -0.26963,0.55069 -0.57379,0.99255 -1.00042,1.43142 -0.0772,0.0816 -0.15422,0.16323 -0.23369,0.24733 -1.20997,1.17935 -2.60835,1.4112 -4.22646,1.41398 -1.99828,-0.0297 -3.67564,-0.97535 -5.11907,-2.33053 -2.82622,-3.00158 -3.67912,-7.17373 -4.45657,-11.08504 -0.0295,-0.14625 -0.059,-0.29238 -0.0894,-0.44302 -0.31572,-1.65842 -0.31572,-1.65842 -0.19939,-2.47388 0.26708,-0.34657 0.26708,-0.34657 0.5776,-0.57761 0.20101,-0.13955 0.20101,-0.13955 0.34656,-0.34656 0.0385,-0.31526 0.0385,-0.31526 0.0135,-0.6706 -0.004,-0.13181 -0.007,-0.2635 -0.0112,-0.39936 -0.0112,-0.27736 -0.0232,-0.55473 -0.0362,-0.83209 -0.0263,-1.01636 -0.0263,-1.01636 0.29469,-1.47059 0.46809,-0.30809 0.77249,-0.46901 1.33935,-0.46612 0.16184,2.3e-4 0.16184,2.3e-4 0.32716,5.6e-4 0.16819,0.002 0.16819,0.002 0.33974,0.004 0.16416,1.2e-4 0.16416,1.2e-4 0.33166,2.3e-4 0.62682,0.004 1.24058,0.041 1.86359,0.10906 2.86873,0.29319 5.62228,-1.89016 8.12944,-1.58934 z"
     fill="#fcb489"
     id="path5"
     style="stroke-width:0.180618" />
  <path
     d="m 200.04201,267.70031 c 0.18808,0.004 0.18808,0.004 0.37995,0.009 0.32081,0.0248 0.62081,0.0714 0.93411,0.14301 -0.0381,0.19061 -0.0762,0.38122 -0.11552,0.57761 -0.53267,0.14983 -0.96322,0.0822 -1.50178,0 0.0769,0.36573 0.0769,0.36573 0.37949,0.48149 0.10593,0.0389 0.21175,0.0777 0.32092,0.11783 0.15919,0.0596 0.15919,0.0596 0.32172,0.12049 0.082,0.0293 0.16404,0.0587 0.2486,0.0888 -0.11436,0.34321 -0.22873,0.68631 -0.34656,1.03969 -0.51465,-0.11436 -0.51465,-0.11436 -1.03969,-0.23104 0.0738,0.28614 0.0738,0.28614 0.23105,0.5776 0.29157,0.15723 0.29157,0.15723 0.5776,0.23105 -0.10963,0.38757 -0.21914,0.77318 -0.34657,1.1552 -0.30497,-0.0381 -0.60995,-0.0761 -0.92416,-0.11552 -0.0381,0.11448 -0.0762,0.22885 -0.11552,0.34657 0.11193,0.0334 0.22399,0.0668 0.33928,0.1012 0.35384,0.12984 0.35384,0.12984 0.46937,0.36088 -0.0751,0.69786 -0.20436,1.38949 -0.74639,1.86867 -0.24744,0.14348 -0.49882,0.28025 -0.75273,0.41206 -0.58569,0.30902 -1.0859,0.72732 -1.60551,1.13442 -1.66755,1.27835 -3.40868,2.1287 -5.55945,2.01434 -0.43875,-1.51298 -0.18125,-3.47499 0.23104,-4.9674 0.0211,-0.0969 0.0421,-0.19385 0.0637,-0.29366 0.0866,-0.32392 0.1876,-0.56848 0.47513,-0.75551 0.17155,-0.0754 0.34576,-0.14532 0.52123,-0.21117 1.231,-0.47502 2.30049,-1.20038 3.35427,-1.98118 0.78323,-0.5783 1.59222,-1.106 2.42894,-1.60378 0.13782,-0.0826 0.27414,-0.16774 0.40883,-0.25519 0.47456,-0.297 0.81211,-0.38433 1.36869,-0.36504 z"
     fill="#fcb489"
     id="path6"
     style="stroke-width:0.180618" />
  <path
     d="m 175.24833,242.55284 c 0.425,0.0394 0.61469,0.24329 0.88397,0.55946 0.0514,0.0632 0.10281,0.12639 0.15572,0.19143 0.0551,0.067 0.1102,0.13388 0.16704,0.20296 4.76755,5.87829 5.87678,12.7958 5.11804,20.17204 -0.061,0.5448 -0.13019,1.08821 -0.20216,1.63174 -0.0207,0.16069 -0.0412,0.32126 -0.0618,0.48195 -0.12742,0.99545 -0.26085,1.98985 -0.40028,2.98368 0.0996,0.008 0.0996,0.008 0.201,0.0171 0.70029,0.0617 1.39919,0.13216 2.09809,0.20679 2.50947,0.27505 2.50947,0.27505 5.02782,0.43562 0.68146,0.0263 1.35864,0.0778 2.03745,0.14198 0.0985,0.009 0.19707,0.0172 0.29862,0.0262 0.091,0.009 0.18206,0.018 0.27586,0.0274 0.0803,0.008 0.16058,0.0155 0.24329,0.0234 0.21475,0.0456 0.21475,0.0456 0.56132,0.27668 -0.0381,0.1906 -0.0762,0.38121 -0.11552,0.5776 -3.05657,-0.0958 -6.09732,-0.40167 -9.13217,-0.76729 -0.75192,-0.0898 -1.49911,-0.16635 -2.25566,-0.20655 -0.43112,-0.0269 -0.7852,-0.0518 -1.17416,-0.24317 -0.51984,-0.2337 -0.98239,-0.2262 -1.54601,-0.21984 -0.16139,10e-4 -0.16139,10e-4 -0.32612,0.003 -0.87449,0.0213 -1.62526,0.1593 -2.43195,0.50968 -0.12984,0.0561 -0.25969,0.11228 -0.39346,0.17016 -1.56369,0.73159 -2.91852,1.7238 -4.05178,3.03058 -0.14671,0.16381 -0.14671,0.16381 -0.40664,0.38041 -0.32484,-0.0217 -0.32484,-0.0217 -0.5776,-0.11552 0.16438,-1.07446 1.53631,-2.01469 2.34623,-2.63099 1.02167,-0.74014 2.12535,-1.33589 3.3143,-1.75881 0.13804,-0.0531 0.13804,-0.0531 0.27886,-0.10743 1.12622,-0.37533 2.35779,-0.32647 3.53333,-0.35465 -2.56411,-1.08948 -5.08547,-0.4808 -7.59816,0.51753 -0.59921,0.2486 -1.17208,0.49859 -1.71572,0.85428 -0.38988,0.24548 -0.38988,0.24548 -0.85197,0.24548 -0.0381,-0.15249 -0.0762,-0.30498 -0.11552,-0.46208 0.4406,-0.37903 0.90338,-0.6542 1.4223,-0.90973 0.0803,-0.0397 0.16045,-0.0794 0.24305,-0.12038 1.16376,-0.56432 2.3713,-1.05228 3.64862,-1.28032 -0.21441,-0.003 -0.21441,-0.003 -0.43321,-0.007 -0.0804,-10e-4 -0.1608,-0.003 -0.24363,-0.004 -0.24317,0.002 -0.24317,0.002 -0.45307,0.0691 -0.3818,0.0861 -0.76256,0.0698 -1.15163,0.0649 -0.0805,-4.3e-4 -0.16115,-8.7e-4 -0.2441,-10e-4 -0.19789,-0.001 -0.39566,-0.003 -0.59343,-0.006 0,-0.15249 0,-0.30498 0,-0.46209 0.17051,-0.0566 0.34148,-0.11159 0.51268,-0.16612 0.0951,-0.0307 0.19027,-0.0616 0.28834,-0.0933 2.48047,-0.60983 5.63754,-0.32611 7.85716,0.96841 0.16011,0.10421 0.31468,0.21672 0.46798,0.33074 0.17155,0.11437 0.17155,0.11437 0.34656,0.23104 0.008,-0.11309 0.008,-0.11309 0.0171,-0.22838 0.0941,-1.19241 0.2285,-2.38008 0.36077,-3.56879 0.79652,-7.17963 0.24652,-13.86402 -4.30558,-19.7691 -0.28268,-0.34241 -0.57299,-0.67742 -0.8723,-1.00538 -0.16739,-0.26536 -0.16739,-0.26536 -0.1362,-0.58847 0.0278,-0.084 0.0557,-0.16796 0.0843,-0.25449 z"
     fill="#16203f"
     id="path7"
     style="stroke-width:0.180618" />
  <path
     d="m 185.76074,234.92846 c -0.0601,0.32357 -0.0601,0.32357 -0.23104,0.69312 -0.30706,0.15965 -0.56282,0.26708 -0.88813,0.36828 -0.16173,0.0544 -0.32346,0.10894 -0.48507,0.16369 -0.11957,0.0395 -0.11957,0.0395 -0.24156,0.0797 -0.35534,0.12395 -0.69717,0.27817 -1.04223,0.428 -0.23035,0.0839 -0.46139,0.16566 -0.69312,0.24548 -1.78261,0.63282 -3.53668,1.3025 -5.21196,2.18439 -0.22192,0.1139 -0.44626,0.22064 -0.67245,0.32588 -3.44495,1.61857 -5.92934,4.13634 -7.28025,7.70259 -0.7086,1.97772 -1.23145,4.00038 -1.74009,6.03609 -0.0826,0.32935 -0.16658,0.65835 -0.25056,0.98736 -1.0308,4.04462 -1.93406,8.14365 -2.55544,12.27202 -0.0185,0.12153 -0.0368,0.24294 -0.0559,0.36805 -0.23161,1.60644 -0.2821,3.2101 -0.28348,4.83039 -1.2e-4,0.0966 -2.3e-4,0.19304 -3.5e-4,0.29239 0.001,1.91915 0.10224,3.76852 0.74892,5.59248 0.089,0.28834 0.089,0.28834 0.089,0.75043 -0.0762,0 -0.15248,0 -0.23104,0 -1.17542,-2.2738 -1.80201,-4.30616 -1.76886,-6.8735 7e-4,-0.0913 0.001,-0.18252 0.002,-0.27656 0.0343,-4.23997 0.8083,-8.36984 1.76678,-12.48851 0.0531,-0.23196 0.10616,-0.46393 0.1593,-0.69578 0.23555,-1.01832 0.49408,-2.02774 0.77988,-3.033 0.17733,-0.62647 0.33628,-1.25595 0.49039,-1.88842 1.32225,-5.35498 2.98298,-10.33231 7.92254,-13.35076 2.43391,-1.44748 5.07784,-2.57889 7.77029,-3.44807 0.34021,-0.11714 0.66875,-0.25138 0.99995,-0.39219 0.51799,-0.21973 1.03888,-0.42605 1.56681,-0.62082 0.19627,-0.0727 0.19627,-0.0727 0.39658,-0.14671 0.33675,-0.0988 0.59136,-0.1288 0.93907,-0.10604 z"
     fill="#fefefe"
     id="path8"
     style="stroke-width:0.180618" />
  <path
     d="m 229.13164,262.06234 c 0.0893,0.0639 0.0893,0.0639 0.18044,0.12904 0.10016,0.0619 0.2002,0.12395 0.30336,0.18772 0.6453,0.64542 1.09895,1.4439 1.11177,2.35374 -0.0126,1.1499 -0.26616,2.04391 -1.06857,2.88803 -0.88893,0.82597 -1.90505,1.2504 -3.12311,1.208 -0.56882,-0.0877 -1.016,-0.32461 -1.49772,-0.6304 -0.16081,-0.10004 -0.16081,-0.10004 -0.32485,-0.20216 -0.77203,-0.79409 -0.98539,-1.69804 -0.99036,-2.77112 0.0222,-1.0636 0.49085,-1.82892 1.20384,-2.59968 1.07712,-0.96368 2.92685,-1.36211 4.2052,-0.56317 z"
     fill="#fefefe"
     id="path9"
     style="stroke-width:0.180618" />
  <path
     d="m 188.64876,229.26793 c 0.35246,0.35014 0.69578,0.70398 1.02721,1.07422 2.5804,2.87451 5.56072,4.1509 9.36968,4.47078 0.0283,0.16508 0.0537,0.33062 0.0781,0.4964 0.0217,0.13816 0.0217,0.13816 0.0439,0.27921 -0.006,0.26408 -0.006,0.26408 -0.15249,0.4756 -0.98713,0.90442 -2.30106,1.34051 -3.61696,1.31105 -2.74651,-0.14405 -5.26106,-1.14528 -7.21151,-3.13986 0.0241,-0.0693 0.0482,-0.13874 0.073,-0.21025 0.31052,-0.99256 0.33697,-1.95947 0.35303,-2.9883 0.004,-0.17224 0.008,-0.3446 0.0119,-0.51684 0.01,-0.41737 0.0174,-0.83464 0.0241,-1.25201 z"
     fill="#fcb489"
     id="path10"
     style="stroke-width:0.180618" />
  <path
     d="m 200.11422,266.99996 c 0.0802,1.2e-4 0.16023,3.5e-4 0.24282,4.4e-4 0.42604,0.007 0.75251,0.0406 1.11455,0.2739 0,0.46208 0,0.46208 -0.11552,0.80864 0,-0.0762 0,-0.15248 0,-0.23103 -1.49623,-0.12211 -2.45725,0.0489 -3.69668,0.92416 -0.18217,0.1228 -0.3647,0.24525 -0.54733,0.36736 -0.75955,0.51083 -1.5094,1.03264 -2.24689,1.57489 -0.61699,0.43633 -1.29418,0.75643 -1.97286,1.08475 -0.0728,0.036 -0.14556,0.0721 -0.22053,0.10916 -0.19408,0.0906 -0.39532,0.16532 -0.59667,0.23833 -0.39277,0.26407 -0.43101,0.45769 -0.52678,0.90707 -0.0157,0.0881 -0.0314,0.17628 -0.0476,0.26708 -0.018,0.0872 -0.0359,0.17455 -0.0544,0.26443 -0.0497,0.24351 -0.0953,0.48749 -0.14059,0.73194 -0.0309,0.134 -0.0309,0.134 -0.0626,0.27066 -0.0624,0.36193 -0.0659,0.70364 -0.0642,1.07088 4.4e-4,0.14406 8.8e-4,0.28823 10e-4,0.43667 8.8e-4,0.14937 0.002,0.29885 0.003,0.45284 4.4e-4,0.15157 8.7e-4,0.30325 0.001,0.45955 0.001,0.37382 0.003,0.74776 0.006,1.12159 1.24809,-0.11182 1.24809,-0.11182 2.45482,-0.42593 0.42512,-0.1489 0.49998,-0.16646 0.89529,-0.0361 -0.094,0.046 -0.094,0.046 -0.19003,0.093 -0.0826,0.0408 -0.1652,0.0815 -0.25034,0.1236 -0.0818,0.0402 -0.16357,0.0804 -0.24779,0.12188 -0.42292,0.21486 -0.42292,0.21486 -0.69809,0.58569 -0.23867,0.0731 -0.23867,0.0731 -0.52701,0.12996 -0.0955,0.0194 -0.19095,0.0387 -0.28926,0.0587 -0.11067,0.0211 -0.11067,0.0211 -0.22342,0.0424 -0.004,0.0836 -0.009,0.16739 -0.0131,0.25357 -0.052,0.76313 -0.11517,1.37643 -0.68007,1.94133 -0.28164,0.0145 -0.28164,0.0145 -0.5776,-0.11552 -0.66402,-1.27894 -0.62844,-2.86481 -0.62821,-4.27428 -1.1e-4,-0.0831 -2.3e-4,-0.16623 -4.3e-4,-0.25183 0.002,-1.44078 0.17039,-2.76754 0.62866,-4.13797 0.0253,-0.078 0.0506,-0.15595 0.0766,-0.23624 0.2307,-0.6974 0.45724,-1.29822 0.9631,-1.84313 0.31768,-0.0362 0.31768,-0.0362 0.5776,0 0.15642,0.31294 0.12303,0.57864 0.11553,0.92417 0.88119,-0.40398 1.65402,-0.90153 2.44038,-1.46562 0.79108,-0.55877 1.58252,-1.11166 2.40433,-1.62457 0.07,-0.044 0.14013,-0.088 0.21233,-0.13343 0.19927,-0.1228 0.4004,-0.24109 0.60348,-0.35753 0.0734,-0.0433 0.14683,-0.0868 0.22238,-0.13135 0.56525,-0.31225 1.01346,-0.39728 1.65484,-0.37406 z"
     fill="#16203f"
     id="path11"
     style="stroke-width:0.180618" />
  <path
     d="m 184.02792,218.06239 c 0.54191,0.27101 0.89148,0.61353 1.15521,1.15521 0.14775,0.47537 0.25484,0.9579 0.36101,1.44401 0.0578,0.25634 0.11586,0.51269 0.1742,0.76891 0.0248,0.11298 0.0498,0.22596 0.0754,0.34229 0.0797,0.34148 0.0797,0.34148 0.20701,0.70087 0.10582,0.32299 0.12638,0.56559 0.10651,0.90268 -0.57287,0.19095 -1.11801,0.22931 -1.67459,-0.007 -1.21032,-0.67972 -1.82847,-1.56403 -2.20437,-2.88478 -0.14036,-0.65524 -0.13493,-1.19738 0.21833,-1.77984 0.4101,-0.60937 0.8626,-0.75158 1.58125,-0.64252 z"
     fill="#fcb489"
     id="path12"
     style="stroke-width:0.180618" />
  <path
     d="m 185.5297,235.50606 c 0.45041,0.17374 0.63363,0.42997 0.90244,0.82309 1.89963,2.67546 4.70702,4.16233 7.89748,4.74941 0.56813,0.0964 1.13858,0.15399 1.71248,0.20355 0.0572,0.28591 0.0572,0.28591 0.11552,0.5776 -3.15199,0.14198 -6.04082,-0.94773 -8.43303,-3.00354 -0.0764,-0.0597 -0.15283,-0.11945 -0.2315,-0.18091 -0.5277,-0.42535 -0.94981,-0.91631 -1.37135,-1.44355 -0.0826,-0.10224 -0.0826,-0.10224 -0.16693,-0.20655 -0.32103,-0.41252 -0.52019,-0.77457 -0.65616,-1.28806 0.0762,-0.0762 0.15249,-0.15249 0.23105,-0.23104 z"
     fill="#16203f"
     id="path13"
     style="stroke-width:0.180618" />
  <path
     d="m 195.00241,216.56062 c 0.2166,0 0.2166,0 0.46209,0.11552 0.25541,0.53452 0.44163,1.07723 0.61688,1.64352 0.036,0.11598 0.036,0.11598 0.0729,0.23427 0.0761,0.24525 0.15168,0.49051 0.22723,0.73587 0.05,0.16174 0.10027,0.32346 0.15041,0.48507 0.26997,0.87034 0.53752,1.74137 0.8046,2.61251 0.0668,0.21487 0.13621,0.42893 0.20736,0.64241 0.0436,0.53094 0.0366,0.83106 -0.15884,1.3285 -0.39959,0.38064 -0.65396,0.35904 -1.18813,0.34702 -0.31341,-0.0675 -0.42893,-0.14787 -0.61688,-0.40478 0.036,-0.25277 0.036,-0.25277 0.11552,-0.46209 0.30498,0.0381 0.60995,0.0762 0.92417,0.11552 0.0179,-0.54999 -0.0272,-0.99787 -0.18772,-1.52349 -0.0422,-0.14012 -0.0843,-0.28025 -0.12766,-0.42454 -0.0234,-0.0762 -0.0469,-0.15237 -0.071,-0.23092 -0.0817,-0.26651 -0.16115,-0.53348 -0.2404,-0.80068 -0.34056,-1.14862 -0.34056,-1.14862 -0.70121,-2.29101 -0.0269,-0.0831 -0.0538,-0.16624 -0.0815,-0.25184 -0.073,-0.22411 -0.14717,-0.44776 -0.22133,-0.67141 -0.0998,-0.38214 -0.13135,-0.69116 -0.10201,-1.08393 0.0381,-0.0381 0.0763,-0.0762 0.11552,-0.11552 z"
     fill="#16203f"
     id="path14"
     style="stroke-width:0.180618" />
  <path
     d="m 188.3022,270.971 c 0.15248,0.0381 0.30497,0.0762 0.46208,0.11552 -0.0665,0.53809 -0.21926,0.9609 -0.44764,1.45117 -0.69382,1.54729 -0.84342,3.11306 -0.83811,4.79112 5.7e-4,0.23393 0,0.46786 -8.3e-4,0.70179 2.4e-4,0.22445 2.4e-4,0.22445 4.8e-4,0.4533 2.4e-4,0.20262 2.4e-4,0.20262 4.8e-4,0.40929 0.0154,0.40825 0.0657,0.80079 0.13043,1.20396 -0.22873,0.0572 -0.22873,0.0572 -0.46209,0.11552 -0.95304,-1.42957 -0.59135,-4.13287 -0.27436,-5.73272 0.27194,-1.25641 0.68793,-2.4509 1.42957,-3.50895 z"
     fill="#16203f"
     id="path15"
     style="stroke-width:0.180618" />
  <path
     d="m 198.93013,275.47632 c -0.0275,0.0909 -0.0275,0.0909 -0.0554,0.18367 -0.29435,0.97708 -0.58073,1.95624 -0.86872,2.93539 -1.37239,0 -2.74478,0 -4.15876,0 0.38249,-0.28684 0.53879,-0.38596 0.96021,-0.51985 0.82655,-0.31617 1.48838,-0.87264 2.18531,-1.40496 1.58126,-1.19425 1.58126,-1.19425 1.93741,-1.19425 z"
     fill="#f1e8d7"
     id="path16"
     style="stroke-width:0.180618" />
  <path
     d="m 193.42122,215.53537 c 0.31052,0.2166 0.31052,0.2166 0.4332,0.57044 -0.007,0.33929 -0.007,0.33929 -0.2382,0.57033 -0.21637,0.0277 -0.21637,0.0277 -0.4793,0.0275 -0.0965,0.001 -0.19303,0.003 -0.29238,0.004 -0.10282,0.001 -0.20551,0.003 -0.31144,0.004 -1.14516,0.0336 -1.99343,0.24352 -2.96011,0.88801 -0.40641,-0.0597 -0.40641,-0.0597 -0.57761,-0.23104 -0.0578,-0.31041 -0.0578,-0.31041 0,-0.69313 0.89968,-1.26541 3.03474,-1.61302 4.42584,-1.14077 z"
     fill="#16203f"
     id="path17"
     style="stroke-width:0.180618" />
  <path
     d="m 202.04919,234.92846 c 0.19061,0 0.38122,0 0.57761,0 0.31583,0.63178 0.17247,1.63346 -0.0307,2.29782 -0.0279,0.0804 -0.0559,0.16081 -0.0848,0.24364 -0.0491,0.15641 -0.0491,0.15641 -0.0992,0.31583 -0.58824,1.64513 -1.91349,2.79422 -3.45304,3.54696 -0.64831,0.30647 -0.64831,0.30647 -0.99822,0.25668 -0.0919,-0.0378 -0.0919,-0.0378 -0.18587,-0.0762 -0.0381,-0.15249 -0.0763,-0.30497 -0.11552,-0.46209 0.131,-0.0587 0.26211,-0.11736 0.39716,-0.17778 1.72507,-0.78312 2.84967,-1.49427 3.63163,-3.30228 0.3163,-0.86791 0.34807,-1.72831 0.361,-2.64254 z"
     fill="#16203f"
     id="path18"
     style="stroke-width:0.180618" />
  <path
     d="m 193.73168,278.47986 c 0.0381,0.0762 0.0762,0.15249 0.11552,0.23104 -0.0762,0 -0.15249,0 -0.23104,0 0.0762,0.15249 0.15249,0.30498 0.23104,0.46208 1.29615,0.0381 2.59229,0.0763 3.92772,0.11553 -0.38989,1.29961 -0.38989,1.29961 -0.57761,1.84833 -0.63294,-0.0604 -1.0807,-0.29492 -1.62445,-0.59932 -0.17421,-0.0945 -0.34853,-0.18888 -0.52308,-0.28291 -0.0858,-0.0463 -0.17178,-0.0926 -0.26027,-0.14048 -0.35361,-0.18806 -0.71057,-0.36458 -1.07227,-0.53682 -0.11228,-0.0536 -0.22457,-0.10721 -0.34021,-0.16242 -0.38203,-0.14267 -0.7428,-0.19755 -1.14712,-0.24191 -0.0762,0.11437 -0.15249,0.22874 -0.23104,0.34657 0,-0.22873 0,-0.45747 0,-0.69313 0.57552,-0.22134 1.12367,-0.29516 1.73281,-0.34656 z"
     fill="#5d8ab9"
     id="path19"
     style="stroke-width:0.180618" />
  <path
     d="m 198.73519,214.44514 c 0.0973,-0.003 0.19465,-0.007 0.29492,-0.0102 0.65385,-0.007 1.02421,0.0661 1.51737,0.50829 0.0578,0.36112 0.0578,0.36112 0,0.69313 -0.0763,0.0762 -0.15249,0.15248 -0.23105,0.23104 -0.18598,-0.0237 -0.37174,-0.0487 -0.55646,-0.0803 -0.83383,-0.11633 -1.55248,-0.0633 -2.33837,0.23335 -0.28003,0.0975 -0.50853,0.12246 -0.80183,0.078 -0.23105,-0.23104 -0.23105,-0.23104 -0.2731,-0.51072 0.0421,-0.29793 0.0421,-0.29793 0.23197,-0.50182 0.0826,-0.0566 0.16531,-0.11321 0.25045,-0.17155 0.0818,-0.0578 0.16346,-0.11552 0.24779,-0.17501 0.53313,-0.32219 1.05552,-0.28742 1.65831,-0.29424 z"
     fill="#16203f"
     id="path20"
     style="stroke-width:0.180618" />
  <path
     d="m 192.11439,279.05746 c 0.11436,0 0.22873,0 0.34656,0 0.0337,0.157 0.0337,0.157 0.0682,0.31723 0.20528,0.47363 0.47987,0.62196 0.92093,0.84515 0.0723,0.0388 0.14452,0.0776 0.21903,0.11759 0.14486,0.0776 0.29019,0.15458 0.43597,0.23047 0.27818,0.14556 0.55162,0.29943 0.82517,0.45342 0.13955,0.0772 0.2791,0.15422 0.41877,0.23104 0,0.0381 0,0.0763 0,0.11552 -1.41052,0 -2.82103,0 -4.27428,0 -0.0381,-0.0762 -0.0762,-0.15248 -0.11552,-0.23104 0.0881,-0.0429 0.17628,-0.0857 0.26709,-0.12996 0.65592,-0.45758 0.74799,-1.20766 0.88812,-1.94942 z"
     fill="#f3f3f5"
     id="path21"
     style="stroke-width:0.180618" />
  <path
     d="m 198.35252,225.45573 c 0.25993,0.0289 0.25993,0.0289 0.46209,0.11553 -0.0378,0.3595 -0.0771,0.53728 -0.32982,0.80275 -0.13342,0.0995 -0.13342,0.0995 -0.26951,0.20089 -0.0873,0.0671 -0.17478,0.13424 -0.26477,0.20344 -0.60545,0.37266 -1.18594,0.45515 -1.88669,0.45353 -0.12222,-2.3e-4 -0.12222,-2.3e-4 -0.24675,-4.4e-4 -0.95467,-0.0224 -1.6129,-0.33143 -2.31643,-0.96691 0.0381,-0.11436 0.0762,-0.22873 0.11552,-0.34656 0.45377,0.0477 0.8105,0.16462 1.22014,0.35372 0.76521,0.31399 1.6308,0.42408 2.41473,0.10975 0.35164,-0.21152 0.617,-0.43979 0.89933,-0.73783 0.0667,-0.0619 0.13343,-0.12384 0.20216,-0.18772 z"
     fill="#16203f"
     id="path22"
     style="stroke-width:0.180618" />
  <path
     d="m 198.12148,201.77394 c 1.08936,0.18344 2.05674,0.78126 2.7725,1.61729 0.49998,0.82771 0.82517,1.55595 0.83037,2.52702 0.002,0.14024 0.003,0.2806 0.005,0.42512 -0.0254,0.37983 -0.0939,0.63525 -0.25761,0.97557 -0.0381,0 -0.0762,0 -0.11552,0 -0.009,-0.14301 -0.009,-0.14301 -0.018,-0.2888 -0.15144,-1.54151 -0.82424,-3.11676 -1.94583,-4.21651 -0.33247,-0.26316 -0.67037,-0.50922 -1.02121,-0.74731 -0.0824,-0.0583 -0.16473,-0.11668 -0.24952,-0.17686 0,-0.0381 0,-0.0763 0,-0.11552 z"
     fill="#f3f3f5"
     id="path23"
     style="stroke-width:0.180618" />
  <path
     d="m 195.2479,202.19992 c 0.75319,0.60383 1.435,1.3464 1.83389,2.23094 -0.0474,0.25415 -0.0474,0.25415 -0.11552,0.46209 -0.0675,-0.10894 -0.0675,-0.10894 -0.13632,-0.22019 -1.11212,-1.70151 -2.68493,-2.39556 -4.60004,-2.89888 -0.27182,-0.0535 -0.53255,-0.0898 -0.80865,-0.11552 0,-0.038 0,-0.0761 0,-0.11552 1.39896,-0.32277 2.64913,-0.16208 3.82664,0.65708 z"
     fill="#f3f3f5"
     id="path24"
     style="stroke-width:0.180618" />
  <path
     d="m 193.89774,219.70857 c 0.0596,0.0286 0.1191,0.0572 0.18045,0.0866 -0.15619,0.51141 -0.37337,0.73506 -0.80865,1.03969 -0.50922,0.2546 -1.15417,0.17905 -1.68938,0.0324 -0.26893,-0.10686 -0.50067,-0.21129 -0.73656,-0.37903 -0.12268,-0.31768 -0.12268,-0.31768 -0.11552,-0.5776 0.18784,-0.0795 0.18784,-0.0795 0.46208,-0.11552 0.15735,0.0823 0.15735,0.0823 0.31769,0.16611 0.44475,0.21372 0.81835,0.26986 1.29961,0.18045 0.22457,-0.10466 0.22457,-0.10466 0.4332,-0.23821 0.37544,-0.22387 0.37544,-0.22387 0.65708,-0.195 z"
     fill="#16203f"
     id="path25"
     style="stroke-width:0.180618" />
  <path
     d="m 187.03147,206.62582 c 2.62694,-0.072 2.62694,-0.072 3.81219,0.34656 0.15214,0.0483 0.15214,0.0483 0.30729,0.0975 0.70618,0.2471 1.27396,0.60833 1.77209,1.17323 0,0.0762 0,0.15249 0,0.23104 -0.24329,-0.12106 -0.48588,-0.24328 -0.72744,-0.36782 -1.7007,-0.86929 -3.27363,-1.05493 -5.16413,-1.13395 0,-0.11437 0,-0.22873 0,-0.34656 z"
     fill="#e5e6ea"
     id="path26"
     style="stroke-width:0.180618" />
  <path
     d="m 187.49355,281.02132 c 1.54394,0.0572 1.54394,0.0572 3.11907,0.11552 0,0.0381 0,0.0762 0,0.11552 -1.87883,0.11414 -3.75247,0.13123 -5.63442,0.12719 -0.40479,-8.7e-4 -0.80946,-8.7e-4 -1.21413,-8.7e-4 -0.76209,-3.5e-4 -1.5243,-10e-4 -2.28639,-0.003 -0.86941,-10e-4 -1.73894,-0.002 -2.60835,-0.003 -1.78456,-10e-4 -3.56925,-0.003 -5.35382,-0.006 0,-0.0381 0,-0.0763 0,-0.11553 4.61276,0 9.22551,0 13.97804,0 0,-0.0762 0,-0.15249 0,-0.23104 z"
     fill="#c0b6a8"
     id="path27"
     style="stroke-width:0.180618" />
  <path
     d="m 200.08533,218.40896 c 0.15249,0.0381 0.30498,0.0762 0.46209,0.11552 -0.0478,0.55843 -0.27471,0.79652 -0.69312,1.15521 -0.60822,0.20274 -1.36928,0.25079 -1.97784,0.0244 -0.18818,-0.11818 -0.18818,-0.11818 -0.4481,-0.37094 0,-0.11436 0,-0.22873 0,-0.34656 0.12811,0.011 0.2561,0.0221 0.38803,0.0334 0.16912,0.013 0.33813,0.026 0.50725,0.0388 0.12638,0.0112 0.12638,0.0112 0.25542,0.0225 0.61757,0.0468 0.61757,0.0468 1.15971,-0.21024 0.20032,-0.23486 0.20032,-0.23486 0.34656,-0.46209 z"
     fill="#16203f"
     id="path28"
     style="stroke-width:0.180618" />
  <path
     d="m 201.93367,215.52093 c 0.47652,0.33478 0.70214,0.61781 0.92417,1.15521 0.1072,0.90627 0.0489,1.71768 -0.34657,2.54146 -0.28337,-0.28337 -0.27979,-0.41472 -0.32946,-0.80633 -0.0223,-0.17328 -0.0223,-0.17328 -0.0451,-0.35003 -0.0147,-0.12107 -0.0292,-0.24225 -0.0443,-0.36713 -0.0155,-0.11887 -0.031,-0.23774 -0.0469,-0.36031 -0.0765,-0.60891 -0.131,-1.19922 -0.11194,-1.81287 z"
     fill="#e9a481"
     id="path29"
     style="stroke-width:0.180618" />
  <path
     d="m 189.22637,209.05176 c 0.0762,0.0762 0.15248,0.15249 0.23104,0.23104 -0.0381,0.11437 -0.0763,0.22873 -0.11552,0.34656 -0.10085,-0.0709 -0.20158,-0.14174 -0.30556,-0.21475 -1.53146,-0.97708 -3.3843,-0.7584 -5.12393,-0.70942 1.12518,-1.22845 4.09776,-0.3707 5.31397,0.34657 z"
     fill="#e5e6ea"
     id="path30"
     style="stroke-width:0.180618" />
  <path
     d="m 191.19022,204.3154 c 1.06476,0.056 2.06355,0.86733 2.77251,1.61729 1.03968,1.32676 1.03968,1.32676 1.03968,1.96386 -0.0762,0 -0.15248,0 -0.23104,0 -0.14683,-0.20678 -0.28487,-0.41992 -0.41876,-0.63537 -0.81177,-1.24323 -1.81553,-2.09312 -3.16239,-2.71474 0,-0.0762 0,-0.15249 0,-0.23104 z"
     fill="#e5e6ea"
     id="path31"
     style="stroke-width:0.180618" />
  <path
     d="m 183.3348,219.10208 c 0.66216,0.053 1.13846,0.21429 1.61729,0.69313 0.0578,0.25992 0.0578,0.25992 0,0.5776 -0.2404,0.24363 -0.49986,0.43009 -0.80865,0.57761 -0.15248,0 -0.30497,0 -0.46208,0 -0.0381,-0.11437 -0.0762,-0.22873 -0.11552,-0.34657 0.22873,-0.19061 0.45746,-0.38121 0.69312,-0.5776 -0.0667,-0.0376 -0.13342,-0.0753 -0.20216,-0.11413 -0.0858,-0.0505 -0.17155,-0.10097 -0.25992,-0.15295 -0.12869,-0.0744 -0.12869,-0.0744 -0.25992,-0.1503 -0.0667,-0.0529 -0.13343,-0.10581 -0.20216,-0.16023 0,-0.11436 0,-0.22873 0,-0.34656 z"
     fill="#16203f"
     id="path32"
     style="stroke-width:0.180618" />
  <path
     d="m 193.73168,278.47986 c 0.0381,0.0762 0.0762,0.15249 0.11552,0.23104 -0.0762,0 -0.15249,0 -0.23104,0 0.0762,0.15249 0.15249,0.30498 0.23104,0.46208 1.29615,0.0381 2.59229,0.0763 3.92772,0.11553 -0.0381,0.0762 -0.0763,0.15248 -0.11553,0.23104 -1.2199,-0.0381 -2.4398,-0.0762 -3.69666,-0.11552 -0.0381,0.0762 -0.0762,0.15248 -0.11553,0.23104 -0.11679,-0.0548 -0.23346,-0.10963 -0.35372,-0.16612 -0.41553,-0.17975 -0.81223,-0.24987 -1.26357,-0.29597 -0.0762,0.11437 -0.15249,0.22874 -0.23104,0.34657 0,-0.22873 0,-0.45747 0,-0.69313 0.57552,-0.22134 1.12367,-0.29516 1.73281,-0.34656 z"
     fill="#5278a1"
     id="path33"
     style="stroke-width:0.180618" />
  <path
     d="m 196.50419,201.54289 c 1.00248,0.28199 1.94248,1.34167 2.45932,2.2157 0.26651,0.52342 0.44453,0.96529 0.43586,1.56045 -8.7e-4,0.0933 -0.002,0.18669 -0.003,0.28292 -10e-4,0.071 -0.003,0.14197 -0.004,0.21521 -0.0762,0 -0.15249,0 -0.23104,0 -0.0324,-0.10905 -0.0646,-0.21799 -0.098,-0.33027 -0.4458,-1.45014 -0.9906,-2.64382 -2.21246,-3.59744 -0.11726,-0.11379 -0.23336,-0.22885 -0.34657,-0.34657 z"
     fill="#e5e6ea"
     id="path34"
     style="stroke-width:0.180618" />
  <path
     d="m 183.21928,268.89162 c 1.00087,-0.0279 1.97379,0.0589 2.9675,0.17328 0.14844,0.0165 0.297,0.0331 0.45007,0.0501 0.36262,0.0404 0.72524,0.0814 1.08774,0.12314 -0.0381,0.0762 -0.0762,0.15249 -0.11552,0.23104 -1.46792,-0.0731 -2.92765,-0.19869 -4.38979,-0.34656 0,-0.0762 0,-0.15249 0,-0.23104 z"
     fill="#dad1c3"
     id="path35"
     style="stroke-width:0.180618" />
  <path
     d="m 187.49355,281.02132 c 1.54394,0.0572 1.54394,0.0572 3.11907,0.11552 0,0.0381 0,0.0762 0,0.11552 -1.42623,0.0782 -2.84575,0.13366 -4.27428,0.11552 0,-0.0381 0,-0.0762 0,-0.11552 0.38122,0 0.76244,0 1.15521,0 0,-0.0762 0,-0.15249 0,-0.23104 z"
     fill="#a09b98"
     id="path36"
     style="stroke-width:0.180618" />
  <path
     d="m 194.54033,277.67121 c -0.0627,0.0307 -0.12534,0.0613 -0.19003,0.093 -0.12395,0.0611 -0.12395,0.0611 -0.25034,0.1236 -0.0818,0.0402 -0.16357,0.0804 -0.24779,0.12188 -0.42292,0.21487 -0.42292,0.21487 -0.69809,0.58569 -0.19061,0 -0.38122,0 -0.57761,0 0.0381,-0.11437 0.0762,-0.22873 0.11552,-0.34656 -0.0762,-0.0763 -0.15248,-0.15249 -0.23104,-0.23104 0.0974,-0.0237 0.19477,-0.0474 0.29516,-0.0717 0.12649,-0.0312 0.25311,-0.0623 0.38353,-0.0944 0.12603,-0.0307 0.25195,-0.0616 0.3818,-0.0933 0.69231,-0.18507 0.69231,-0.18507 1.01889,-0.0871 z"
     fill="#16203f"
     id="path37"
     style="stroke-width:0.180618" />
  <path
     d="m 181.02438,266.81224 c 0.0381,0 0.0762,0 0.11552,0 0.0822,0.58581 0.12788,1.14158 0.11552,1.73282 0.11436,0 0.22873,0 0.34656,0 0,0.0762 0,0.15248 0,0.23104 0.11437,0.0381 0.22873,0.0762 0.34657,0.11552 -0.3431,-0.0381 -0.6862,-0.0763 -1.03969,-0.11552 -0.0121,-0.66841 8.3e-4,-1.30458 0.11552,-1.96386 z"
     fill="#dad1c3"
     id="path38"
     style="stroke-width:0.180618" />
  <path
     d="m 194.65585,278.24882 c 0,0.0762 0,0.15249 0,0.23104 1.10554,0 2.21107,0 3.35011,0 0,0.0381 0,0.0762 0,0.11552 -1.37239,0 -2.74478,0 -4.15876,0 0.46209,-0.34656 0.46209,-0.34656 0.80865,-0.34656 z"
     fill="#d6d4d2"
     id="path39"
     style="stroke-width:0.180618" />
  <path
     d="m 163.00311,268.31401 c 0.0381,0 0.0762,0 0.11552,0 -0.0381,1.41051 -0.0762,2.82102 -0.11552,4.27428 -0.0381,0 -0.0762,0 -0.11552,0 -0.0223,-0.49732 -0.043,-0.99452 -0.062,-1.49195 -0.007,-0.16901 -0.0139,-0.3379 -0.0216,-0.50691 -0.0109,-0.24363 -0.0202,-0.48738 -0.0292,-0.73125 -0.006,-0.14636 -0.012,-0.29273 -0.0182,-0.4436 0.0157,-0.41148 0.0963,-0.71935 0.24664,-1.10057 z"
     fill="#5d5e75"
     id="path40"
     style="stroke-width:0.180618" />
  <path
     d="m 184.69713,208.32479 c 0.16924,0.002 0.33848,0.006 0.50772,0.0121 0.0865,0.002 0.17316,0.003 0.26234,0.005 0.21337,0.004 0.42674,0.0104 0.64011,0.017 0,0.0762 0,0.15249 0,0.23105 -1.08648,0.0572 -1.08648,0.0572 -2.1949,0.11552 0.34656,-0.34657 0.34656,-0.34657 0.78473,-0.38041 z"
     fill="#fefefe"
     id="path41"
     style="stroke-width:0.180618" />
  <path
     d="m 174.09312,266.92776 c -0.36701,0.24468 -0.58858,0.29643 -1.01797,0.36828 -0.17629,0.031 -0.17629,0.031 -0.35615,0.0626 -0.37498,0.0326 -0.68481,-0.007 -1.05182,-0.0843 0,-0.0381 0,-0.0763 0,-0.11552 0.81939,-0.19905 1.58379,-0.25981 2.42594,-0.23105 z"
     fill="#dad1c3"
     id="path42"
     style="stroke-width:0.180618" />
  <path
     d="m 201.58711,234.46637 c 1.21967,-0.0214 1.21967,-0.0214 1.73281,0.11552 -0.34656,0.23104 -0.34656,0.23104 -0.5776,0.23104 -0.0381,0.11437 -0.0763,0.22874 -0.11552,0.34656 0,-0.0762 0,-0.15248 0,-0.23103 -0.19061,0 -0.38122,0 -0.57761,0 -0.0381,-0.11437 -0.0762,-0.22874 -0.11552,-0.34657 -0.11436,-0.0381 -0.22873,-0.0762 -0.34656,-0.11552 z"
     fill="#dad1c3"
     id="path43"
     style="stroke-width:0.180618" />
  <path
     d="m 184.49001,220.14177 c 0.0217,0.27436 0.0217,0.27436 0,0.57761 -0.34657,0.23104 -0.34657,0.23104 -0.80865,0.23104 -0.0381,-0.11437 -0.0762,-0.22873 -0.11552,-0.34657 0.53428,-0.46208 0.53428,-0.46208 0.92417,-0.46208 z"
     fill="#16203f"
     id="path44"
     style="stroke-width:0.180618" />
  <path
     d="m 199.62325,270.04683 c 0.77977,0.0866 0.77977,0.0866 1.03969,0.34656 -0.0381,0.0762 -0.0762,0.15249 -0.11552,0.23104 -0.3394,0.0866 -0.3394,0.0866 -0.69312,0.11552 -0.0762,-0.0762 -0.15249,-0.15248 -0.23105,-0.23104 0,-0.15249 0,-0.30497 0,-0.46208 z"
     fill="#262640"
     id="path45"
     style="stroke-width:0.180618" />
  <path
     d="m 196.50419,201.54289 c 0.82539,0.2322 1.47347,0.943 1.96385,1.6173 -0.11436,0.0381 -0.22873,0.0762 -0.34656,0.11552 -0.0393,-0.0587 -0.0787,-0.11737 -0.1191,-0.17779 -0.38319,-0.54422 -0.77168,-0.93202 -1.32041,-1.30908 -0.0587,-0.0431 -0.11737,-0.0861 -0.17778,-0.13042 0,-0.0381 0,-0.0763 0,-0.11553 z"
     fill="#d6d4d2"
     id="path46"
     style="stroke-width:0.180618" />
  <path
     d="m 249.41279,254.68254 c 0.0762,0.0381 0.15249,0.0762 0.23104,0.11552 -0.0326,0.16866 -0.0665,0.33709 -0.10108,0.5054 -0.0187,0.0938 -0.0376,0.18761 -0.0568,0.2843 -0.0731,0.24999 -0.0731,0.24999 -0.30416,0.48103 -0.13401,-0.4019 -0.0895,-0.50159 0.0506,-0.88812 0.0498,-0.14002 0.0498,-0.14002 0.10061,-0.28291 0.0263,-0.0711 0.0527,-0.14198 0.0798,-0.21522 z"
     fill="#283654"
     id="path47"
     style="stroke-width:0.180618" />
  <path
     d="m 198.93013,275.47632 c -0.0762,0.1906 -0.15249,0.38121 -0.23105,0.5776 -0.30497,0.0381 -0.60995,0.0762 -0.92416,0.11552 0.85485,-0.69312 0.85485,-0.69312 1.15521,-0.69312 z"
     fill="#dad1c3"
     id="path48"
     style="stroke-width:0.180618" />
  <path
     d="m 180.10021,265.77255 c 0.0762,0 0.15249,0 0.23104,0 -0.0381,0.53371 -0.0762,1.06742 -0.11552,1.61729 -0.0381,0 -0.0762,0 -0.11552,0 -0.09,-0.58002 -0.13054,-1.03702 0,-1.61729 z"
     fill="#dad1c3"
     id="path49"
     style="stroke-width:0.180618" />
  <path
     d="m 200.77846,214.36572 c 0.0381,0 0.0763,0 0.11552,0 0.0381,0.3431 0.0762,0.6862 0.11552,1.03969 -0.0381,-0.11436 -0.0762,-0.22873 -0.11552,-0.34656 -0.0762,0 -0.15248,0 -0.23104,0 -0.0381,0.15249 -0.0762,0.30497 -0.11552,0.46208 -0.0762,-0.26685 -0.15249,-0.5337 -0.23104,-0.80865 0.11436,-0.0381 0.22873,-0.0762 0.34656,-0.11552 0.0381,-0.0762 0.0762,-0.15248 0.11552,-0.23104 z"
     fill="#b6836d"
     id="path50"
     style="stroke-width:0.180618" />
  <path
     d="m 170.97405,271.5486 c 0.0762,0 0.15249,0 0.23105,0 -0.18287,0.49374 -0.52054,0.72374 -0.92417,1.03969 0.0646,-0.37463 0.16323,-0.56964 0.46208,-0.80865 0.0763,0 0.15249,0 0.23104,0 0,-0.0762 0,-0.15248 0,-0.23104 z"
     fill="#283654"
     id="path51"
     style="stroke-width:0.180618" />
  <path
     d="m 199.16117,271.77964 c 0.15249,0 0.30497,0 0.46208,0 0,0.0762 0,0.15249 0,0.23105 -0.0762,0 -0.15249,0 -0.23104,0 0,0.0762 0,0.15248 0,0.23104 0.15249,0.0762 0.30497,0.15248 0.46209,0.23104 -0.54873,-0.10108 -0.54873,-0.10108 -0.80865,-0.23104 0.0381,-0.15249 0.0762,-0.30498 0.11552,-0.46209 z"
     fill="#262640"
     id="path52"
     style="stroke-width:0.180618" />
  <path
     d="m 198.237,240.93554 c 0,0.23105 0,0.46209 0,0.69313 -0.15249,-0.0381 -0.30498,-0.0762 -0.46208,-0.11552 -0.0381,-0.15249 -0.0763,-0.30497 -0.11553,-0.46209 0.23105,-0.11552 0.23105,-0.11552 0.57761,-0.11552 z"
     fill="#283654"
     id="path53"
     style="stroke-width:0.180618" />
  <path
     d="m 168.43259,280.79028 c 0.38122,0.0381 0.76244,0.0762 1.15521,0.11552 -0.0381,0.0762 -0.0762,0.15249 -0.11552,0.23104 -0.3431,-0.0381 -0.68619,-0.0762 -1.03969,-0.11552 0,-0.0762 0,-0.15249 0,-0.23104 z"
     fill="#e6dccd"
     id="path54"
     style="stroke-width:0.180618" />
  <path
     d="m 181.37094,253.18077 c 0.25831,0.38734 0.25103,0.45134 0.18772,0.88812 -0.0128,0.0933 -0.0256,0.18669 -0.0388,0.28291 -0.011,0.0711 -0.0221,0.14198 -0.0334,0.21522 -0.0381,0 -0.0762,0 -0.11552,0 -0.0224,-0.20932 -0.0439,-0.41865 -0.0649,-0.6282 -0.0121,-0.11657 -0.0241,-0.23313 -0.0366,-0.35327 -0.005,-0.0954 -0.009,-0.19095 -0.014,-0.28926 0.0381,-0.0381 0.0762,-0.0762 0.11552,-0.11552 z"
     fill="#dad1c3"
     id="path55"
     style="stroke-width:0.180618" />
  <path
     d="m 202.39576,218.29344 c 0.11436,0.0381 0.22872,0.0762 0.34656,0.11552 -0.0763,0.26685 -0.15249,0.5337 -0.23105,0.80864 -0.23103,-0.23104 -0.23103,-0.23104 -0.25276,-0.52701 0.0217,-0.28163 0.0217,-0.28163 0.13725,-0.39715 z"
     fill="#e09475"
     id="path56"
     style="stroke-width:0.180618" />
  <path
     d="m 208.40284,247.52024 c 0,0.34656 0,0.34656 -0.2166,0.59932 -0.24548,0.20933 -0.24548,0.20933 -0.47652,0.20933 0.16092,-0.38896 0.34414,-0.57599 0.69312,-0.80865 z"
     fill="#262640"
     id="path57"
     style="stroke-width:0.180618" />
  <path
     d="m 184.14344,220.25729 c -0.0381,0.19061 -0.0762,0.38122 -0.11552,0.57761 -0.11436,0.0381 -0.22873,0.0762 -0.34656,0.11552 -0.0381,-0.11437 -0.0762,-0.22873 -0.11552,-0.34657 0.31768,-0.34656 0.31768,-0.34656 0.5776,-0.34656 z"
     fill="#262640"
     id="path58"
     style="stroke-width:0.180618" />
  <path
     d="m 189.68845,216.09854 c 0,0.34656 0,0.34656 -0.2166,0.59932 -0.24548,0.20932 -0.24548,0.20932 -0.47653,0.20932 0.16093,-0.38895 0.34414,-0.57599 0.69313,-0.80864 z"
     fill="#262640"
     id="path59"
     style="stroke-width:0.180618" />
  <path
     d="m 201.58711,266.46568 c 0.0762,0 0.15249,0 0.23104,0 -0.0762,0.22873 -0.15249,0.45746 -0.23104,0.69313 -0.19061,0 -0.38122,0 -0.57761,0 0.0738,-0.0286 0.14775,-0.0572 0.22388,-0.0867 0.25981,-0.12314 0.25981,-0.12314 0.32485,-0.38988 0.009,-0.0715 0.0191,-0.1429 0.0289,-0.2166 z"
     fill="#f1e8d7"
     id="path60"
     style="stroke-width:0.180618" />
  <path
     d="m 208.74941,248.44441 c 0.11436,0.0381 0.22873,0.0762 0.34656,0.11552 -0.40028,0.34309 -0.40028,0.34309 -0.80865,0.69312 0.12407,-0.33674 0.2054,-0.55196 0.46209,-0.80864 z"
     fill="#5d8ab9"
     id="path61"
     style="stroke-width:0.180618" />
  <path
     d="m 184.72105,208.35863 c 0,0.11437 0,0.22873 0,0.34656 -0.26686,0 -0.53371,0 -0.80865,0 0.2888,-0.34667 0.3163,-0.34656 0.80865,-0.34656 z"
     fill="#e5e6ea"
     id="path62"
     style="stroke-width:0.180618" />
</g>
</svg>
