<?xml version="1.0" encoding="UTF-8" standalone="no"?>
<!-- Created with Inkscape (http://www.inkscape.org/) -->

<svg
   width="31.476952mm"
   height="34.259144mm"
   viewBox="0 0 31.476952 34.259144"
   version="1.1"
   id="svg1"
   sodipodi:docname="valette computing.svg"
   inkscape:version="1.4.2 (2aeb623e1d, 2025-05-12)"
   xmlns:inkscape="http://www.inkscape.org/namespaces/inkscape"
   xmlns:sodipodi="http://sodipodi.sourceforge.net/DTD/sodipodi-0.dtd"
   xmlns:xlink="http://www.w3.org/1999/xlink"
   xmlns="http://www.w3.org/2000/svg"
   xmlns:svg="http://www.w3.org/2000/svg">
  <sodipodi:namedview
     id="namedview1"
     pagecolor="#ffffff"
     bordercolor="#666666"
     borderopacity="1.0"
     inkscape:showpageshadow="2"
     inkscape:pageopacity="0.0"
     inkscape:pagecheckerboard="0"
     inkscape:deskcolor="#d1d1d1"
     inkscape:document-units="mm"
     inkscape:zoom="0.34395589"
     inkscape:cx="632.34852"
     inkscape:cy="444.82448"
     inkscape:window-width="1854"
     inkscape:window-height="1011"
     inkscape:window-x="0"
     inkscape:window-y="0"
     inkscape:window-maximized="1"
     inkscape:current-layer="svg1">
    <inkscape:page
       x="1.2887763e-14"
       y="0"
       width="31.476954"
       height="34.259144"
       id="page2"
       margin="0"
       bleed="0" />
  </sodipodi:namedview>
  <defs
     id="defs1">
    <style
       id="style1">.cls-1{fill:#fff}.cls-2{fill:#326ce5}</style>
    <mask
       id="holes-2">
      <rect
         x="-60"
         y="-60"
         width="120"
         height="120"
         fill="#ffffff"
         id="rect35-1" />
      <circle
         id="hole-5"
         cy="-40"
         r="3"
         cx="0" />
      <use
         xlink:href="#hole-5"
         transform="rotate(72)"
         id="use36-9" />
      <use
         xlink:href="#hole-5"
         transform="rotate(144)"
         id="use37-9" />
      <use
         xlink:href="#hole-5"
         transform="rotate(-144)"
         id="use38-1" />
      <use
         xlink:href="#hole-5"
         transform="rotate(-72)"
         id="use39-4" />
    </mask>
  </defs>
  <style
     type="text/css"
     id="style1-7">
	.st0{fill:#000000;}
</style>
  <style
     type="text/css"
     id="style1-9"><![CDATA[
	.st0{fill:#000000;}
]]></style>
  <path
     style="fill:#0000ff;stroke-width:0.148274"
     d="m 14.663359,33.782881 c -1.93943,-0.99157 -3.90469,-2.24085 -5.0804001,-3.2295 C 3.2224889,25.204871 0.39456885,18.651501 0.04624885,8.4531408 L 4.8850676e-5,7.0996708 0.04474885,6.3542808 c 0.0246,-0.40996 0.0632,-0.81175 0.0857,-0.89287 l 0.041,-0.14749 0.0921,-0.0603 0.0921,-0.0603 0.46501,-0.0563 c 0.25576005,-0.031 0.91518005,-0.11066 1.46540005,-0.1771 4.84915,-0.58553 8.8904101,-2.00795 12.5458701,-4.41580098 1.09771,-0.723063 0.89617,-0.720953 1.98255,-0.02075 2.90797,1.87427098 5.53829,3.04823098 8.4869,3.78786098 1.51283,0.37947 3.29292,0.65624 5.19167,0.80719 0.66799,0.0531 0.71745,0.0634 0.81846,0.17096 l 0.0829,0.0883 0.0413,0.21372 0.0413,0.21373 -0.0229,0.58846 c -0.22832,5.8597502 -1.04238,9.8392602 -2.9011,14.1819602 -2.29712,5.36698 -6.49533,10.052 -11.85642,13.23127 -1.02138,0.60571 -0.79678,0.60834 -2.03329,-0.0239 z m 1.73964,-2.90959 c 0.47236,-0.2199 1.52257,-0.9142 2.63394,-1.74133 6.10078,-4.54045 9.60938,-12.25762 9.61202,-21.1416602 l 1.5e-4,-0.67861 -0.10097,-0.0936 -0.10096,-0.0936 -0.1952,-0.0419 c -0.10736,-0.023 -0.3066,-0.0419 -0.44277,-0.0419 -3.06166,0 -7.13899,-1.37157 -10.52533,-3.54063 -0.82934,-0.53121 -0.99694,-0.6221 -1.15558,-0.62661 l -0.11627,-0.003 -0.0616,0.0616 -0.0616,0.0616 -0.0349,0.48383 -0.0349,0.48383 -0.013,10.6119502 c -0.0182,14.86358 -0.001,16.22691 0.20599,16.33941 0.13735,0.0746 0.14886,0.0735 0.39106,-0.0393 z"
     id="path2659"
     inkscape:export-filename="../7be74ac8/shield.svg"
     inkscape:export-xdpi="200"
     inkscape:export-ydpi="200" />
</svg>
