<?xml version="1.0" encoding="UTF-8" standalone="no"?>
<!-- Created with Inkscape (http://www.inkscape.org/) -->

<svg
   width="34.175774mm"
   height="29.903805mm"
   viewBox="0 0 34.175774 29.903805"
   version="1.1"
   id="svg1"
   xmlns:xlink="http://www.w3.org/1999/xlink"
   xmlns="http://www.w3.org/2000/svg"
   xmlns:svg="http://www.w3.org/2000/svg"><defs
   id="defs1">
  <style
     id="style1">.cls-1{fill:#fff}.cls-2{fill:#326ce5}</style>
  <mask
     id="holes-2">
    <rect
       x="-60"
       y="-60"
       width="120"
       height="120"
       fill="#ffffff"
       id="rect35-1" />
    <circle
       id="hole-5"
       cy="-40"
       r="3"
       cx="0" />
    <use
       xlink:href="#hole-5"
       transform="rotate(72)"
       id="use36-9" />
    <use
       xlink:href="#hole-5"
       transform="rotate(144)"
       id="use37-9" />
    <use
       xlink:href="#hole-5"
       transform="rotate(-144)"
       id="use38-1" />
    <use
       xlink:href="#hole-5"
       transform="rotate(-72)"
       id="use39-4" />
  </mask>
</defs>

<style
   type="text/css"
   id="style1-7">
	.st0{fill:#000000;}
</style>

<g
   id="g13"
   transform="matrix(0.73250559,0,0,0.73250559,-116.44097,-76.060169)"
   style="stroke-width:1.36518">
  <g
     id="g228">
    <rect
       style="fill:#00ffff;stroke:none;stroke-width:5.46071;stroke-linecap:round;stroke-linejoin:round;stroke-dasharray:none"
       id="rect12"
       width="43.835243"
       height="37.743336"
       x="159.71391"
       y="104.88675"
       rx="2"
       ry="2" />
    <g
       id="g12"
       style="stroke-width:1.36518">
      <text
         xml:space="preserve"
         style="font-size:24.6045px;line-height:1.25;font-family:mono;-inkscape-font-specification:mono;letter-spacing:0px;word-spacing:0px;fill:#0000ff;stroke-width:0.361203"
         x="165.71648"
         y="131.63486"
         id="text2"><tspan
           id="tspan2"
           style="fill:#0000ff;stroke-width:0.361203"
           x="165.71648"
           y="131.63486">&gt;_</tspan></text>
      <path
         class="st0"
         d="m 201.24458,103.83561 h -37.908 c -2.41554,0 -4.374,1.95855 -4.374,4.374 v 32.07599 c 0,2.41554 1.95846,4.374 4.374,4.374 h 37.908 c 2.41554,0 4.37399,-1.95846 4.37399,-4.374 v -32.07599 c 0,-2.41545 -1.95845,-4.374 -4.37399,-4.374 z m -1.762,3.18937 c 0.95609,0 1.73138,0.7753 1.73138,1.73138 0,0.95617 -0.77529,1.73137 -1.73138,1.73137 -0.95608,0 -1.73137,-0.7752 -1.73137,-1.73137 0,-0.95608 0.77529,-1.73138 1.73137,-1.73138 z m -6.42431,0 c 0.95609,0 1.73138,0.7753 1.73138,1.73138 0,0.95617 -0.77529,1.73137 -1.73138,1.73137 -0.95608,0 -1.73138,-0.7752 -1.73138,-1.73137 0,-0.95608 0.7753,-1.73138 1.73138,-1.73138 z m -6.42431,0 c 0.95608,0 1.73138,0.7753 1.73138,1.73138 0,0.95617 -0.7753,1.73137 -1.73138,1.73137 -0.95608,0 -1.73137,-0.7752 -1.73137,-1.73137 0,-0.95608 0.77529,-1.73138 1.73137,-1.73138 z m 15.33961,33.26062 c 0,0.4015 -0.32677,0.729 -0.72899,0.729 h -37.908 c -0.40222,0 -0.729,-0.3275 -0.729,-0.729 v -26.97299 h 39.36599 z"
         id="path1-2"
         style="fill:#000080;stroke-width:0.361203" />
    </g>
  </g>
</g>


<style
   type="text/css"
   id="style1-9">
<![CDATA[
	.st0{fill:#000000;}
]]>
</style>


</svg>
