<?xml version="1.0" encoding="UTF-8" standalone="no"?>
<!-- Created with Inkscape (http://www.inkscape.org/) -->

<svg
   width="62.739288mm"
   height="48.752647mm"
   viewBox="0 0 62.739288 48.752647"
   version="1.1"
   id="svg1"
   sodipodi:docname="valette computing.svg"
   inkscape:version="1.4.2 (2aeb623e1d, 2025-05-12)"
   xmlns:inkscape="http://www.inkscape.org/namespaces/inkscape"
   xmlns:sodipodi="http://sodipodi.sourceforge.net/DTD/sodipodi-0.dtd"
   xmlns:xlink="http://www.w3.org/1999/xlink"
   xmlns="http://www.w3.org/2000/svg"
   xmlns:svg="http://www.w3.org/2000/svg">
  <sodipodi:namedview
     id="namedview1"
     pagecolor="#ffffff"
     bordercolor="#666666"
     borderopacity="1.0"
     inkscape:showpageshadow="2"
     inkscape:pageopacity="0.0"
     inkscape:pagecheckerboard="0"
     inkscape:deskcolor="#d1d1d1"
     inkscape:document-units="mm"
     inkscape:zoom="0.34395589"
     inkscape:cx="632.34852"
     inkscape:cy="444.82448"
     inkscape:window-width="1854"
     inkscape:window-height="1011"
     inkscape:window-x="0"
     inkscape:window-y="0"
     inkscape:window-maximized="1"
     inkscape:current-layer="svg1">
    <inkscape:page
       x="0"
       y="0"
       width="62.739288"
       height="48.752647"
       id="page2"
       margin="0"
       bleed="0" />
  </sodipodi:namedview>
  <defs
     id="defs1">
    <style
       id="style1">.cls-1{fill:#fff}.cls-2{fill:#326ce5}</style>
    <mask
       id="holes-2">
      <rect
         x="-60"
         y="-60"
         width="120"
         height="120"
         fill="#ffffff"
         id="rect35-1" />
      <circle
         id="hole-5"
         cy="-40"
         r="3"
         cx="0" />
      <use
         xlink:href="#hole-5"
         transform="rotate(72)"
         id="use36-9" />
      <use
         xlink:href="#hole-5"
         transform="rotate(144)"
         id="use37-9" />
      <use
         xlink:href="#hole-5"
         transform="rotate(-144)"
         id="use38-1" />
      <use
         xlink:href="#hole-5"
         transform="rotate(-72)"
         id="use39-4" />
    </mask>
    <radialGradient
       id="fill_belly_shadow_left-7"
       href="#gradient_belly_shadow"
       xlink:href="#gradient_belly_shadow"
       gradientUnits="userSpaceOnUse"
       cx="0"
       cy="0"
       r="1"
       gradientTransform="matrix(19,0,0,18,61.18,121.19)" />
    <linearGradient
       id="gradient_belly_shadow">
      <stop
         offset="0"
         stop-color="#000000"
         id="stop1" />
      <stop
         offset="1"
         stop-color="#000000"
         stop-opacity="0.25"
         id="stop2" />
    </linearGradient>
    <clipPath
       id="clip_body-3">
      <use
         href="#body_base-7"
         xlink:href="#body_base-7"
         id="use91-6" />
    </clipPath>
    <filter
       id="blur_belly_shadow_left-0"
       x="-0.049918751"
       y="-0.045849254"
       width="1.0998375"
       height="1.0916985">
      <feGaussianBlur
         stdDeviation="0.64 0.55"
         id="feGaussianBlur61-6" />
    </filter>
    <radialGradient
       id="fill_belly_shadow_right-2"
       href="#gradient_belly_shadow"
       xlink:href="#gradient_belly_shadow"
       gradientUnits="userSpaceOnUse"
       cx="0"
       cy="0"
       r="1"
       gradientTransform="matrix(23.6,0,0,18,125.74,131.6)" />
    <filter
       id="blur_belly_shadow_right-8"
       x="-0.050747188"
       y="-0.073202616"
       width="1.1014944"
       height="1.1464052">
      <feGaussianBlur
         stdDeviation="0.98"
         id="feGaussianBlur62-7" />
    </filter>
    <radialGradient
       id="fill_belly_shadow_middle-9"
       href="#gradient_belly_shadow"
       xlink:href="#gradient_belly_shadow"
       gradientUnits="userSpaceOnUse"
       cx="0"
       cy="0"
       r="1"
       gradientTransform="matrix(9.35,0,0,10,94.21,127.47)" />
    <filter
       id="blur_belly_shadow_middle-2"
       x="-0.087319423"
       y="-0.081681683"
       width="1.1746388"
       height="1.1633634">
      <feGaussianBlur
         stdDeviation="0.68"
         id="feGaussianBlur63-3" />
    </filter>
    <filter
       id="blur_belly_shadow_lower-7"
       x="-0.81953784"
       width="2.6390757"
       y="-0.057993427"
       height="1.1159869">
      <feGaussianBlur
         stdDeviation="1.25"
         id="feGaussianBlur64-5" />
    </filter>
    <filter
       id="blur_belly_glare-9"
       x="-0.49197012"
       width="1.9839402"
       y="-0.59291106"
       height="2.1858221">
      <feGaussianBlur
         stdDeviation="1.78 2.19"
         id="feGaussianBlur65-2" />
    </filter>
    <filter
       id="blur_head_glare-2"
       x="-0.29258274"
       width="1.5851655"
       y="-0.30859164"
       height="1.6171833">
      <feGaussianBlur
         stdDeviation="1.73"
         id="feGaussianBlur66-8" />
    </filter>
    <filter
       id="blur_neck_glare-9"
       x="-0.17840844"
       width="1.3568169"
       y="-0.1601733"
       height="1.3203466">
      <feGaussianBlur
         stdDeviation="0.78"
         id="feGaussianBlur67-7" />
    </filter>
    <clipPath
       id="clip_wing_left-3">
      <use
         href="#wing_left_base-5"
         xlink:href="#wing_left_base-5"
         id="use92-6" />
    </clipPath>
    <filter
       id="blur_wing_left_glare-1"
       x="-0.1014502"
       width="1.2029004"
       y="-0.042861973"
       height="1.0857239">
      <feGaussianBlur
         stdDeviation="0.98"
         id="feGaussianBlur68-2" />
    </filter>
    <clipPath
       id="clip_wing_right-9">
      <use
         href="#wing_right_base-5"
         xlink:href="#wing_right_base-5"
         id="use93-3" />
    </clipPath>
    <filter
       id="blur_wing_right_glare-1"
       x="-0.11789708"
       width="1.2357942"
       y="-0.040211942"
       height="1.0804239">
      <feGaussianBlur
         stdDeviation="1.19 1.17"
         id="feGaussianBlur69-9" />
    </filter>
    <linearGradient
       inkscape:collect="always"
       xlink:href="#gradient_foot_left_layer_1"
       id="linearGradient2634"
       gradientUnits="userSpaceOnUse"
       x1="23.18"
       y1="193.00999"
       x2="64.309998"
       y2="262.01999" />
    <linearGradient
       id="gradient_foot_left_layer_1">
      <stop
         offset="0"
         stop-color="#b98309"
         id="stop10" />
      <stop
         offset="1"
         stop-color="#382605"
         id="stop11" />
    </linearGradient>
    <clipPath
       id="clip_foot_left-8">
      <use
         href="#foot_left_base-3"
         xlink:href="#foot_left_base-3"
         id="use94-4" />
    </clipPath>
    <filter
       id="blur_foot_left_layer_1-3"
       x="-0.10746297"
       width="1.2149259"
       y="-0.1084514"
       height="1.2169028">
      <feGaussianBlur
         stdDeviation="3.38"
         id="feGaussianBlur70-6" />
    </filter>
    <filter
       id="blur_foot_left_layer_2-6"
       x="-0.075378264"
       y="-0.069657499"
       width="1.1507565"
       height="1.139315">
      <feGaussianBlur
         stdDeviation="2.1 2.06"
         id="feGaussianBlur71-3" />
    </filter>
    <linearGradient
       inkscape:collect="always"
       xlink:href="#gradient_foot_left_glare"
       id="linearGradient2635"
       gradientUnits="userSpaceOnUse"
       x1="64.470001"
       y1="210.83"
       x2="77.410004"
       y2="235.21001" />
    <linearGradient
       id="gradient_foot_left_glare">
      <stop
         offset="0"
         stop-color="#ebc40c"
         id="stop16" />
      <stop
         offset="1"
         stop-color="#ebc40c"
         stop-opacity="0"
         id="stop17" />
    </linearGradient>
    <filter
       id="blur_foot_left_glare-5"
       x="-0.033862433"
       y="-0.018667963"
       width="1.0677249"
       height="1.0373359">
      <feGaussianBlur
         stdDeviation="0.32"
         id="feGaussianBlur72-5" />
    </filter>
    <linearGradient
       inkscape:collect="always"
       xlink:href="#gradient_foot_right_shadow"
       id="linearGradient2636"
       gradientUnits="userSpaceOnUse"
       x1="146.92999"
       y1="211.96001"
       x2="150.2"
       y2="235.73" />
    <linearGradient
       id="gradient_foot_right_shadow">
      <stop
         offset="0"
         stop-color="#000000"
         id="stop20" />
      <stop
         offset="1"
         stop-color="#000000"
         stop-opacity="0"
         id="stop21" />
    </linearGradient>
    <filter
       id="blur_foot_right_shadow-6"
       x="-0.076044024"
       y="-0.068073295"
       width="1.152088"
       height="1.1361466">
      <feGaussianBlur
         stdDeviation="1.95 1.9"
         id="feGaussianBlur73-5" />
    </filter>
    <linearGradient
       inkscape:collect="always"
       xlink:href="#gradient_foot_right_layer_1"
       id="linearGradient2637"
       gradientUnits="userSpaceOnUse"
       x1="151.5"
       y1="253.02"
       x2="192.94"
       y2="185.84" />
    <linearGradient
       id="gradient_foot_right_layer_1">
      <stop
         offset="0"
         stop-color="#3e2a06"
         id="stop22" />
      <stop
         offset="1"
         stop-color="#ad780a"
         id="stop23" />
    </linearGradient>
    <clipPath
       id="clip_foot_right-3">
      <use
         href="#foot_right_base-3"
         xlink:href="#foot_right_base-3"
         id="use95-7" />
    </clipPath>
    <filter
       id="blur_foot_right_layer_1-2"
       x="-0.14509234"
       width="1.2901847"
       y="-0.14307408"
       height="1.2861482">
      <feGaussianBlur
         stdDeviation="4.12"
         id="feGaussianBlur74-5" />
    </filter>
    <filter
       id="blur_foot_right_layer_2-4"
       x="-0.11510966"
       width="1.2302193"
       y="-0.12497624"
       height="1.2499525">
      <feGaussianBlur
         stdDeviation="3.12 3.37"
         id="feGaussianBlur75-4" />
    </filter>
    <linearGradient
       inkscape:collect="always"
       xlink:href="#gradient_foot_right_glare"
       id="linearGradient2638"
       gradientUnits="userSpaceOnUse"
       x1="162.81"
       y1="180.67"
       x2="161.59"
       y2="191.64" />
    <linearGradient
       id="gradient_foot_right_glare">
      <stop
         offset="0"
         stop-color="#f3cd0c"
         id="stop28" />
      <stop
         offset="1"
         stop-color="#f3cd0c"
         stop-opacity="0"
         id="stop29" />
    </linearGradient>
    <filter
       id="blur_foot_right_glare-6"
       x="-0.020750738"
       width="1.0415015"
       y="-0.12827013"
       height="1.2565403">
      <feGaussianBlur
         stdDeviation="0.41"
         id="feGaussianBlur76-8" />
    </filter>
    <radialGradient
       id="fill_wing_tip_right_shadow_lower-8"
       href="#gradient_wing_tip_right_shadow"
       xlink:href="#gradient_wing_tip_right_shadow"
       gradientUnits="userSpaceOnUse"
       cx="0"
       cy="0"
       r="1"
       gradientTransform="matrix(18.990102,5.0883824,-5.3420251,19.936709,169.71,194.53)" />
    <linearGradient
       id="gradient_wing_tip_right_shadow">
      <stop
         offset="0"
         stop-color="#110800"
         id="stop32" />
      <stop
         offset="0.59"
         stop-color="#a65a00"
         stop-opacity="0.8"
         id="stop33" />
      <stop
         offset="1"
         stop-color="#ff921e"
         stop-opacity="0"
         id="stop34" />
    </linearGradient>
    <filter
       id="blur_wing_tip_right_shadow_lower-2"
       x="-0.20043875"
       width="1.4008775"
       y="-0.23394803"
       height="1.4678961">
      <feGaussianBlur
         stdDeviation="2.45"
         id="feGaussianBlur77-0" />
    </filter>
    <radialGradient
       id="fill_wing_tip_right_shadow_upper-6"
       href="#gradient_wing_tip_right_shadow"
       xlink:href="#gradient_wing_tip_right_shadow"
       gradientUnits="userSpaceOnUse"
       cx="0"
       cy="0"
       r="1"
       gradientTransform="matrix(19.722395,-0.83350987,0.62745474,14.846747,169.71,189.89)" />
    <filter
       id="blur_wing_tip_right_shadow_upper-4"
       x="-0.091629141"
       width="1.1832583"
       y="-0.10698003"
       height="1.2139601">
      <feGaussianBlur
         stdDeviation="1.12 0.81"
         id="feGaussianBlur78-9" />
    </filter>
    <radialGradient
       id="fill_wing_tip_right_glare_1-5"
       href="#gradient_wing_tip_right_glare_1"
       xlink:href="#gradient_wing_tip_right_glare_1"
       gradientUnits="userSpaceOnUse"
       cx="0"
       cy="0"
       r="1"
       gradientTransform="matrix(6.3735675,2.771306,-1.2799845,2.9437628,184.65,176.62)" />
    <linearGradient
       id="gradient_wing_tip_right_glare_1">
      <stop
         offset="0"
         stop-color="#7c7c7c"
         id="stop42" />
      <stop
         offset="1"
         stop-color="#7c7c7c"
         stop-opacity="0.33"
         id="stop7" />
    </linearGradient>
    <filter
       id="blur_wing_tip_right_glare-1"
       x="-0.070171062"
       width="1.1403421"
       y="-0.14997803"
       height="1.2999561">
      <feGaussianBlur
         stdDeviation="0.88"
         id="feGaussianBlur79-7" />
    </filter>
    <linearGradient
       id="fill_wing_tip_right_glare_2"
       href="#gradient_wing_tip_right_glare_1"
       xlink:href="#gradient_wing_tip_right_glare_1"
       gradientUnits="userSpaceOnUse"
       x1="165.69"
       y1="173.58"
       x2="168.27"
       y2="173.47" />
    <radialGradient
       id="fill_eyeball_left-0"
       href="#gradient_eyeball"
       xlink:href="#gradient_eyeball"
       gradientUnits="userSpaceOnUse"
       cx="0"
       cy="0"
       r="1"
       gradientTransform="matrix(10.239439,-0.10723107,0.16419757,15.67914,86.49,51.41)" />
    <linearGradient
       id="gradient_eyeball">
      <stop
         offset="0"
         stop-color="#fefefc"
         id="stop49" />
      <stop
         offset="0.75"
         stop-color="#fefefc"
         id="stop50" />
      <stop
         offset="1"
         stop-color="#d4d4d4"
         id="stop51" />
    </linearGradient>
    <linearGradient
       inkscape:collect="always"
       xlink:href="#gradient_pupil_left_glare"
       id="linearGradient2639"
       gradientUnits="userSpaceOnUse"
       x1="84.290001"
       y1="46.639999"
       x2="89.32"
       y2="55.630001" />
    <linearGradient
       id="gradient_pupil_left_glare">
      <stop
         offset="0"
         stop-color="#757574"
         stop-opacity="0"
         id="stop52" />
      <stop
         offset="0.25"
         stop-color="#757574"
         id="stop53" />
      <stop
         offset="0.5"
         stop-color="#757574"
         id="stop54" />
      <stop
         offset="1"
         stop-color="#757574"
         stop-opacity="0"
         id="stop55" />
    </linearGradient>
    <clipPath
       id="clip_pupil_left-9">
      <use
         href="#pupil_left_base-9"
         xlink:href="#pupil_left_base-9"
         id="use98-1" />
    </clipPath>
    <filter
       id="blur_pupil_left_glare-7"
       x="-0.23332936"
       width="1.4666587"
       y="-0.14543877"
       height="1.2908775">
      <feGaussianBlur
         stdDeviation="0.44"
         id="feGaussianBlur80-7" />
    </filter>
    <radialGradient
       id="fill_eyelid_left-1"
       href="#gradient_eyelid_left"
       xlink:href="#gradient_eyelid_left"
       gradientUnits="userSpaceOnUse"
       cx="0"
       cy="0"
       r="1"
       gradientTransform="matrix(6.1669645,-1.015406,0.93742278,5.6933416,84.89,43.74)" />
    <linearGradient
       id="gradient_eyelid_left">
      <stop
         offset="0"
         stop-color="#c8c8c8"
         id="stop56" />
      <stop
         offset="1"
         stop-color="#797978"
         id="stop57" />
    </linearGradient>
    <clipPath
       id="clip_eye_left-9">
      <use
         href="#eyeball_left-3"
         xlink:href="#eyeball_left-3"
         id="use97-7" />
    </clipPath>
    <linearGradient
       inkscape:collect="always"
       xlink:href="#gradient_eyebrow"
       id="linearGradient2640"
       gradientUnits="userSpaceOnUse"
       x1="83.589996"
       y1="32.509998"
       x2="94.480003"
       y2="43.630001" />
    <linearGradient
       id="gradient_eyebrow">
      <stop
         offset="0"
         stop-color="#646464"
         stop-opacity="0"
         id="stop61" />
      <stop
         offset="0.31"
         stop-color="#646464"
         stop-opacity="0.58"
         id="stop62" />
      <stop
         offset="0.47"
         stop-color="#646464"
         id="stop63" />
      <stop
         offset="0.73"
         stop-color="#646464"
         stop-opacity="0.26"
         id="stop64" />
      <stop
         offset="1"
         stop-color="#646464"
         stop-opacity="0"
         id="stop65" />
    </linearGradient>
    <filter
       id="blur_eyebrow_left-6"
       x="-0.023848306"
       y="-0.026522859"
       width="1.0476966"
       height="1.0530457">
      <feGaussianBlur
         stdDeviation="0.12"
         id="feGaussianBlur81-5" />
    </filter>
    <radialGradient
       id="fill_eyeball_right-6"
       href="#gradient_eyeball"
       xlink:href="#gradient_eyeball"
       gradientUnits="userSpaceOnUse"
       cx="0"
       cy="0"
       r="1"
       gradientTransform="matrix(13.633269,-0.42844275,0.4925207,15.672263,118.06,51.41)" />
    <linearGradient
       inkscape:collect="always"
       xlink:href="#gradient_pupil_right_glare_2"
       id="linearGradient2641"
       gradientUnits="userSpaceOnUse"
       x1="117.87"
       y1="47.25"
       x2="123.66"
       y2="54.110001" />
    <linearGradient
       id="gradient_pupil_right_glare_2">
      <stop
         offset="0"
         stop-color="#949494"
         stop-opacity="0.39"
         id="stop69" />
      <stop
         offset="0.5"
         stop-color="#949494"
         id="stop70" />
      <stop
         offset="1"
         stop-color="#949494"
         stop-opacity="0.39"
         id="stop71" />
    </linearGradient>
    <clipPath
       id="clip_pupil_right-3">
      <use
         href="#pupil_right_base-4"
         xlink:href="#pupil_right_base-4"
         id="use100-9" />
    </clipPath>
    <filter
       id="blur_pupil_right_glare-4"
       x="-0.17958931"
       width="1.3591786"
       y="-0.18232284"
       height="1.3646457">
      <feGaussianBlur
         stdDeviation="0.45"
         id="feGaussianBlur82-8" />
    </filter>
    <linearGradient
       inkscape:collect="always"
       xlink:href="#gradient_eyelid_right"
       id="linearGradient2642"
       gradientUnits="userSpaceOnUse"
       x1="112.9"
       y1="36.23"
       x2="131.32001"
       y2="47.009998" />
    <linearGradient
       id="gradient_eyelid_right">
      <stop
         offset="0"
         stop-color="#747474"
         id="stop72" />
      <stop
         offset="0.13"
         stop-color="#8c8c8c"
         id="stop73" />
      <stop
         offset="0.25"
         stop-color="#a4a4a4"
         id="stop74" />
      <stop
         offset="0.5"
         stop-color="#d4d4d4"
         id="stop75" />
      <stop
         offset="0.62"
         stop-color="#d4d4d4"
         id="stop76" />
      <stop
         offset="1"
         stop-color="#7c7c7c"
         id="stop77" />
    </linearGradient>
    <clipPath
       id="clip_eye_right-1">
      <use
         href="#eyeball_right-5"
         xlink:href="#eyeball_right-5"
         id="use99-2" />
    </clipPath>
    <linearGradient
       inkscape:collect="always"
       xlink:href="#gradient_eyebrow"
       id="linearGradient2643"
       gradientUnits="userSpaceOnUse"
       x1="119.16"
       y1="31.559999"
       x2="131.42"
       y2="43.139999" />
    <filter
       id="blur_eyebrow_right-9"
       x="-0.023600604"
       y="-0.02557377"
       width="1.0472012"
       height="1.0511475">
      <feGaussianBlur
         stdDeviation="0.13"
         id="feGaussianBlur83-3" />
    </filter>
    <filter
       id="blur_beak_shadow_lower-9"
       x="-0.076201891"
       width="1.1524038"
       y="-0.12887719"
       height="1.2577544">
      <feGaussianBlur
         stdDeviation="1.75"
         id="feGaussianBlur84-0" />
    </filter>
    <filter
       id="blur_beak_shadow_upper-8"
       x="-0.036392431"
       y="-0.07408861"
       width="1.0727849"
       height="1.1481772">
      <feGaussianBlur
         stdDeviation="0.8 0.74"
         id="feGaussianBlur85-8" />
    </filter>
    <radialGradient
       id="fill_beak_base-5"
       href="#gradient_beak_base"
       xlink:href="#gradient_beak_base"
       gradientUnits="userSpaceOnUse"
       cx="0"
       cy="0"
       r="1"
       gradientTransform="matrix(9.2551544,-6.7242633,6.1012109,8.3975964,97.64,60.12)" />
    <linearGradient
       id="gradient_beak_base">
      <stop
         offset="0"
         stop-color="#020204"
         id="stop86" />
      <stop
         offset="0.73"
         stop-color="#020204"
         id="stop87" />
      <stop
         offset="1"
         stop-color="#5c5c5c"
         id="stop88" />
    </linearGradient>
    <radialGradient
       id="fill_mandible_lower_base-0"
       href="#gradient_mandible_lower"
       xlink:href="#gradient_mandible_lower"
       gradientUnits="userSpaceOnUse"
       cx="0"
       cy="0"
       r="1"
       gradientTransform="matrix(25.101425,-10.346061,7.2670121,17.631093,109.77,70.61)" />
    <linearGradient
       id="gradient_mandible_lower">
      <stop
         offset="0"
         stop-color="#d2940a"
         id="stop89" />
      <stop
         offset="0.75"
         stop-color="#d89c08"
         id="stop90" />
      <stop
         offset="0.87"
         stop-color="#b67e07"
         id="stop91" />
      <stop
         offset="1"
         stop-color="#946106"
         id="stop92" />
    </linearGradient>
    <clipPath
       id="clip_mandible_lower-9">
      <use
         href="#mandible_lower_base-8"
         xlink:href="#mandible_lower_base-8"
         id="use101-6" />
    </clipPath>
    <filter
       id="blur_mandible_lower_glare-3"
       x="-0.15436869"
       width="1.3087374"
       y="-0.21067211"
       height="1.4213442">
      <feGaussianBlur
         stdDeviation="0.77"
         id="feGaussianBlur86-8" />
    </filter>
    <filter
       id="blur_mandible_upper_shadow-6"
       x="-0.034221465"
       y="-0.078978968"
       width="1.0684429"
       height="1.1579579">
      <feGaussianBlur
         stdDeviation="0.65"
         id="feGaussianBlur87-1" />
    </filter>
    <linearGradient
       inkscape:collect="always"
       xlink:href="#gradient_mandible_upper"
       id="linearGradient2644"
       gradientUnits="userSpaceOnUse"
       x1="78.089996"
       y1="69.260002"
       x2="126.77"
       y2="68.879997" />
    <linearGradient
       id="gradient_mandible_upper">
      <stop
         offset="0"
         stop-color="#ad780a"
         id="stop101" />
      <stop
         offset="0.12"
         stop-color="#d89e08"
         id="stop102" />
      <stop
         offset="0.25"
         stop-color="#edb80b"
         id="stop103" />
      <stop
         offset="0.39"
         stop-color="#ebc80d"
         id="stop104" />
      <stop
         offset="0.53"
         stop-color="#f5d838"
         id="stop105" />
      <stop
         offset="0.77"
         stop-color="#f6d811"
         id="stop106" />
      <stop
         offset="1"
         stop-color="#f5cd31"
         id="stop107" />
    </linearGradient>
    <clipPath
       id="clip_mandible_upper-1">
      <use
         href="#mandible_upper_base-9"
         xlink:href="#mandible_upper_base-9"
         id="use112" />
    </clipPath>
    <filter
       id="blur_mandible_upper_glare-5"
       x="-0.16064714"
       width="1.3212943"
       y="-0.13003773"
       height="1.2600755">
      <feGaussianBlur
         stdDeviation="0.73"
         id="feGaussianBlur88-9" />
    </filter>
    <radialGradient
       id="fill_naris_left-8"
       href="#gradient_nares"
       xlink:href="#gradient_nares"
       gradientUnits="userSpaceOnUse"
       cx="0"
       cy="0"
       r="1"
       gradientTransform="matrix(1.32,0,0,1.42,92.11,59.88)" />
    <linearGradient
       id="gradient_nares">
      <stop
         offset="0"
         stop-color="#3a2903"
         id="stop115" />
      <stop
         offset="0.55"
         stop-color="#735208"
         id="stop116" />
      <stop
         offset="1"
         stop-color="#ac8c04"
         id="stop117" />
    </linearGradient>
    <filter
       id="blur_naris_left-4"
       x="-0.12244099"
       width="1.244882"
       y="-0.11124302"
       height="1.222486">
      <feGaussianBlur
         stdDeviation="0.1"
         id="feGaussianBlur89-8" />
    </filter>
    <radialGradient
       id="fill_naris_right-1"
       href="#gradient_nares"
       xlink:href="#gradient_nares"
       gradientUnits="userSpaceOnUse"
       cx="0"
       cy="0"
       r="1"
       gradientTransform="matrix(2.78,0,0,1.62,104.65,59.7)" />
    <filter
       id="blur_naris_right-0"
       x="-0.049122258"
       y="-0.093498015"
       width="1.0982445"
       height="1.186996">
      <feGaussianBlur
         stdDeviation="0.1"
         id="feGaussianBlur90-3" />
    </filter>
    <linearGradient
       inkscape:collect="always"
       xlink:href="#gradient_beak_corner"
       id="linearGradient2645"
       gradientUnits="userSpaceOnUse"
       x1="126.74"
       y1="67.489998"
       x2="126.74"
       y2="71.089996" />
    <linearGradient
       id="gradient_beak_corner">
      <stop
         offset="0"
         stop-color="#f5ce2d"
         id="stop121" />
      <stop
         offset="1"
         stop-color="#d79b08"
         id="stop122" />
    </linearGradient>
    <clipPath
       id="clip_beak-0">
      <use
         href="#mandible_lower_base-8"
         xlink:href="#mandible_lower_base-8"
         id="use103-4" />
      <use
         href="#mandible_upper_base-9"
         xlink:href="#mandible_upper_base-9"
         id="use104-4" />
    </clipPath>
    <filter
       id="blur_beak_corner-4"
       x="-0.11091169"
       width="1.2218234"
       y="-0.090640126"
       height="1.1812803">
      <feGaussianBlur
         stdDeviation="0.23"
         id="feGaussianBlur91-4" />
    </filter>
  </defs>
  <style
     type="text/css"
     id="style1-7">
	.st0{fill:#000000;}
</style>
  <style
     type="text/css"
     id="style1-9"><![CDATA[
	.st0{fill:#000000;}
]]></style>
  <g
     id="g2645"
     transform="matrix(0.50621423,0,0,0.50621423,-135.89552,3.5272972)">
    <rect
       style="fill:#00ffff;fill-opacity:1;stroke-width:1;stroke-linecap:round;stroke-linejoin:round"
       id="rect2633"
       width="100.2872"
       height="61.101173"
       x="279.81726"
       y="-5.8053374"
       rx="5"
       ry="5"
       inkscape:export-filename="../997a9289/linux-laptop.svg"
       inkscape:export-xdpi="200"
       inkscape:export-ydpi="200" />
    <rect
       style="fill:#f9f9f9;stroke-width:0.689246;stroke-linecap:round;stroke-linejoin:round"
       id="rect2633-9"
       width="100.2872"
       height="29.026686"
       x="279.58875"
       y="56.1642"
       rx="5"
       ry="2.3752968" />
    <path
       style="fill:#aaaaaa;fill-opacity:1"
       d="m 270.31685,88.934746 -0.70789,-0.384403 -0.586,-1.523233 c -0.77598,-2.017018 -1.17631,-0.638341 4.50362,-15.509726 2.77133,-7.256009 5.03879,-13.337208 5.03879,-13.513775 0,-0.484391 1.15513,-1.470165 1.73684,-1.482198 l 0.51212,-0.01059 -0.72428,-0.392989 c -0.39835,-0.216144 -0.90437,-0.741245 -1.12448,-1.166892 l -0.4002,-0.773903 V 24.782006 -4.6130207 l 0.40135,-0.7761322 c 0.22075,-0.4268727 0.75062,-0.9567413 1.17749,-1.1774857 l 0.77613,-0.4013536 h 49.50336 49.50336 l 0.76455,0.3953639 c 0.4205,0.2174501 0.95037,0.660661 1.17748,0.984913 l 0.41294,0.5895492 V 24.875782 54.74973 l -0.92599,0.873323 -0.92599,0.873323 0.54418,0.172716 0.54418,0.172716 0.363,0.837286 c 0.38755,0.893881 10.37664,26.849999 10.50459,27.295617 0.0418,0.145521 -0.19696,1.009032 -0.53054,1.918913 l -0.60652,1.654331 -0.76615,0.39619 -0.76615,0.396191 -59.34595,-0.01059 -59.34595,-0.01059 z m 73.6006,-6.021079 0.66146,-0.333452 0.0885,-0.619271 c 0.0487,-0.3406 -0.17138,-2.029415 -0.48908,-3.752922 l -0.57764,-3.133651 -0.41136,-0.341497 -0.41137,-0.341496 h -12.38529 -12.3853 l -0.40855,0.408426 -0.40854,0.408425 -0.53707,2.766574 c -0.29539,1.521616 -0.55125,3.113498 -0.56856,3.537516 l -0.0315,0.77094 0.59997,0.48583 0.59998,0.48583 13.00141,-0.0039 13.00142,-0.0039 z m 35.07863,-11.152546 c 0.61496,-0.841037 0.46296,-1.603202 -1.50695,-7.556064 l -1.88249,-5.688678 -0.41704,-0.330729 -0.41704,-0.330729 H 330.4237 286.07484 l -0.45409,0.332041 -0.4541,0.332042 -1.95824,6.051988 -1.95823,6.051988 0.24124,0.634531 c 0.13269,0.348992 0.51087,0.743357 0.84041,0.876368 l 0.59916,0.241837 47.84478,-0.0505 47.84478,-0.0505 z m -94.08071,-1.981052 c 0,-0.426168 0.1871,-0.96195 0.41577,-1.190625 l 0.41578,-0.415774 h 2.61132 2.61131 l 0.15633,0.252937 c 0.086,0.139115 -0.02,0.674896 -0.23547,1.190625 l -0.39179,0.937688 h -2.79163 -2.79162 z m 7.53133,0.49523 c -0.22946,-0.371271 0.10262,-1.647982 0.49329,-1.89649 0.17036,-0.10837 1.47061,-0.198859 2.88944,-0.201087 l 2.57969,-0.0041 0.0305,0.330729 c 0.0614,0.666103 -0.0888,1.397263 -0.35327,1.719792 l -0.27116,0.330729 h -2.59782 -2.59783 z m 7.63372,-0.148214 c -0.0903,-0.235308 -0.0539,-0.741324 0.0808,-1.124479 l 0.245,-0.696644 h 30.01746 30.01746 l 0.245,0.696644 c 0.13475,0.383155 0.17112,0.889171 0.0808,1.124479 l -0.16417,0.427835 h -30.17911 -30.17911 z m 62.68205,0.10278 c -0.15642,-0.188479 -0.32312,-0.698462 -0.37044,-1.133296 l -0.086,-0.790607 2.64583,-0.06704 c 3.01491,-0.07639 3.33711,0.04575 3.39664,1.287616 l 0.043,0.89609 -2.67227,0.07496 -2.67226,0.07496 z m 7.19452,-0.612633 c -0.21549,-0.515729 -0.32145,-1.05151 -0.23547,-1.190625 l 0.15632,-0.252937 h 2.61132 2.61132 l 0.41578,0.415774 c 0.22867,0.228675 0.41577,0.764457 0.41577,1.190625 v 0.774851 h -2.79163 -2.79162 z m -83.65256,-2.147957 c -0.457,-0.184403 -0.41429,-1.175231 0.0811,-1.882567 l 0.41188,-0.588038 h 2.44562 2.44562 l 0.29362,0.293616 0.29361,0.293616 -0.27317,0.783611 -0.27316,0.783611 -0.64622,0.24569 c -0.6683,0.254089 -4.19501,0.306087 -4.77895,0.07046 z m 7.27452,-0.101515 -0.46455,-0.280426 0.1703,-0.713603 c 0.0937,-0.392481 0.29082,-0.866398 0.43812,-1.053149 l 0.26781,-0.339547 2.67226,0.07496 2.67227,0.07496 -0.0422,0.888825 c -0.0232,0.488854 -0.17388,1.020544 -0.33487,1.181534 l -0.2927,0.292708 -2.31097,0.07708 -2.31097,0.07708 z m 7.54215,0.101515 -0.33073,-0.133452 V 66.58302 c 0,-0.414041 0.19125,-0.944059 0.42501,-1.177818 l 0.42502,-0.425015 2.55155,0.07539 2.55154,0.07539 0.0822,0.711576 0.0822,0.711577 -0.5452,0.545194 -0.54519,0.545194 -2.18281,-0.02089 c -1.20055,-0.01149 -2.33164,-0.08094 -2.51354,-0.15434 z m 7.8052,-0.110548 -0.46302,-0.269685 v -0.597741 c 0,-0.328758 0.15063,-0.80374 0.33474,-1.055517 l 0.33473,-0.457775 2.64183,0.07648 2.64183,0.07648 0.081,0.834479 0.081,0.834479 -0.60291,0.422292 -0.60291,0.422291 -1.99165,-0.008 c -1.0954,-0.0044 -2.2,-0.129404 -2.45467,-0.277731 z m 7.54063,0.110548 -0.33073,-0.133452 v -0.851076 c 0,-0.468092 0.14287,-0.993952 0.3175,-1.168577 l 0.3175,-0.3175 h 2.40771 2.40771 l 0.3175,0.3175 c 0.4715,0.471506 0.38557,1.201926 -0.21167,1.799167 l -0.52917,0.529166 -2.18281,-0.02089 c -1.20055,-0.01149 -2.33164,-0.08094 -2.51354,-0.15434 z m 7.80521,-0.110548 -0.46302,-0.269685 v -0.727686 c 0,-0.400227 0.14287,-0.870561 0.3175,-1.045186 l 0.3175,-0.3175 h 2.4077 2.40771 l 0.3175,0.3175 c 0.17463,0.174625 0.3175,0.646686 0.3175,1.049025 v 0.731524 l -0.51177,0.273892 c -0.65622,0.3512 -4.5026,0.342256 -5.11062,-0.01188 z m 7.14375,0 -0.46302,-0.269685 v -0.727686 c 0,-0.400227 0.14287,-0.870561 0.3175,-1.045186 l 0.3175,-0.3175 h 2.4077 2.40771 l 0.3175,0.3175 c 0.17463,0.174625 0.3175,0.646686 0.3175,1.049025 v 0.731524 l -0.51177,0.273892 c -0.65622,0.3512 -4.5026,0.342256 -5.11062,-0.01188 z m 7.96703,0.01653 c -0.23842,-0.139237 -0.51144,-0.563724 -0.60671,-0.943304 l -0.17321,-0.690146 0.30837,-0.371567 0.30837,-0.371567 h 2.42823 2.42823 l 0.3175,0.3175 c 0.17462,0.174625 0.3175,0.697668 0.3175,1.162318 v 0.844817 l -0.41852,0.160599 c -0.66276,0.254326 -4.43102,0.170936 -4.90976,-0.10865 z m 7.48895,-0.153042 -0.60291,-0.422292 0.081,-0.834479 0.081,-0.834479 2.55155,-0.07539 2.55154,-0.07539 0.42502,0.425015 c 0.5015,0.501504 0.55588,1.473438 0.10751,1.921801 l -0.3175,0.3175 h -2.13717 -2.13717 z m 7.96756,0.152391 -0.5874,-0.236358 -0.16874,-0.672321 c -0.0928,-0.369776 -0.10011,-0.851181 -0.0162,-1.069787 l 0.15252,-0.397467 h 2.50295 2.50294 l 0.41578,0.415774 c 0.22867,0.228676 0.41577,0.751719 0.41577,1.162318 v 0.746543 l -0.41851,0.160599 c -0.62784,0.240922 -4.12677,0.161232 -4.79909,-0.109301 z m 7.20918,-0.08899 -0.44656,-0.32654 -0.0449,-0.914058 -0.0449,-0.914058 2.51705,-0.07497 2.51705,-0.07497 0.42778,0.339555 c 0.23527,0.186755 0.50266,0.662213 0.59419,1.056574 l 0.16641,0.717019 -0.49268,0.263669 c -0.27096,0.145018 -1.44986,0.261566 -2.61976,0.258995 l -2.1271,-0.0047 z m 7.55565,0.04894 c -0.26683,-0.09771 -0.60836,-0.531131 -0.75897,-0.963155 l -0.27382,-0.785498 0.29361,-0.293616 0.29362,-0.293616 h 2.44562 2.44562 l 0.41188,0.588038 c 0.22653,0.323421 0.41188,0.859203 0.41188,1.190625 v 0.602587 l -0.33073,0.03956 c -1.0481,0.125372 -4.52783,0.06553 -4.93871,-0.08493 z m -82.39584,-3.04144 c -0.35621,-0.356216 -0.16175,-1.425744 0.35278,-1.940278 l 0.52917,-0.529167 h 2.09502 c 1.15227,0 2.28336,0.07227 2.51355,0.1606 l 0.41851,0.160599 v 0.574279 c 0,0.315854 -0.18534,0.838897 -0.41188,1.162318 l -0.41187,0.588038 h -2.45445 c -1.34994,0 -2.53381,-0.07938 -2.63083,-0.176389 z m 7.14375,0 c -0.35621,-0.356216 -0.16175,-1.425744 0.35278,-1.940278 l 0.52917,-0.529167 h 2.09502 c 1.15227,0 2.28336,0.07227 2.51355,0.1606 l 0.41851,0.160599 v 0.724435 0.724435 l -0.48385,0.437883 -0.48386,0.437882 h -2.38246 c -1.31036,0 -2.46184,-0.07938 -2.55886,-0.176389 z m 7.40834,0 c -0.097,-0.09701 -0.17639,-0.506982 -0.17639,-0.911039 v -0.73465 l 0.58804,-0.411878 0.58803,-0.411878 h 2.03616 c 1.11988,0 2.22449,0.07227 2.45467,0.1606 l 0.41851,0.160599 v 0.574279 c 0,0.315854 -0.18534,0.838897 -0.41187,1.162318 l -0.41188,0.588038 h -2.45444 c -1.34995,0 -2.53382,-0.07938 -2.63083,-0.176389 z m 7.40833,0 c -0.35622,-0.356216 -0.16176,-1.425744 0.35278,-1.940278 l 0.52916,-0.529167 h 2.09503 c 1.15227,0 2.28336,0.07227 2.51354,0.1606 l 0.41852,0.160599 v 0.844817 c 0,0.46465 -0.14288,0.987693 -0.3175,1.162318 l -0.3175,0.3175 h -2.54882 c -1.40185,0 -2.6282,-0.07938 -2.72521,-0.176389 z m 7.54944,-0.141111 c -0.17462,-0.174625 -0.3175,-0.584593 -0.3175,-0.911039 v -0.593539 l 0.58804,-0.411878 0.58804,-0.411878 h 2.03615 c 1.11989,0 2.22449,0.07227 2.45467,0.1606 l 0.41852,0.160599 v 0.844817 c 0,0.46465 -0.14288,0.987693 -0.3175,1.162318 l -0.3175,0.3175 h -2.40771 -2.40771 z m 7.53181,0.141111 c -0.097,-0.09701 -0.17639,-0.569075 -0.17639,-1.049024 v -0.872636 l 0.51177,-0.273892 c 0.28148,-0.150641 1.4636,-0.273893 2.62694,-0.273893 h 2.11516 l 0.41577,0.415774 c 0.48335,0.48335 0.52605,1.000465 0.14188,1.718287 l -0.27389,0.511773 h -2.59243 c -1.42583,0 -2.6718,-0.07938 -2.76881,-0.176389 z m 6.71695,-0.326284 c -0.38895,-0.726773 -0.34806,-1.242309 0.13702,-1.727387 l 0.41577,-0.415774 h 2.17949 2.17949 l 0.46827,0.342408 0.46827,0.342408 -0.087,0.914363 -0.087,0.914363 -2.6978,0.07524 -2.6978,0.07525 z m 7.71166,0.185173 c -0.17463,-0.174625 -0.3175,-0.627063 -0.3175,-1.005417 0,-0.378354 0.14287,-0.830792 0.3175,-1.005417 l 0.3175,-0.3175 h 2.28732 2.28733 l 0.43788,0.483855 c 0.5144,0.568407 0.56845,1.396418 0.12038,1.844479 l -0.3175,0.3175 h -2.4077 -2.40771 z m 7.41691,0.0086 c -0.17934,-0.179343 -0.32608,-0.706245 -0.32608,-1.170895 v -0.844817 l 0.41852,-0.160599 c 0.23018,-0.08833 1.36127,-0.1606 2.51354,-0.1606 h 2.09502 l 0.5452,0.545195 0.54519,0.545194 -0.0822,0.711577 -0.0822,0.711576 -2.65049,0.07472 -2.65048,0.07472 z m 7.52827,-0.165943 c -0.24531,-0.271064 -0.44602,-0.798151 -0.44602,-1.171306 v -0.678463 l 0.41852,-0.160599 c 0.23018,-0.08833 1.33478,-0.1606 2.45467,-0.1606 h 2.03615 l 0.60291,0.422292 0.60291,0.422292 -0.081,0.834479 -0.081,0.834479 -2.53055,0.07513 -2.53054,0.07513 z m 7.40833,0 c -0.24531,-0.271064 -0.44601,-0.798151 -0.44601,-1.171306 v -0.678463 l 0.41851,-0.160599 c 0.23019,-0.08833 1.36128,-0.1606 2.51354,-0.1606 h 2.09503 l 0.54519,0.545195 0.5452,0.545194 -0.0822,0.711577 -0.0822,0.711576 -2.53054,0.07513 -2.53055,0.07513 z m 7.11614,-0.103851 c -0.23012,-0.328548 -0.4184,-0.855785 -0.4184,-1.171639 v -0.574279 l 0.41851,-0.160599 c 0.23018,-0.08833 1.36128,-0.1606 2.51354,-0.1606 h 2.09503 l 0.54519,0.545195 0.5452,0.545194 -0.0822,0.711577 -0.0822,0.711576 -2.55815,0.07547 -2.55816,0.07547 z m -80.1336,-2.940868 c -0.0727,-0.189522 0.0279,-0.725303 0.22351,-1.190625 l 0.35573,-0.84604 h 2.7909 2.79089 v 0.774851 c 0,0.426168 -0.18709,0.961949 -0.41577,1.190625 l -0.41577,0.415774 h -2.59863 -2.59863 z m 7.05663,-0.03622 c -0.0804,-0.209441 0.0143,-0.715457 0.21031,-1.124479 l 0.35643,-0.743675 h 2.77456 2.77456 l -0.053,0.750782 c -0.0291,0.41293 -0.19255,0.918945 -0.36313,1.124479 l -0.31014,0.373697 h -2.62174 -2.62174 z m 7.30649,-0.512841 v -0.893668 l 0.36977,-0.306888 0.36978,-0.306888 2.60679,0.07605 2.60678,0.07605 0.0828,0.581664 c 0.0455,0.319915 -0.048,0.82593 -0.20775,1.124479 l -0.2905,0.542815 h -2.76882 -2.76881 z m 7.24278,0.505498 c -0.0819,-0.21348 -0.0385,-0.719496 0.0965,-1.124479 l 0.24545,-0.736332 h 2.75608 2.75607 l 0.0853,0.743604 c 0.0469,0.408982 -0.057,0.914997 -0.23084,1.124479 l -0.3161,0.380875 h -2.62174 -2.62174 z m 7.48569,0.211758 c -0.29232,-0.292322 -0.19846,-1.547796 0.14111,-1.887361 l 0.3175,-0.3175 h 2.58788 2.58787 l 0.15983,0.636815 0.15983,0.636815 -0.29639,0.55381 -0.29639,0.55381 h -2.59243 c -1.42583,0 -2.6718,-0.07937 -2.76881,-0.176389 z m 7.22614,-0.227477 -0.34981,-0.4215 0.25032,-0.711796 0.25033,-0.711796 h 2.77175 2.77175 v 1.058333 1.058333 l -2.67226,0.07496 -2.67226,0.07496 z m 6.46006,0.02934 c -0.079,-0.205989 -0.10507,-0.712004 -0.0578,-1.124479 l 0.0859,-0.749954 h 2.77176 2.77175 l 0.25033,0.711796 0.25032,0.711796 -0.3425,0.412683 -0.34249,0.412683 h -2.62174 -2.62174 z m 7.29576,-0.170186 -0.30126,-0.562909 0.15983,-0.636815 0.15983,-0.636815 h 2.60839 2.6084 l 0.3161,0.380875 c 0.17385,0.209481 0.27773,0.715497 0.23083,1.124479 l -0.0853,0.743604 -2.6978,0.07525 -2.6978,0.07525 z m 7.42993,0.163836 c -0.17386,-0.209482 -0.27773,-0.715497 -0.23084,-1.124479 l 0.0853,-0.743604 h 2.75607 2.75608 l 0.24544,0.736332 c 0.135,0.404983 0.17842,0.910999 0.0965,1.124479 l -0.14894,0.388147 h -2.62174 -2.62174 z m 7.11324,-0.325887 c -0.14779,-0.388719 -0.23276,-0.894735 -0.18882,-1.124479 l 0.0799,-0.417717 2.60372,-0.07605 2.60372,-0.07605 0.36977,0.306888 0.36978,0.306888 v 0.893645 0.893645 h -2.78467 -2.78468 z m 7.4448,0.333065 c -0.17058,-0.205534 -0.33399,-0.711549 -0.36313,-1.124479 l -0.053,-0.750782 h 2.77456 2.77456 l 0.35643,0.743675 c 0.19604,0.409022 0.29068,0.915038 0.21031,1.124479 l -0.14613,0.380804 h -2.62174 -2.62174 z m 6.86924,-0.138076 c -0.15064,-0.281475 -0.2739,-0.817256 -0.2739,-1.190625 v -0.678874 h 2.7909 2.7909 l 0.35573,0.84604 c 0.19565,0.465322 0.29623,1.001103 0.2235,1.190625 l -0.13222,0.344585 h -2.74051 -2.74051 z m 11.16516,-8.197773 0.86407,-0.772047 V 24.782006 -2.2488995 l -0.86407,-0.7720464 -0.86407,-0.7720465 h -46.7682 -46.76821 l -0.61598,0.4314541 c -0.3388,0.2372997 -0.78201,0.828788 -0.98492,1.3144185 l -0.36892,0.8829645 V 24.782006 50.728167 l 0.36892,0.882965 c 0.20291,0.48563 0.64612,1.077118 0.98492,1.314418 l 0.61598,0.431454 h 46.76821 46.7682 z"
       id="path2633" />
    <path
       style="fill:#0000ff;fill-opacity:1"
       d="m 270.33902,88.946362 -0.68572,-0.372786 -0.57105,-1.492247 c -0.31408,-0.820736 -0.57105,-1.652247 -0.57105,-1.847802 0,-0.271606 9.07412,-24.493428 10.33588,-27.589893 l 0.24782,-0.608161 0.83765,-0.352206 0.83765,-0.352205 -0.59151,-0.187736 c -0.32532,-0.103255 -0.82096,-0.564058 -1.10142,-1.024008 l -0.50992,-0.836272 -9.9e-4,-29.448034 -9.9e-4,-29.4480327 0.38522,-0.744933 0.38522,-0.7449331 0.91154,-0.4325527 0.91153,-0.4325527 h 49.24716 49.24715 l 0.89997,0.3760317 0.89997,0.3760317 0.41445,0.8014541 0.41445,0.801454 -9.9e-4,29.4480327 -9.9e-4,29.448034 -0.50992,0.836272 c -0.28046,0.45995 -0.76014,0.915687 -1.06596,1.012751 l -0.55603,0.176479 0.83101,0.574749 0.83102,0.574749 0.60448,1.719791 c 0.33246,0.945886 2.70082,7.117016 5.26301,13.713623 2.56219,6.596607 4.65854,12.152184 4.65854,12.345726 0,0.193543 -0.25727,1.024175 -0.57171,1.84585 l -0.5717,1.493954 -0.73808,0.381673 -0.73807,0.381673 -59.34595,-0.01059 -59.34595,-0.01059 z m 74.09729,-6.2705 c 0.65728,-0.705505 0.65929,-0.41125 -0.0284,-4.14389 l -0.56784,-3.082261 -0.53661,-0.595312 -0.53661,-0.595313 h -12.38929 -12.3893 l -0.49211,0.492109 -0.4921,0.492109 -0.56623,3.038284 c -0.69275,3.717234 -0.69334,3.787878 -0.0371,4.444165 l 0.52917,0.529166 h 13.48344 13.48344 z m 34.58752,-10.844146 c 0.83646,-0.78581 0.8501,-0.707044 -1.25512,-7.248229 l -1.86748,-5.802525 -0.66081,-0.595312 -0.66081,-0.595313 h -44.13498 -44.13498 l -0.67118,0.527948 -0.67118,0.527948 -1.87804,5.798103 c -2.06346,6.370538 -2.11697,6.665411 -1.34888,7.433501 l 0.52916,0.529166 h 48.07097 48.07097 z m -94.00661,-1.657599 c -0.0804,-0.209442 0.0143,-0.715458 0.2103,-1.124479 l 0.35644,-0.743676 h 2.63864 2.63865 l 0.0917,0.47603 c 0.0504,0.261816 -0.0995,0.767832 -0.3332,1.124479 l -0.42488,0.648449 h -2.51575 -2.51575 z m 7.40833,0 c -0.0804,-0.209442 0.0143,-0.715458 0.21031,-1.124479 l 0.35643,-0.743676 h 2.64227 2.64227 l 0.0874,0.617131 0.0874,0.617132 -0.45914,0.507347 -0.45915,0.507348 h -2.48084 -2.48083 z m 7.65083,-0.05757 -0.16822,-0.438368 0.3851,-0.686111 0.38511,-0.686111 h 29.74533 29.74533 l 0.38511,0.686111 0.3851,0.686111 -0.16822,0.438368 -0.16821,0.438368 H 330.4237 300.24459 Z m 62.74297,-0.210081 c -0.23368,-0.356647 -0.38363,-0.862663 -0.33321,-1.124479 l 0.0917,-0.47603 h 2.63864 2.63865 l 0.35643,0.743676 c 0.19604,0.409021 0.29068,0.915037 0.21031,1.124479 l -0.14613,0.380803 H 365.76 363.24425 Z m 7.40833,0 c -0.23368,-0.356647 -0.38362,-0.862663 -0.3332,-1.124479 l 0.0917,-0.47603 h 2.63865 2.63864 l 0.35644,0.743676 c 0.19603,0.409021 0.29067,0.915037 0.2103,1.124479 l -0.14613,0.380803 h -2.51574 -2.51575 z M 286.11351,67.1275 c -0.75261,-1.217755 0.58627,-2.128835 3.12845,-2.128835 2.88429,0 3.39474,0.380559 2.40528,1.793212 l -0.41188,0.588038 h -2.48292 -2.48293 z m 7.26852,-0.517076 v -0.788003 l 0.58804,-0.411878 0.58804,-0.411878 h 2.15769 2.15769 l 0.31799,0.383157 0.31799,0.383158 -0.35468,0.741322 -0.35469,0.741321 -2.70903,0.0754 -2.70904,0.0754 z m 7.49754,0.355744 c -0.53125,-1.384424 0.683,-2.031806 3.59036,-1.91422 l 1.95354,0.07901 0.24677,0.396875 0.24677,0.396875 -0.27865,0.727604 -0.27865,0.727604 h -2.66068 -2.66069 z m 7.6969,0.0625 c -0.0741,-0.193186 -0.0151,-0.666111 0.13124,-1.050943 l 0.26602,-0.699696 0.60779,-0.152545 c 0.33428,-0.0839 1.48688,-0.11699 2.56133,-0.07353 l 1.95354,0.07901 0.24676,0.396875 0.24677,0.396875 -0.27864,0.727604 -0.27865,0.727604 h -2.66069 -2.66068 z m 7.74479,0.183533 c -0.10178,-0.101785 -0.18506,-0.518217 -0.18506,-0.925406 v -0.740344 l 0.51177,-0.273892 c 0.61043,-0.326689 4.49799,-0.360647 4.99796,-0.04366 l 0.35036,0.222131 -0.0858,0.898296 -0.0858,0.898296 -2.65921,0.07482 c -1.46256,0.04115 -2.74248,-0.0085 -2.84427,-0.110243 z m 7.79591,-0.176782 -0.28591,-0.344497 0.16416,-0.64769 c 0.23816,-0.939698 0.50698,-1.036027 2.90365,-1.040514 l 2.16391,-0.0041 0.41578,0.415774 c 0.48755,0.487556 0.51399,0.758411 0.14188,1.453704 l -0.27389,0.511772 h -2.47184 -2.47183 z m 7.10959,-0.167275 c -0.37211,-0.695293 -0.34568,-0.966148 0.14188,-1.453704 l 0.41577,-0.415774 2.16392,0.0041 c 2.37464,0.0044 2.66345,0.102633 2.94386,1.000832 l 0.18981,0.60801 -0.31884,0.384178 -0.31884,0.384178 h -2.47183 -2.47184 z m 7.84867,0.344057 c -0.10179,-0.101785 -0.18506,-0.569199 -0.18506,-1.0387 v -0.853636 l 0.41851,-0.1606 c 0.23018,-0.08833 1.33852,-0.160599 2.46297,-0.160599 h 2.04446 l 0.47014,0.343777 0.47014,0.343777 -0.0888,0.780702 -0.0888,0.780702 -2.65921,0.07482 c -1.46257,0.04115 -2.74249,-0.0085 -2.84427,-0.110243 z m 7.46422,-0.5506 -0.28218,-0.736893 0.24701,-0.396875 0.24701,-0.396875 2.22375,-0.07552 2.22376,-0.07552 0.46781,0.342075 0.46782,0.342075 0.0586,0.791781 0.0586,0.79178 -2.71499,0.07544 -2.715,0.07543 z m 7.67292,0 -0.28218,-0.736893 0.24701,-0.396875 0.247,-0.396875 2.277,-0.0763 2.27699,-0.0763 0.55559,0.55559 0.55559,0.555589 -0.0824,0.579043 -0.0824,0.579042 -2.715,0.07544 -2.71499,0.07543 z m 7.77001,0.387586 c -0.14075,-0.181901 -0.33597,-0.554179 -0.43383,-0.827285 l -0.17793,-0.496557 0.30154,-0.363339 0.30155,-0.36334 h 2.15769 2.15769 l 0.58804,0.411878 0.58803,0.411878 v 0.778747 0.778747 h -2.61343 -2.61344 z m 7.22411,-0.247988 c -0.23013,-0.328547 -0.41841,-0.806723 -0.41841,-1.062613 v -0.465255 l 0.66224,-0.166212 c 2.41756,-0.606769 5.14401,0.106974 5.23527,1.370516 l 0.0556,0.769989 -2.55816,0.07547 -2.55816,0.07547 z m -81.84393,-2.500546 c -0.45163,-0.190954 -0.41544,-0.915375 0.0812,-1.624365 l 0.41188,-0.588038 h 2.6639 2.66391 l -0.16893,0.859896 c -0.0929,0.472942 -0.34656,0.99255 -0.56366,1.154684 l -0.39473,0.294788 -2.18139,0.02143 c -1.19977,0.01179 -2.33023,-0.04149 -2.51213,-0.118399 z m 7.02407,-0.128831 -0.26761,-0.165386 0.18165,-0.82705 0.18165,-0.827051 0.57424,-0.143963 c 0.31583,-0.07918 1.58626,-0.108833 2.82319,-0.0659 l 2.24896,0.07807 -0.0556,0.76999 c -0.0306,0.423495 -0.18542,0.899745 -0.34409,1.058334 l -0.28847,0.288343 h -2.39315 c -1.31623,0 -2.51357,-0.07442 -2.66075,-0.165386 z m 7.52802,0.134982 c -0.42749,-0.188694 -0.42523,-1.194433 0.004,-1.78144 l 0.33473,-0.457775 2.64183,0.07648 2.64183,0.07648 -0.0556,0.76999 c -0.0306,0.423495 -0.18524,0.899745 -0.34366,1.058334 l -0.28804,0.288343 -2.30218,0.05779 c -1.26619,0.03178 -2.451,-0.0079 -2.6329,-0.08819 z m 7.52751,-0.168034 -0.44499,-0.330729 0.21501,-0.79375 0.21502,-0.79375 h 2.75909 2.75908 l 0.0813,0.702021 0.0813,0.702021 -0.60315,0.422458 -0.60314,0.422459 h -2.00723 -2.00722 z m 7.33039,-0.129148 -0.32788,-0.327587 0.19543,-0.730747 0.19543,-0.730747 h 2.75909 2.75909 l 0.0805,0.694341 0.0805,0.694341 -0.44339,0.443393 -0.4434,0.443392 -2.26376,-0.0794 -2.26375,-0.0794 z m 7.76397,0.174102 -0.46302,-0.269685 0.004,-0.582166 c 0.002,-0.320191 0.10137,-0.735545 0.2203,-0.923009 l 0.21626,-0.340845 2.62396,0.07626 2.62397,0.07626 0.0853,0.743604 c 0.0469,0.408983 -0.057,0.914998 -0.23083,1.124479 l -0.3161,0.380876 -2.15041,-0.008 c -1.18273,-0.0044 -2.35878,-0.129404 -2.61344,-0.27773 z m 6.84089,-0.058 -0.47014,-0.343777 0.0888,-0.780702 0.0888,-0.780703 h 2.77812 2.77813 l 0.0888,0.780703 0.0888,0.780702 -0.47014,0.343777 -0.47014,0.343777 h -2.01553 -2.01552 z m 7.71137,0.161427 c -0.51104,-0.133563 -0.87269,-1.175064 -0.62876,-1.810742 l 0.1561,-0.406775 2.69821,0.07545 2.69822,0.07545 0.19489,0.730747 0.19489,0.730747 -0.39373,0.393732 -0.39373,0.393733 -2.03162,-0.03069 c -1.1174,-0.01688 -2.2399,-0.08513 -2.49447,-0.151658 z m 7.25348,-0.240109 -0.60314,-0.422458 0.0813,-0.702021 0.0813,-0.702021 h 2.75909 2.75909 l 0.21501,0.79375 0.21502,0.79375 -0.44499,0.330729 -0.44498,0.33073 h -2.00723 -2.00722 z m 7.48893,0.0525 c -0.22222,-0.16249 -0.43041,-0.651738 -0.46264,-1.087218 l -0.0586,-0.791781 2.64183,-0.07648 2.64182,-0.07648 0.33474,0.457775 c 0.1841,0.251776 0.33473,0.719937 0.33473,1.040356 v 0.582581 l -0.45098,0.17306 c -0.24805,0.09518 -1.37931,0.150684 -2.51393,0.123337 l -2.06295,-0.04972 z m 7.46426,0.0409 -0.45996,-0.336332 -0.0586,-0.791781 -0.0586,-0.791781 h 2.76822 2.76822 l 0.25317,0.882726 0.25316,0.882725 -0.31285,0.193348 c -0.17206,0.106342 -1.29833,0.216766 -2.50282,0.245388 l -2.18998,0.05204 z m 7.16547,0.01195 c -0.25271,-0.189388 -0.53548,-0.731295 -0.62839,-1.204237 l -0.16893,-0.859896 h 2.6639 2.66391 l 0.41188,0.588038 c 0.98581,1.407443 0.59765,1.697673 -2.36625,1.769291 l -2.11667,0.05115 z m -80.29099,-3.296251 -0.16822,-0.438368 0.3851,-0.686111 0.38511,-0.686111 h 2.63568 2.63569 l -0.053,0.750782 c -0.0291,0.41293 -0.19255,0.918945 -0.36313,1.124479 l -0.31014,0.373697 h -2.48945 -2.48945 z m 6.99422,0.107639 c -0.0626,-0.181901 -0.001,-0.658869 0.13668,-1.059929 l 0.25055,-0.729199 0.56976,-0.143001 c 0.31337,-0.07865 1.52186,-0.107698 2.68554,-0.06455 l 2.11578,0.07845 0.0805,0.69434 0.0805,0.694341 -0.43014,0.430139 -0.43014,0.430138 h -2.47259 -2.4726 z m 7.34228,0.06043 c -0.2341,-0.378784 0.0922,-1.654341 0.48753,-1.905813 0.17036,-0.10837 1.39834,-0.198859 2.72884,-0.201088 l 2.41909,-0.0041 0.1624,0.423225 c 0.0893,0.232775 0.0115,0.73879 -0.17303,1.12448 l -0.33544,0.701253 -2.55541,0.07547 -2.55541,0.07547 z m 7.45596,0.09391 c -0.31589,-0.315887 -0.18581,-1.603081 0.19384,-1.918162 l 0.37022,-0.307262 2.47405,0.07643 2.47404,0.07643 0.0853,0.743604 c 0.0469,0.408982 -0.057,0.914997 -0.23084,1.124479 l -0.3161,0.380875 h -2.43704 c -1.34038,0 -2.51643,-0.07937 -2.61344,-0.176389 z m 7.05116,-0.251446 c -0.0903,-0.235309 -0.0539,-0.741324 0.0808,-1.124479 l 0.245,-0.696644 h 2.63946 2.63946 l 0.0858,0.898296 0.0858,0.898296 -0.35036,0.222131 c -0.1927,0.122173 -1.45542,0.223955 -2.80606,0.226183 l -2.45569,0.0041 z m 7.50092,0.251446 c -0.097,-0.09701 -0.17639,-0.560526 -0.17639,-1.030026 v -0.853637 l 0.41852,-0.160599 c 0.23018,-0.08833 1.39699,-0.160599 2.59291,-0.160599 h 2.17441 l 0.3175,0.3175 c 0.17462,0.174625 0.3175,0.567531 0.3175,0.873125 0,0.305594 -0.14288,0.6985 -0.3175,0.873125 l -0.3175,0.3175 h -2.41653 c -1.32909,0 -2.4959,-0.07937 -2.59292,-0.176389 z m 6.49995,-0.132275 c -0.41579,-0.415787 -0.42046,-1.343465 -0.009,-1.755086 l 0.3175,-0.3175 2.26219,0.0041 c 1.2442,0.0022 2.41985,0.104011 2.61254,0.226183 l 0.35036,0.222132 -0.0858,0.898296 -0.0858,0.898296 -2.51793,0.07498 -2.51794,0.07498 z m 7.3931,0.07843 -0.35036,-0.222131 0.0858,-0.898296 0.0858,-0.898296 h 2.63946 2.63946 l 0.245,0.696644 c 0.13475,0.383155 0.17111,0.88917 0.0808,1.124479 l -0.16418,0.427835 -2.4557,-0.0041 c -1.35063,-0.0022 -2.61336,-0.10401 -2.80605,-0.226183 z m 7.11806,-0.141541 c -0.17801,-0.214486 -0.28528,-0.724596 -0.23839,-1.133578 l 0.0853,-0.743604 2.47404,-0.07643 2.47404,-0.07643 0.38374,0.318475 0.38374,0.318475 -0.0797,0.816285 -0.0797,0.816286 -2.53974,0.07525 -2.53974,0.07524 z m 7.45983,0.05015 c -0.14968,-0.186906 -0.35899,-0.622584 -0.46514,-0.968173 l -0.19298,-0.628345 0.35904,-0.227499 c 1.4893,-0.943663 5.54774,-0.135078 5.60776,1.117265 l 0.043,0.89609 -2.53974,0.07525 -2.53974,0.07524 z m 7.06412,-0.221185 c -0.15978,-0.298549 -0.25327,-0.804564 -0.20775,-1.124479 l 0.0828,-0.581664 2.11578,-0.07845 c 1.16368,-0.04315 2.37217,-0.0141 2.68554,0.06455 l 0.56976,0.143001 0.25055,0.729199 c 0.1378,0.40106 0.1993,0.878028 0.13668,1.059929 l -0.11387,0.330729 h -2.61447 -2.61448 z m 7.17029,0.169118 c -0.17058,-0.205534 -0.33399,-0.711549 -0.36313,-1.124479 l -0.053,-0.750782 h 2.63568 2.63569 l 0.38511,0.686111 0.3851,0.686111 -0.16822,0.438368 -0.16822,0.438368 h -2.48944 -2.48945 z m 10.46713,-7.806637 c 0.31047,-0.20632 0.75695,-0.70094 0.99218,-1.099157 l 0.4277,-0.72403 V 24.648578 -1.9938258 l -0.89958,-0.8995833 -0.89959,-0.8995833 H 330.45433 283.6008 l -0.86407,0.7720465 -0.86407,0.7720464 V 24.732524 51.713948 l 0.52917,0.593094 c 0.29104,0.326202 0.88635,0.751465 1.32291,0.94503 l 0.79375,0.351937 46.30208,-0.05736 46.30208,-0.05736 z"
       id="path2632" />
    <path
       style="fill:#000080;fill-opacity:1"
       d="m 270.18353,88.682053 c -0.30915,-0.216535 -0.73977,-0.901144 -0.95693,-1.521354 -0.21716,-0.62021 -0.47971,-1.336014 -0.58343,-1.590676 l -0.18858,-0.46302 h 61.96911 61.96911 l -0.18858,0.46302 c -0.10373,0.254662 -0.36627,0.970466 -0.58343,1.590676 -0.21717,0.62021 -0.64778,1.304819 -0.95693,1.521354 l -0.56208,0.393699 H 330.4237 270.74561 Z m 9.41982,-33.18803 -0.7734,-0.773397 V 24.782006 -5.1566141 l 0.7734,-0.7733974 0.7734,-0.7733974 h 49.96773 49.96772 l 0.61599,0.4314541 c 0.33879,0.2372997 0.782,0.828788 0.98491,1.3144185 l 0.36893,0.8829645 V 24.782006 53.638584 l -0.36893,0.882964 c -0.20291,0.485631 -0.64612,1.077119 -0.98491,1.314419 l -0.61599,0.431454 h -49.96772 -49.96773 z m 98.73165,-2.868797 0.77203,-0.86407 V 24.836703 -2.0877496 l -0.41294,-0.5895492 c -0.22711,-0.324252 -0.75698,-0.7674629 -1.17748,-0.984913 l -0.76455,-0.3953639 H 330.4237 284.09534 l -0.76455,0.3953639 c -0.4205,0.2174501 -0.95037,0.660661 -1.17749,0.984913 l -0.41293,0.5895492 V 24.72598 51.539709 l 0.28147,0.525931 c 0.15481,0.289262 0.66082,0.757802 1.12448,1.041201 l 0.84301,0.515271 46.78682,-0.06641 46.78682,-0.06641 z"
       id="path2629" />
    <g
       id="tux-3"
       transform="matrix(0.20797308,0,0,0.20797308,307.49977,-1.875305)">
      <g
         id="body-1">
        <path
           id="body_base-7"
           fill="#020204"
           d="m 106.95,0 c -6,0 -12.02,1.18 -17.46,4.12 -5.78,3.11 -10.52,8.09 -13.43,13.97 -2.92,5.88 -4.06,12.16 -4.24,19.08 -0.33,13.14 0.3,26.92 1.29,39.41 0.26,3.8 0.74,6.02 0.25,9.93 -1.62,8.3 -8.88,13.88 -12.76,21.17 -4.27,8.04 -6.07,17.13 -9.29,25.65 -2.95,7.79 -7.09,15.1 -9.88,22.95 -3.91,10.97 -5.08,23.03 -2.5,34.39 1.97,8.66 6.08,16.78 11.62,23.73 -0.8,1.44 -1.58,2.91 -2.4,4.34 -2.57,4.43 -5.71,8.64 -7.17,13.55 -0.73,2.45 -1.02,5.07 -0.55,7.59 0.47,2.52 1.75,4.93 3.75,6.53 1.31,1.04 2.9,1.72 4.53,2.1 1.63,0.37 3.32,0.46 5,0.43 6.37,-0.14 12.55,-2.07 18.71,-3.69 3.66,-0.96 7.34,-1.81 11.03,-2.58 13.14,-2.69 27.8,-1.61 39.99,0.15 4.13,0.63 8.23,1.44 12.29,2.43 6.36,1.54 12.69,3.5 19.23,3.69 1.72,0.05 3.46,-0.03 5.14,-0.4 1.68,-0.38 3.31,-1.06 4.65,-2.13 2.01,-1.6 3.29,-4.02 3.76,-6.54 0.47,-2.52 0.18,-5.15 -0.56,-7.61 -1.48,-4.92 -4.65,-9.11 -7.27,-13.52 -1.04,-1.75 -2,-3.53 -3.03,-5.28 7.9,-8.87 14.26,-19.13 17.94,-30.4 4.01,-12.3 4.75,-25.55 3.06,-38.38 -1.69,-12.83 -5.76,-25.27 -11.11,-37.05 -6.72,-14.76 -12.37,-20.1 -16.47,-33.07 -4.42,-14.02 -0.77,-30.61 -4.06,-43.32 -1.17,-4.32 -3.04,-8.45 -5.45,-12.23 -2.82,-4.43 -6.4,-8.39 -10.65,-11.47 C 124.13,2.62 115.61,0 106.95,0 Z" />
        <path
           id="belly-5"
           fill="#fdfdfb"
           d="m 83.13,74 c -0.9,1.13 -1.48,2.49 -1.84,3.89 -0.35,1.4 -0.48,2.85 -0.54,4.3 -0.11,2.89 0.07,5.83 -0.7,8.62 -0.82,2.98 -2.65,5.57 -4.44,8.08 -3.11,4.36 -6.25,8.84 -7.78,13.97 -0.93,3.1 -1.24,6.39 -0.91,9.62 -3.47,5.1 -6.48,10.53 -8.98,16.18 -3.78,8.57 -6.37,17.69 -7.28,27.01 -1.12,11.41 0.34,23.15 4.85,33.69 3.25,7.63 8.11,14.6 14.38,20.04 3.18,2.76 6.72,5.11 10.5,6.97 13.11,6.45 29.31,6.46 42.2,-0.41 6.74,-3.59 12.43,-8.84 17.91,-14.15 3.3,-3.2 6.59,-6.48 9.11,-10.32 4.85,-7.41 6.54,-16.41 7.59,-25.2 1.83,-15.36 1.89,-31.6 -4.85,-45.53 -2.32,-4.8 -5.41,-9.22 -9.12,-13.05 -0.98,-6.7 -2.93,-13.27 -5.76,-19.42 -2.05,-4.45 -4.54,-8.68 -6.44,-13.18 -0.78,-1.85 -1.46,-3.75 -2.32,-5.56 -0.87,-1.81 -1.93,-3.55 -3.39,-4.94 -1.48,-1.42 -3.33,-2.43 -5.28,-3.07 -1.95,-0.65 -4.01,-0.94 -6.06,-1.04 -4.11,-0.21 -8.22,0.33 -12.33,0.16 -3.27,-0.13 -6.53,-0.7 -9.8,-0.51 -1.63,0.1 -3.26,0.39 -4.78,1.01 -1.52,0.61 -2.92,1.56 -3.94,2.84 z" />
        <g
           id="body_self_shadows-9">
          <path
             id="belly_shadow_left-6"
             opacity="0.25"
             fill="url(#fill_belly_shadow_left)"
             filter="url(#blur_belly_shadow_left)"
             clip-path="url(#clip_body-3)"
             d="m 68.67,115.18 c 0.87,1.31 -0.55,5.84 19.86,2.94 0,0 -3.59,0.39 -7.12,1.21 -5.49,1.84 -10.27,3.89 -13.97,6.61 -3.65,2.7 -6.33,6.21 -9.68,9.22 0,0 5.43,-9.92 6.78,-12.91 1.36,-2.99 -0.22,-2.85 0.85,-7.25 1.07,-4.4 3.69,-8.63 3.69,-8.63 0,0 -2.14,6.22 -0.41,8.81 z"
             style="fill:url(#fill_belly_shadow_left-7);filter:url(#blur_belly_shadow_left-0)" />
          <path
             id="belly_shadow_right-2"
             opacity="0.42"
             fill="url(#fill_belly_shadow_right)"
             filter="url(#blur_belly_shadow_right)"
             clip-path="url(#clip_body-3)"
             d="m 134.28,113.99 c -4.16,2.9 -6.6,2.56 -11.64,3.12 -5.05,0.57 -18.7,0.36 -18.7,0.36 0,0 1.97,-0.03 6.36,0.78 4.38,0.82 13.31,1.6 18.34,3.51 5.04,1.92 6.87,2.47 9.93,4.4 4.35,2.75 7.55,7.06 11.71,10.08 0,0 0.2,-4 -1.48,-6.99 -1.68,-2.99 -6.2,-7.7 -7.53,-12.1 -1.32,-4.4 -1.96,-13.04 -1.96,-13.04 0,0 -0.88,6.99 -5.03,9.88 z"
             style="fill:url(#fill_belly_shadow_right-2);filter:url(#blur_belly_shadow_right-8)" />
          <path
             id="belly_shadow_middle-1"
             opacity="0.2"
             fill="url(#fill_belly_shadow_middle)"
             filter="url(#blur_belly_shadow_middle)"
             clip-path="url(#clip_body-3)"
             d="m 95.17,107.81 c -0.16,1.25 -0.36,2.5 -0.6,3.74 -0.12,0.61 -0.26,1.22 -0.48,1.8 -0.23,0.58 -0.56,1.14 -1.02,1.55 -0.41,0.37 -0.9,0.62 -1.4,0.85 -1.94,0.88 -4.01,1.47 -6.12,1.74 0.84,0.06 1.68,0.14 2.53,0.23 0.53,0.06 1.06,0.12 1.57,0.25 0.52,0.14 1.03,0.34 1.46,0.65 0.47,0.35 0.84,0.82 1.12,1.34 0.55,1.02 0.73,2.2 0.83,3.37 0.13,1.48 0.14,2.98 0.03,4.46 0.1,-0.99 0.31,-1.98 0.62,-2.92 0.57,-1.72 1.47,-3.32 2.69,-4.65 0.49,-0.52 1.02,-1.01 1.6,-1.42 1.79,-1.26 4.07,-1.81 6.24,-1.51 -2.21,0.09 -4.44,-0.6 -6.2,-1.93 -0.9,-0.68 -1.68,-1.52 -2.22,-2.5 -0.84,-1.52 -1.08,-3.37 -0.65,-5.05 z"
             style="fill:url(#fill_belly_shadow_middle-9);filter:url(#blur_belly_shadow_middle-2)" />
          <path
             id="belly_shadow_lower-7"
             opacity="0.11"
             fill="#000000"
             filter="url(#blur_belly_shadow_lower)"
             clip-path="url(#clip_body-3)"
             d="m 89.85,137.14 c -1.06,4.03 -1.79,8.15 -2.17,12.31 -0.55,5.87 -0.42,11.78 -0.74,17.67 -0.26,4.99 -0.85,10.04 0.02,14.97 0.41,2.35 1.15,4.64 2.2,6.78 0.16,-0.82 0.29,-1.64 0.36,-2.47 0.37,-4 -0.3,-8.01 -0.53,-12.01 -0.4,-7.02 0.57,-14.04 0.97,-21.06 0.3,-5.39 0.27,-10.8 -0.11,-16.19 z"
             style="filter:url(#blur_belly_shadow_lower-7)" />
        </g>
        <g
           id="body_glare-8">
          <path
             id="belly_glare-5"
             opacity="0.75"
             fill="#7c7c7c"
             filter="url(#blur_belly_glare)"
             clip-path="url(#clip_body-3)"
             d="m 160.08,131.23 c 1.03,-0.16 7.34,5.21 6.48,7.21 -0.86,1.99 -2.49,0.79 -3.65,0.8 -1.16,0.02 -4.33,1.46 -4.86,0.55 -0.54,-0.91 1.4,-3.03 2.41,-4.81 0.82,-1.43 -1.4,-3.59 -0.38,-3.75 z"
             style="filter:url(#blur_belly_glare-9)" />
          <path
             id="head_glare-7"
             fill="#7c7c7c"
             filter="url(#blur_head_glare)"
             clip-path="url(#clip_body-3)"
             d="m 121.52,11.12 c -2.21,1.56 -1.25,3.51 -0.3,5.46 0.95,1.96 -2.09,7.59 -2.12,7.83 -0.03,0.24 5.98,-2.85 7.62,-4.87 1.94,-2.37 6.83,3.22 6.56,2.37 0.01,-1.52 -9.55,-12.34 -11.76,-10.79 z"
             style="filter:url(#blur_head_glare-2)" />
          <path
             id="neck_glare-4"
             fill="#838384"
             filter="url(#blur_neck_glare)"
             clip-path="url(#clip_body-3)"
             d="m 138.27,76.63 c -1.86,1.7 0.88,4.25 2.17,7.24 0.81,1.86 3.04,4.49 5.2,4.07 1.63,-0.32 2.63,-2.66 2.48,-4.3 -0.3,-3.18 -2.98,-3.93 -4.93,-5.02 -1.54,-0.86 -3.61,-3.18 -4.92,-1.99 z"
             style="filter:url(#blur_neck_glare-9)" />
        </g>
      </g>
      <g
         id="wings-1">
        <g
           id="wing_left-8">
          <path
             id="wing_left_base-5"
             fill="#020204"
             d="m 63.98,100.91 c -6.1,6.92 -12.37,13.63 -15.81,21.12 -1.71,3.8 -2.51,7.93 -3.68,11.93 -1.32,4.54 -3.12,8.94 -5.14,13.22 -1.87,3.95 -3.93,7.81 -5.98,11.66 -1.5,2.81 -3.02,5.67 -3.54,8.81 -0.41,2.48 -0.18,5.04 0.46,7.47 0.63,2.43 1.64,4.75 2.79,6.98 4.88,9.55 12.21,17.77 20.89,24.07 3.94,2.85 8.15,5.32 12.58,7.35 2.4,1.09 4.92,2.07 7.56,2.11 1.32,0.03 2.65,-0.19 3.86,-0.72 1.2,-0.53 2.28,-1.38 3,-2.49 0.88,-1.36 1.18,-3.05 1,-4.66 -0.18,-1.61 -0.81,-3.15 -1.65,-4.53 -2.06,-3.38 -5.31,-5.83 -8.44,-8.25 -6.76,-5.23 -13.29,-10.76 -19.55,-16.58 -1.76,-1.65 -3.53,-3.34 -4.76,-5.42 -1.2,-2.02 -1.85,-4.32 -2.29,-6.63 -1.21,-6.33 -0.9,-12.99 1.25,-19.07 0.85,-2.38 1.96,-4.65 3.04,-6.93 1.86,-3.95 3.62,-7.98 6.07,-11.6 3.05,-4.51 7.13,-8.33 9.61,-13.17 2.1,-4.09 2.95,-8.68 3.76,-13.2 0.64,-3.54 1.85,-7 2.47,-10.54 -1.21,2.3 -5.11,6.07 -7.5,9.07 z" />
          <path
             id="wing_left_glare-9"
             opacity="0.95"
             fill="#7c7c7c"
             filter="url(#blur_wing_left_glare)"
             clip-path="url(#clip_wing_left-3)"
             d="m 56.96,126.1 c -2,1.84 -3.73,3.97 -5.13,6.31 -2.3,3.84 -3.65,8.16 -5.33,12.31 -1.24,3.09 -2.69,6.2 -2.86,9.53 -0.09,1.71 0.16,3.42 0.22,5.13 0.06,1.71 -0.1,3.49 -0.94,4.98 -0.7,1.25 -1.87,2.23 -3.22,2.71 1.83,0.61 3.45,1.79 4.6,3.33 0.96,1.3 1.58,2.81 2.41,4.18 0.68,1.12 1.51,2.16 2.54,2.97 1.02,0.82 2.25,1.4 3.54,1.56 1.79,0.23 3.65,-0.36 4.97,-1.58 -1.66,-15.55 -0.14,-31.42 4.44,-46.37 0.29,-0.94 0.59,-1.89 0.67,-2.87 0.07,-0.99 -0.12,-2.03 -0.72,-2.81 -0.31,-0.42 -0.74,-0.75 -1.23,-0.96 -0.48,-0.2 -1.02,-0.28 -1.54,-0.21 -0.52,0.06 -1.03,0.26 -1.45,0.57 -0.42,0.32 -0.76,0.74 -0.97,1.22 z"
             style="filter:url(#blur_wing_left_glare-1)" />
        </g>
        <g
           id="wing_right-7">
          <path
             id="wing_right_base-5"
             fill="#020204"
             d="m 162.76,127.12 c 5.24,4.22 8.57,10.59 9.6,17.24 0.8,5.18 0.28,10.51 -0.89,15.62 -1.17,5.12 -2.97,10.06 -4.77,15 -0.71,1.96 -1.43,3.95 -1.71,6.02 -0.29,2.08 -0.11,4.27 0.89,6.11 1.15,2.11 3.29,3.56 5.59,4.24 2.27,0.68 4.72,0.66 7.02,0.09 2.3,-0.57 6.17,-1.31 8.04,-2.77 4.75,-3.69 5.88,-10.1 7.01,-15.72 1.17,-5.87 0.6,-12.02 -0.43,-17.95 -1.41,-8.09 -3.78,-15.99 -6.79,-23.62 -2.22,-5.62 -5.06,-10.98 -8.44,-15.96 -3.32,-4.89 -8.02,-8.7 -11.5,-13.48 -1.21,-1.66 -2.66,-3.38 -3.84,-5.06 -2.56,-3.62 -1.98,-2.94 -3.57,-5.29 -1.15,-1.7 -2.97,-2.28 -4.88,-3.02 -1.92,-0.74 -4.06,-0.96 -6.04,-0.41 -2.6,0.73 -4.73,2.79 -5.86,5.24 -1.13,2.46 -1.33,5.28 -0.89,7.95 0.57,3.44 2.14,6.64 3.92,9.64 2,3.39 4.32,6.66 7.35,9.18 3.16,2.63 6.98,4.37 10.19,6.95 z" />
          <path
             id="wing_right_glare-3"
             fill="#838384"
             filter="url(#blur_wing_right_glare)"
             clip-path="url(#clip_wing_right-9)"
             d="m 150.42,118.99 c 0.42,0.4 0.86,0.81 1.31,1.19 3.22,2.63 4.93,5.58 8.2,8.16 5.34,4.22 10.75,11.5 11.8,18.15 0.82,5.19 -0.26,8.01 -1.58,14.12 -1.32,6.12 -5.06,14.78 -7.09,20.68 -0.8,2.35 1.64,1.38 1.32,3.86 -0.16,1.22 -0.18,2.45 -0.03,3.67 0.02,-0.23 0.03,-0.48 0.06,-0.71 0.39,-3.38 1.42,-6.63 2.55,-9.82 2.17,-6.13 4.66,-12.15 6.38,-18.45 1.72,-6.29 1.53,-10.82 0.63,-16.23 -1.13,-6.81 -5.09,-13.09 -10.69,-17.24 -3.97,-2.93 -8.64,-4.81 -12.86,-7.38 z"
             style="filter:url(#blur_wing_right_glare-1)" />
        </g>
      </g>
      <g
         id="feet-8">
        <g
           id="foot_left-8">
          <path
             id="foot_left_base-3"
             fill="url(#fill_foot_left_base)"
             d="m 34.98,175.33 c 1.38,-0.57 2.93,-0.68 4.39,-0.41 1.47,0.27 2.86,0.91 4.09,1.74 2.47,1.68 4.3,4.12 6.05,6.54 4.03,5.54 7.9,11.2 11.42,17.08 2.85,4.78 5.46,9.71 8.76,14.18 2.15,2.93 4.57,5.64 6.73,8.55 2.16,2.92 4.07,6.08 5.03,9.58 1.25,4.55 0.76,9.56 -1.4,13.75 -1.52,2.95 -3.86,5.48 -6.7,7.19 -2.84,1.71 -5.83,2.47 -9.15,2.47 -5.27,0 -10.42,-2.83 -15.32,-4.78 C 38.9,247.24 28.06,246 17.77,242.9 14.61,241.95 11.5,240.82 8.32,239.95 6.9,239.56 5.47,239.22 4.13,238.61 2.79,238.01 1.54,237.1 0.8,235.84 0.23,234.86 0,233.71 0,232.58 c 0,-1.14 0.28,-2.26 0.67,-3.32 0.77,-2.13 2.02,-4.06 2.86,-6.17 1.37,-3.44 1.62,-7.23 1.43,-10.93 -0.18,-3.69 -0.78,-7.36 -1.03,-11.05 -0.12,-1.65 -0.16,-3.32 0.16,-4.95 0.31,-1.62 1.01,-3.21 2.2,-4.35 1.1,-1.06 2.55,-1.69 4.05,-2 1.49,-0.31 3.03,-0.32 4.55,-0.29 1.52,0.03 3.05,0.12 4.57,-0.01 1.52,-0.12 3.05,-0.46 4.37,-1.22 1.26,-0.72 2.29,-1.79 3.14,-2.96 0.85,-1.17 1.54,-2.45 2.25,-3.72 0.7,-1.26 1.43,-2.52 2.36,-3.64 0.92,-1.12 2.06,-2.09 3.4,-2.64 z"
             style="fill:url(#linearGradient2634)" />
          <path
             id="foot_left_layer_1-1"
             fill="#d99a03"
             filter="url(#blur_foot_left_layer_1)"
             clip-path="url(#clip_foot_left-8)"
             d="m 37.16,177.7 c 1.25,-0.5 2.67,-0.56 3.98,-0.26 1.32,0.3 2.55,0.94 3.61,1.77 2.14,1.65 3.62,3.97 5.05,6.26 3.42,5.54 6.76,11.15 9.92,16.86 2.4,4.31 4.68,8.7 7.62,12.65 1.95,2.62 4.18,5.03 6.17,7.62 1.99,2.59 3.76,5.41 4.64,8.56 1.14,4.05 0.68,8.54 -1.28,12.26 -1.42,2.68 -3.58,4.96 -6.2,6.48 -2.61,1.52 -5.67,2.28 -8.69,2.14 -4.82,-0.22 -9.23,-2.63 -13.77,-4.26 -8.71,-3.16 -18.14,-3.59 -27.08,-6.05 -3.2,-0.87 -6.32,-2.03 -9.53,-2.84 -1.43,-0.36 -2.88,-0.66 -4.23,-1.23 -1.35,-0.57 -2.62,-1.45 -3.36,-2.72 -0.54,-0.95 -0.76,-2.06 -0.73,-3.15 0.04,-1.09 0.31,-2.17 0.7,-3.19 0.78,-2.04 2,-3.88 2.78,-5.92 1.19,-3.08 1.34,-6.47 1.12,-9.76 -0.22,-3.29 -0.8,-6.56 -1,-9.85 -0.08,-1.48 -0.1,-2.97 0.2,-4.41 0.3,-1.45 0.93,-2.85 1.98,-3.89 1.14,-1.13 2.7,-1.74 4.29,-1.99 1.58,-0.24 3.19,-0.13 4.78,0.01 1.6,0.14 3.2,0.32 4.8,0.23 1.6,-0.1 3.22,-0.49 4.54,-1.39 1.2,-0.81 2.1,-2 2.79,-3.27 0.69,-1.27 1.18,-2.64 1.71,-3.98 0.52,-1.35 1.09,-2.69 1.91,-3.89 0.82,-1.19 1.93,-2.24 3.28,-2.79 z"
             style="filter:url(#blur_foot_left_layer_1-3)" />
          <path
             id="foot_left_layer_2-8"
             fill="#f5bd0c"
             filter="url(#blur_foot_left_layer_2)"
             clip-path="url(#clip_foot_left-8)"
             d="m 35.99,174.57 c 1.22,-0.6 2.65,-0.72 3.98,-0.45 1.33,0.27 2.57,0.92 3.62,1.77 2.09,1.7 3.43,4.13 4.67,6.51 2.84,5.46 5.5,11.04 8.9,16.19 2.48,3.73 5.33,7.2 7.83,10.92 3.39,5.03 6.15,10.57 7.29,16.5 0.76,4 0.74,8.31 -1.18,11.9 -1.27,2.37 -3.32,4.31 -5.75,5.52 -2.42,1.22 -5.21,1.71 -7.92,1.47 -4.27,-0.37 -8.14,-2.47 -12.16,-3.94 -7.13,-2.59 -14.84,-3.22 -22.18,-5.18 -3.09,-0.82 -6.13,-1.89 -9.26,-2.54 -1.39,-0.29 -2.8,-0.5 -4.12,-1 -1.32,-0.5 -2.57,-1.33 -3.25,-2.55 -0.47,-0.86 -0.63,-1.86 -0.56,-2.84 0.07,-0.97 0.36,-1.92 0.74,-2.83 0.77,-1.8 1.9,-3.46 2.49,-5.32 0.88,-2.75 0.52,-5.72 -0.14,-8.53 -0.65,-2.8 -1.6,-5.55 -1.89,-8.41 -0.13,-1.27 -0.13,-2.57 0.17,-3.82 0.29,-1.25 0.88,-2.45 1.81,-3.34 1.2,-1.15 2.88,-1.73 4.56,-1.89 1.67,-0.16 3.35,0.06 5.01,0.3 1.66,0.24 3.34,0.5 5.01,0.42 1.68,-0.07 3.39,-0.51 4.7,-1.54 1.3,-1.02 2.12,-2.53 2.59,-4.09 0.47,-1.57 0.62,-3.2 0.81,-4.82 0.19,-1.62 0.43,-3.26 1.06,-4.77 0.63,-1.51 1.69,-2.9 3.17,-3.64 z"
             style="filter:url(#blur_foot_left_layer_2-6)" />
          <path
             id="foot_left_glare-9"
             fill="url(#fill_foot_left_glare)"
             filter="url(#blur_foot_left_glare)"
             clip-path="url(#clip_foot_left-8)"
             d="m 51.2,188.21 c 2.25,4.06 3.62,8.72 5.85,12.82 2.05,3.77 4.38,7.65 6.46,11.12 0.93,1.55 3.09,3.93 5.27,7.62 1.98,3.34 3.98,8.01 5.1,9.58 -0.64,-1.84 -1.96,-6.77 -3.54,-10.28 -1.47,-3.28 -3.19,-5.15 -4.24,-6.92 -2.08,-3.47 -4.33,-6.6 -6.47,-9.91 -2.95,-4.57 -5.2,-9.68 -8.43,-14.03 z"
             style="fill:url(#linearGradient2635);filter:url(#blur_foot_left_glare-5)" />
        </g>
        <g
           id="foot_right-6">
          <path
             id="foot_right_shadow-4"
             opacity="0.2"
             fill="url(#fill_foot_right_shadow)"
             filter="url(#blur_foot_right_shadow)"
             clip-path="url(#clip_body-3)"
             d="m 198.7,215.61 c -0.4,1.33 -1.02,2.62 -1.81,3.8 -1.75,2.59 -4.3,4.55 -6.84,6.35 -4.33,3.07 -8.85,5.89 -12.89,9.38 -2.7,2.34 -5.17,4.97 -7.45,7.73 -1.95,2.36 -3.79,4.84 -6.02,6.94 -2.25,2.12 -4.89,3.84 -7.74,4.77 -3.47,1.13 -7.13,1.08 -10.47,0.22 -2.34,-0.6 -4.63,-1.64 -6.08,-3.53 -1.45,-1.89 -1.92,-4.44 -2.09,-6.94 -0.3,-4.42 0.23,-8.93 0.71,-13.42 0.4,-3.73 0.77,-7.46 0.92,-11.18 0.27,-6.77 -0.18,-13.47 -1.09,-20.05 -0.16,-1.11 -0.32,-2.22 -0.23,-3.35 0.09,-1.14 0.47,-2.32 1.27,-3.2 0.74,-0.81 1.77,-1.29 2.79,-1.52 1.02,-0.24 2.06,-0.25 3.09,-0.28 2.43,-0.06 4.86,-0.21 7.25,0.01 1.51,0.13 2.99,0.41 4.49,0.55 2.51,0.24 5.12,0.12 7.64,-0.62 2.71,-0.8 5.29,-2.29 8.05,-2.7 1.13,-0.17 2.26,-0.15 3.36,0.01 1.12,0.15 2.24,0.46 3.1,1.15 0.66,0.52 1.14,1.23 1.51,1.99 0.56,1.14 0.9,2.39 1.1,3.68 0.17,1.14 0.24,2.31 0.53,3.41 0.48,1.81 1.58,3.35 2.89,4.6 1.32,1.25 2.85,2.24 4.39,3.22 1.53,0.97 3.07,1.93 4.7,2.73 0.77,0.38 1.56,0.72 2.29,1.15 0.74,0.44 1.42,0.97 1.91,1.67 0.66,0.95 0.92,2.2 0.72,3.43 z"
             style="fill:url(#linearGradient2636);filter:url(#blur_foot_right_shadow-6)" />
          <path
             id="foot_right_base-3"
             fill="url(#fill_foot_right_base)"
             d="m 213.47,222.92 c -2.26,2.68 -5.4,4.45 -8.53,6.05 -5.33,2.71 -10.86,5.1 -15.87,8.37 -3.36,2.19 -6.46,4.76 -9.36,7.53 -2.48,2.37 -4.83,4.9 -7.61,6.91 -2.81,2.03 -6.05,3.5 -9.48,4.01 -0.95,0.14 -1.9,0.21 -2.86,0.21 -3.24,0 -6.48,-0.78 -9.46,-2.08 -2.7,-1.17 -5.3,-2.86 -6.86,-5.36 -1.56,-2.52 -1.92,-5.59 -1.92,-8.56 -0.01,-5.23 0.96,-10.41 1.87,-15.57 0.76,-4.29 1.48,-8.58 1.95,-12.91 0.85,-7.86 0.84,-15.81 0.28,-23.71 -0.1,-1.32 -0.21,-2.65 -0.01,-3.96 0.2,-1.31 0.74,-2.62 1.74,-3.48 0.93,-0.8 2.17,-1.16 3.4,-1.22 1.22,-0.07 2.44,0.12 3.65,0.3 2.85,0.42 5.73,0.74 8.52,1.48 1.76,0.46 3.48,1.08 5.23,1.56 2.94,0.79 6.01,1.17 9.02,0.82 3.25,-0.38 6.41,-1.6 9.68,-1.52 1.34,0.03 2.67,0.28 3.95,0.69 1.3,0.41 2.59,1 3.55,1.98 0.73,0.74 1.24,1.67 1.62,2.64 0.57,1.44 0.88,2.98 1.01,4.52 0.11,1.37 0.09,2.76 0.35,4.11 0.43,2.21 1.6,4.24 3.04,5.97 1.45,1.74 3.18,3.21 4.91,4.66 1.73,1.45 3.46,2.89 5.32,4.16 0.87,0.6 1.77,1.16 2.6,1.81 0.83,0.66 1.59,1.42 2.11,2.34 0.45,0.81 0.69,1.72 0.69,2.65 0,0.52 -0.07,1.04 -0.23,1.56 -0.45,1.43 -1.28,2.82 -2.3,4.04 z"
             style="fill:url(#linearGradient2637)" />
          <path
             id="foot_right_layer_1-3"
             fill="#cd8907"
             filter="url(#blur_foot_right_layer_1)"
             clip-path="url(#clip_foot_right-3)"
             d="m 213.21,216.12 c -0.53,1.33 -1.28,2.58 -2.22,3.67 -2.07,2.42 -4.93,4.01 -7.78,5.44 -4.88,2.44 -9.92,4.58 -14.5,7.52 -3.06,1.97 -5.9,4.28 -8.55,6.78 -2.26,2.13 -4.41,4.41 -6.95,6.21 -2.57,1.83 -5.53,3.14 -8.65,3.6 -3.8,0.56 -7.72,-0.16 -11.25,-1.67 -2.46,-1.06 -4.84,-2.56 -6.27,-4.83 -1.42,-2.26 -1.75,-5.02 -1.75,-7.69 -0.02,-4.71 0.87,-9.37 1.71,-14 0.7,-3.85 1.36,-7.71 1.78,-11.6 0.76,-7.08 0.73,-14.22 0.25,-21.32 -0.08,-1.19 -0.17,-2.39 0.01,-3.57 0.18,-1.18 0.67,-2.35 1.57,-3.13 0.85,-0.73 1.99,-1.05 3.11,-1.1 1.11,-0.06 2.22,0.12 3.33,0.28 2.61,0.38 5.23,0.67 7.78,1.33 1.61,0.42 3.18,0.98 4.78,1.4 2.68,0.72 5.49,1.06 8.24,0.74 2.97,-0.34 5.85,-1.44 8.83,-1.37 1.23,0.03 2.44,0.26 3.61,0.62 1.19,0.37 2.37,0.9 3.25,1.78 0.66,0.67 1.11,1.51 1.48,2.38 0.53,1.29 0.89,2.67 0.91,4.07 0.03,1.46 -0.28,2.92 -0.09,4.37 0.16,1.17 0.66,2.28 1.3,3.28 0.63,1 1.4,1.91 2.17,2.81 1.48,1.75 2.96,3.53 4.82,4.87 2.11,1.53 4.62,2.43 6.8,3.85 0.65,0.43 1.28,0.91 1.74,1.54 0.78,1.06 0.98,2.5 0.54,3.74 z"
             style="filter:url(#blur_foot_right_layer_1-2)" />
          <path
             id="foot_right_layer_2-3"
             fill="#f5c021"
             filter="url(#blur_foot_right_layer_2)"
             clip-path="url(#clip_foot_right-3)"
             d="m 212.91,214.61 c -0.6,1.35 -1.37,2.6 -2.28,3.71 -2.12,2.58 -4.99,4.35 -8,5.49 -4.97,1.88 -10.39,2.13 -15.26,4.27 -2.97,1.3 -5.65,3.26 -8.36,5.12 -2.18,1.49 -4.42,2.94 -6.82,3.98 -2.72,1.19 -5.6,1.85 -8.5,2.32 -1.84,0.29 -3.71,0.51 -5.57,0.41 -1.86,-0.1 -3.72,-0.54 -5.37,-1.49 -1.24,-0.72 -2.36,-1.75 -3.03,-3.1 -0.73,-1.49 -0.86,-3.24 -0.85,-4.94 0.05,-4.5 1.02,-8.96 0.99,-13.47 -0.03,-3.93 -0.81,-7.8 -1.03,-11.72 -0.43,-7.54 1.19,-15.2 -0.24,-22.59 -0.22,-1.19 -0.53,-2.37 -0.52,-3.58 0.01,-0.6 0.1,-1.21 0.31,-1.77 0.22,-0.55 0.56,-1.06 1.01,-1.42 0.39,-0.29 0.84,-0.47 1.31,-0.56 0.46,-0.08 0.94,-0.06 1.41,0.01 0.93,0.15 1.82,0.51 2.73,0.78 2.6,0.78 5.35,0.76 8,1.35 1.66,0.36 3.26,0.97 4.91,1.41 2.75,0.76 5.63,1.08 8.46,0.75 3.04,-0.36 6.01,-1.46 9.07,-1.38 1.26,0.03 2.5,0.26 3.71,0.62 1.21,0.36 2.42,0.87 3.34,1.8 0.65,0.67 1.13,1.52 1.51,2.4 0.57,1.29 0.96,2.69 0.95,4.11 -0.01,0.74 -0.12,1.47 -0.19,2.21 -0.06,0.74 -0.08,1.49 0.09,2.2 0.18,0.72 0.55,1.37 0.97,1.96 0.42,0.59 0.9,1.12 1.34,1.7 1.22,1.61 2.1,3.49 3.05,5.3 0.95,1.81 2.02,3.6 3.53,4.91 2.05,1.77 4.7,2.48 6.99,3.89 0.67,0.41 1.31,0.89 1.78,1.55 0.38,0.52 0.63,1.15 0.73,1.81 0.09,0.65 0.03,1.34 -0.17,1.96 z"
             style="filter:url(#blur_foot_right_layer_2-4)" />
          <path
             id="foot_right_glare-8"
             fill="url(#fill_foot_right_glare)"
             filter="url(#blur_foot_right_glare)"
             clip-path="url(#clip_foot_right-3)"
             d="m 148.08,181.58 c 2.82,-0.76 5.22,1.38 7.27,2.99 1.32,1.13 3.24,0.85 4.86,0.9 2.69,-0.09 5.36,0.45 8.05,0.12 5.3,-0.45 10.49,-1.75 15.81,-1.97 2.54,-0.16 5.4,-0.31 7.59,1.17 0.89,0.62 2.2,3.23 3.07,2.25 -0.36,-2.74 -2.39,-5.39 -5.11,-6.12 -2.14,-0.34 -4.3,0.25 -6.46,0.06 -6.39,-0.15 -12.75,-1.34 -19.16,-1 -4.46,0.04 -8.91,-0.17 -13.37,-0.34 -1.75,-0.36 -2.37,1.19 -3.32,1.79 0.25,0.19 0.34,0.25 0.77,0.15 z"
             style="fill:url(#linearGradient2638);filter:url(#blur_foot_right_glare-6)" />
        </g>
      </g>
      <g
         id="wing_tip_right-6">
        <g
           id="wing_tip_right_shadow-0">
          <path
             id="wing_tip_right_shadow_lower-4"
             opacity="0.35"
             fill="url(#fill_wing_tip_right_shadow_lower)"
             filter="url(#blur_wing_tip_right_shadow_lower)"
             clip-path="url(#clip_foot_right-3)"
             d="m 185.49,187.61 c -0.48,-0.95 -1.36,-1.66 -2.35,-2.07 -0.98,-0.41 -2.06,-0.55 -3.13,-0.54 -2.13,0.02 -4.25,0.57 -6.38,0.39 -1.79,-0.16 -3.49,-0.83 -5.24,-1.26 -1.81,-0.44 -3.73,-0.61 -5.52,-0.12 -1.92,0.52 -3.61,1.81 -4.67,3.49 -0.94,1.48 -1.38,3.23 -1.52,4.98 -0.14,1.75 0.01,3.5 0.19,5.25 0.12,1.26 0.27,2.52 0.57,3.75 0.31,1.23 0.78,2.43 1.52,3.46 1.07,1.48 2.66,2.54 4.37,3.17 2.8,1.03 5.98,0.98 8.73,-0.15 4.88,-2.12 9.01,-5.92 11.52,-10.6 0.91,-1.68 1.61,-3.47 2.06,-5.31 0.18,-0.74 0.32,-1.49 0.32,-2.25 0.01,-0.75 -0.12,-1.52 -0.47,-2.19 z"
             style="fill:url(#fill_wing_tip_right_shadow_lower-8);filter:url(#blur_wing_tip_right_shadow_lower-2)" />
          <path
             id="wing_tip_right_shadow_upper-8"
             opacity="0.35"
             fill="url(#fill_wing_tip_right_shadow_upper)"
             filter="url(#blur_wing_tip_right_shadow_upper)"
             clip-path="url(#clip_foot_right-3)"
             d="m 185.49,184.89 c -0.48,-0.69 -1.36,-1.2 -2.35,-1.5 -0.98,-0.3 -2.06,-0.39 -3.13,-0.39 -2.13,0.02 -4.25,0.42 -6.38,0.28 -1.79,-0.11 -3.49,-0.6 -5.24,-0.9 -1.81,-0.32 -3.73,-0.45 -5.52,-0.09 -1.92,0.37 -3.61,1.3 -4.67,2.52 -0.94,1.07 -1.38,2.34 -1.52,3.6 -0.14,1.26 0.01,2.53 0.19,3.79 0.12,0.91 0.27,1.83 0.57,2.72 0.31,0.89 0.78,1.76 1.52,2.5 1.07,1.07 2.66,1.83 4.37,2.29 2.8,0.75 5.98,0.71 8.73,-0.11 4.88,-1.53 9.01,-4.28 11.52,-7.66 0.91,-1.22 1.61,-2.51 2.06,-3.84 0.18,-0.54 0.32,-1.08 0.32,-1.62 0.01,-0.55 -0.12,-1.11 -0.47,-1.59 z"
             style="fill:url(#fill_wing_tip_right_shadow_upper-6);filter:url(#blur_wing_tip_right_shadow_upper-4)" />
        </g>
        <path
           id="wing_tip_right_base-8"
           fill="#020204"
           d="m 189.55,178.72 c -0.35,-0.95 -0.97,-1.79 -1.72,-2.47 -0.75,-0.68 -1.64,-1.2 -2.57,-1.6 -1.86,-0.79 -3.89,-1.09 -5.89,-1.46 -1.87,-0.35 -3.74,-0.78 -5.62,-1.1 -1.96,-0.33 -3.98,-0.55 -5.92,-0.11 -1.69,0.38 -3.26,1.26 -4.54,2.43 -1.28,1.17 -2.28,2.63 -3,4.21 -1.27,2.79 -1.67,5.92 -1.43,8.97 0.18,2.27 0.76,4.61 2.25,6.32 1.21,1.39 2.92,2.26 4.68,2.78 3.04,0.9 6.35,0.85 9.36,-0.13 4.97,-1.67 9.37,-4.98 12.35,-9.29 0.98,-1.43 1.82,-2.98 2.2,-4.66 0.29,-1.28 0.3,-2.66 -0.15,-3.89 z" />
        <g
           id="wing_tip_right_glare-8">
          <defs
             id="defs104-9" />
          <path
             id="wing_tip_right_glare_1-7"
             d="m 168.89,171.07 c -0.47,0.03 -0.93,0.08 -1.4,0.17 -2.99,0.53 -5.73,2.42 -7.27,5.03 -1.09,1.85 -1.58,4.03 -1.43,6.17 0.07,-1.5 0.46,-2.97 1.19,-4.28 1.23,-2.23 3.47,-3.91 5.98,-4.37 1.54,-0.28 3.13,-0.11 4.68,0.08 1.5,0.19 3,0.39 4.47,0.7 2.28,0.5 4.53,1.26 6.44,2.59 0.44,0.31 0.86,0.66 1.21,1.08 0.35,0.41 0.62,0.89 0.73,1.42 0.15,0.78 -0.07,1.6 -0.46,2.29 -0.39,0.7 -0.92,1.3 -1.48,1.86 -0.46,0.46 -0.94,0.89 -1.43,1.32 2.21,-0.43 4.44,-1.03 6.28,-2.31 0.77,-0.55 1.48,-1.2 1.94,-2.02 0.46,-0.83 0.65,-1.83 0.43,-2.75 -0.16,-0.62 -0.5,-1.19 -0.92,-1.67 -0.42,-0.48 -0.93,-0.87 -1.45,-1.24 -2.31,-1.62 -5.01,-2.65 -7.81,-2.99 -1.8,-0.33 -3.61,-0.61 -5.42,-0.83 -1.41,-0.18 -2.86,-0.33 -4.28,-0.25 z"
             style="fill:url(#fill_wing_tip_right_glare_1-5);filter:url(#blur_wing_tip_right_glare-1)" />
          <path
             id="wing_tip_right_glare_2-6"
             d="m 168.89,171.07 c -0.47,0.03 -0.93,0.08 -1.4,0.17 -2.99,0.53 -5.73,2.42 -7.27,5.03 -1.09,1.85 -1.58,4.03 -1.43,6.17 0.07,-1.5 0.46,-2.97 1.19,-4.28 1.23,-2.23 3.47,-3.91 5.98,-4.37 1.54,-0.28 3.13,-0.11 4.68,0.08 1.5,0.19 3,0.39 4.47,0.7 2.28,0.5 4.53,1.26 6.44,2.59 0.44,0.31 0.86,0.66 1.21,1.08 0.35,0.41 0.62,0.89 0.73,1.42 0.15,0.78 -0.07,1.6 -0.46,2.29 -0.39,0.7 -0.92,1.3 -1.48,1.86 -0.46,0.46 -0.94,0.89 -1.43,1.32 2.21,-0.43 4.44,-1.03 6.28,-2.31 0.77,-0.55 1.48,-1.2 1.94,-2.02 0.46,-0.83 0.65,-1.83 0.43,-2.75 -0.16,-0.62 -0.5,-1.19 -0.92,-1.67 -0.42,-0.48 -0.93,-0.87 -1.45,-1.24 -2.31,-1.62 -5.01,-2.65 -7.81,-2.99 -1.8,-0.33 -3.61,-0.61 -5.42,-0.83 -1.41,-0.18 -2.86,-0.33 -4.28,-0.25 z"
             style="fill:url(#fill_wing_tip_right_glare_2);filter:url(#blur_wing_tip_right_glare-1)" />
        </g>
      </g>
      <g
         id="face-4">
        <g
           id="eyes-3">
          <g
             id="eye_left-0">
            <path
               id="eyeball_left-3"
               fill="url(#fill_eyeball_left)"
               d="m 84.45,38.28 c -1.53,0.08 -3,0.79 -4.12,1.84 -1.13,1.05 -1.92,2.43 -2.41,3.88 -0.97,2.92 -0.75,6.08 -0.53,9.15 0.2,2.77 0.41,5.6 1.45,8.18 0.52,1.3 1.25,2.51 2.22,3.51 0.97,0.99 2.2,1.76 3.55,2.09 1.26,0.32 2.62,0.26 3.86,-0.13 1.25,-0.4 2.38,-1.11 3.32,-2.02 1.36,-1.33 2.27,-3.07 2.8,-4.9 0.53,-1.83 0.68,-3.75 0.65,-5.66 -0.04,-2.38 -0.35,-4.77 -1.09,-7.03 -0.75,-2.26 -1.94,-4.4 -3.6,-6.11 -0.8,-0.83 -1.72,-1.55 -2.75,-2.06 -1.04,-0.51 -2.2,-0.8 -3.35,-0.74 z"
               style="fill:url(#fill_eyeball_left-0)" />
            <g
               id="pupil_left-0">
              <path
                 id="pupil_left_base-9"
                 fill="#020204"
                 d="m 80.75,50.99 c -0.32,1.94 -0.33,3.97 0.33,5.81 0.44,1.22 1.17,2.33 2.05,3.28 0.57,0.62 1.23,1.18 1.99,1.55 0.77,0.37 1.65,0.52 2.48,0.32 0.76,-0.19 1.42,-0.68 1.91,-1.29 0.49,-0.61 0.82,-1.34 1.05,-2.09 0.69,-2.21 0.58,-4.62 -0.11,-6.83 -0.49,-1.61 -1.32,-3.16 -2.6,-4.24 -0.62,-0.52 -1.34,-0.93 -2.12,-1.11 -0.78,-0.19 -1.63,-0.14 -2.36,0.19 -0.81,0.37 -1.44,1.07 -1.85,1.86 -0.41,0.79 -0.62,1.67 -0.77,2.55 z" />
              <path
                 id="pupil_left_glare-2"
                 fill="url(#fill_pupil_left_glare)"
                 filter="url(#blur_pupil_left_glare)"
                 clip-path="url(#clip_pupil_left-9)"
                 d="m 84.84,49.59 c 0.21,0.55 0.91,0.75 1.3,1.19 0.37,0.42 0.76,0.87 0.97,1.4 0.39,1.01 -0.39,2.51 0.43,3.23 0.25,0.22 0.77,0.23 1.02,0 0.99,-0.9 0.77,-2.71 0.38,-3.99 -0.36,-1.15 -1.23,-2.25 -2.31,-2.8 -0.5,-0.26 -1.25,-0.47 -1.68,-0.11 -0.27,0.24 -0.24,0.74 -0.11,1.08 z"
                 style="fill:url(#linearGradient2639);filter:url(#blur_pupil_left_glare-7)" />
            </g>
            <path
               id="eyelid_left-5"
               fill="url(#fill_eyelid_left)"
               clip-path="url(#clip_eye_left-9)"
               d="m 81.14,44.46 c 2.32,-1.38 5.13,-1.7 7.82,-1.45 2.68,0.26 5.27,1.04 7.87,1.75 1.91,0.52 3.84,1 5.63,1.84 1.78,0.84 3.44,2.08 4.43,3.8 0.16,0.27 0.29,0.56 0.46,0.83 0.17,0.27 0.37,0.52 0.62,0.71 0.25,0.19 0.57,0.32 0.88,0.3 0.16,-0.01 0.32,-0.05 0.45,-0.13 0.14,-0.08 0.26,-0.2 0.33,-0.34 0.08,-0.16 0.11,-0.35 0.1,-0.53 -0.01,-0.18 -0.05,-0.36 -0.1,-0.54 -0.65,-2.37 -2.19,-4.38 -3.35,-6.55 -0.7,-1.3 -1.28,-2.66 -1.98,-3.96 -2.43,-4.45 -6.42,-7.94 -10.95,-10.21 -4.53,-2.27 -9.59,-3.36 -14.65,-3.65 -5.86,-0.35 -11.73,0.35 -17.51,1.37 -2.51,0.44 -5.06,0.96 -7.27,2.21 -1.11,0.62 -2.13,1.42 -2.92,2.42 -0.8,0.99 -1.36,2.18 -1.55,3.44 -0.17,1.22 0.01,2.47 0.44,3.62 0.42,1.15 1.08,2.2 1.86,3.15 1.54,1.91 3.53,3.39 5.36,5.03 1.83,1.63 3.52,3.44 5.57,4.79 1.02,0.68 2.13,1.24 3.31,1.57 1.18,0.33 2.44,0.42 3.64,0.17 1.24,-0.25 2.4,-0.86 3.41,-1.64 1.01,-0.77 1.88,-1.7 2.71,-2.66 1.66,-1.93 3.21,-4.04 5.39,-5.34 z"
               style="fill:url(#fill_eyelid_left-1)" />
            <path
               id="eyebrow_left-4"
               fill="url(#fill_eyebrow_left)"
               filter="url(#blur_eyebrow_left)"
               d="m 90.77,36.57 c 2.16,2.02 3.76,4.52 4.85,7.16 -0.48,-2.91 -1.23,-5.26 -3.13,-7.16 -1.16,-1.09 -2.49,-2.05 -3.98,-2.72 -1.32,-0.59 -2.77,-0.96 -3.61,-0.97 -0.83,-0.02 -1.03,0 -1.2,0.01 -0.18,0.01 -0.31,0.01 0.23,0.08 0.54,0.06 1.75,0.39 3.05,0.97 1.3,0.58 2.62,1.54 3.79,2.63 z"
               style="fill:url(#linearGradient2640);filter:url(#blur_eyebrow_left-6)" />
          </g>
          <g
             id="eye_right-0">
            <path
               id="eyeball_right-5"
               fill="url(#fill_eyeball_right)"
               d="m 111.61,38.28 c -2.39,1.65 -4.4,3.94 -5.38,6.68 -1.24,3.45 -0.77,7.31 0.43,10.77 1.22,3.55 3.27,6.93 6.36,9.06 1.54,1.07 3.33,1.8 5.19,2.02 1.87,0.22 3.8,-0.09 5.47,-0.95 2.02,-1.06 3.57,-2.91 4.53,-4.98 0.96,-2.08 1.37,-4.37 1.5,-6.66 0.16,-2.9 -0.12,-5.86 -1.08,-8.61 -1.04,-2.99 -2.92,-5.75 -5.58,-7.47 -1.32,-0.86 -2.83,-1.45 -4.4,-1.67 -1.57,-0.22 -3.19,-0.05 -4.67,0.52 -0.84,0.33 -1.62,0.78 -2.37,1.29 z"
               style="fill:url(#fill_eyeball_right-6)" />
            <g
               id="pupil_right-9">
              <path
                 id="pupil_right_base-4"
                 fill="#020204"
                 d="m 117.14,45.52 c -0.9,0.06 -1.78,0.37 -2.55,0.85 -0.76,0.48 -1.41,1.13 -1.92,1.88 -1.03,1.49 -1.48,3.31 -1.55,5.12 -0.05,1.35 0.1,2.72 0.55,4 0.45,1.28 1.2,2.47 2.25,3.33 1.07,0.89 2.42,1.42 3.81,1.49 1.39,0.06 2.79,-0.34 3.93,-1.13 0.91,-0.63 1.64,-1.5 2.16,-2.48 0.52,-0.97 0.84,-2.05 0.98,-3.15 0.25,-1.93 -0.03,-3.95 -0.93,-5.69 -0.89,-1.74 -2.41,-3.17 -4.24,-3.84 -0.8,-0.29 -1.65,-0.44 -2.49,-0.38 z" />
              <path
                 id="pupil_right_glare-6"
                 fill="url(#fill_pupil_right_glare)"
                 filter="url(#blur_pupil_right_glare)"
                 clip-path="url(#clip_pupil_right-3)"
                 d="m 122.71,53.36 c 1,-1 -0.71,-3.65 -2.05,-4.74 -0.97,-0.78 -3.78,-1.61 -3.66,-0.75 0.12,0.85 1.39,1.95 2.23,2.79 1.05,1.03 3,3.18 3.48,2.7 z"
                 style="fill:url(#linearGradient2641);filter:url(#blur_pupil_right_glare-4)" />
            </g>
            <path
               id="eyelid_right-9"
               fill="url(#fill_eyelid_right)"
               clip-path="url(#clip_eye_right-1)"
               d="m 102.56,47.01 c 2.06,-1.71 4.45,-3.01 7,-3.8 5.25,-1.62 11.2,-0.98 15.84,1.97 1.6,1.01 3.03,2.27 4.52,3.45 1.48,1.17 3.06,2.27 4.85,2.9 0.97,0.34 2,0.54 3.02,0.43 0.92,-0.09 1.81,-0.44 2.57,-0.96 0.76,-0.53 1.4,-1.23 1.88,-2.02 0.96,-1.58 1.27,-3.5 1.1,-5.34 -0.33,-3.69 -2.41,-6.94 -4.15,-10.21 -0.55,-1.02 -1.07,-2.06 -1.73,-3.01 -2.01,-2.93 -5.23,-4.86 -8.6,-5.99 -3.37,-1.13 -6.93,-1.54 -10.46,-1.98 -1.58,-0.2 -3.17,-0.41 -4.74,-0.22 -1.81,0.22 -3.51,0.95 -5.28,1.4 -0.84,0.22 -1.69,0.37 -2.52,0.61 -0.83,0.24 -1.65,0.57 -2.33,1.11 -0.98,0.79 -1.6,1.98 -1.87,3.21 -0.27,1.24 -0.21,2.52 -0.01,3.77 0.39,2.5 1.33,4.93 1.24,7.46 -0.06,1.73 -0.61,3.44 -0.54,5.17 0.02,0.51 0.12,1.55 0.21,2.05 z"
               style="fill:url(#linearGradient2642)" />
            <path
               id="eyebrow_right-2"
               fill="url(#fill_eyebrow_right)"
               filter="url(#blur_eyebrow_right)"
               d="m 119.93,31.18 c -0.41,0.52 -0.78,1.08 -1.07,1.7 1.85,0.4 3.61,1.16 5.19,2.21 3.06,2.03 5.38,4.99 7.01,8.29 0.38,-0.42 0.72,-0.87 1.02,-1.37 -1.64,-3.44 -4,-6.55 -7.16,-8.65 -1.52,-1 -3.21,-1.77 -4.99,-2.18 z"
               style="fill:url(#linearGradient2643);filter:url(#blur_eyebrow_right-9)" />
          </g>
        </g>
        <g
           id="beak-2">
          <g
             id="beak_shadow-4">
            <path
               id="beak_shadow_lower-7"
               fill="#000000"
               fill-opacity="0.258824"
               filter="url(#blur_beak_shadow_lower)"
               clip-path="url(#clip_body-3)"
               d="m 81.12,89.33 c 1.47,4.26 4.42,7.89 7.92,10.72 1.16,0.95 2.39,1.82 3.76,2.43 1.36,0.62 2.87,0.97 4.36,0.84 1.46,-0.12 2.85,-0.7 4.13,-1.42 1.28,-0.72 2.46,-1.59 3.7,-2.37 2.12,-1.35 4.39,-2.44 6.6,-3.64 2.65,-1.45 5.23,-3.1 7.46,-5.14 1.03,-0.93 1.98,-1.95 3.11,-2.75 1.13,-0.81 2.49,-1.39 3.87,-1.29 1.04,0.07 2.01,0.51 3.03,0.73 0.51,0.11 1.03,0.16 1.55,0.08 0.51,-0.08 1.01,-0.29 1.37,-0.67 0.44,-0.46 0.64,-1.12 0.61,-1.76 -0.02,-0.63 -0.24,-1.25 -0.54,-1.81 -0.59,-1.13 -1.49,-2.1 -1.89,-3.31 -0.36,-1.08 -0.29,-2.24 -0.26,-3.37 0.03,-1.14 0.01,-2.32 -0.51,-3.33 -0.4,-0.76 -1.07,-1.37 -1.83,-1.77 -0.76,-0.41 -1.62,-0.62 -2.48,-0.7 -1.72,-0.16 -3.44,0.18 -5.17,0.27 -2.28,0.13 -4.58,-0.15 -6.87,-0.02 -2.85,0.18 -5.65,1 -8.51,1.01 -3.26,0.01 -6.52,-1.06 -9.74,-0.55 -1.39,0.22 -2.71,0.72 -4.03,1.16 -1.33,0.45 -2.7,0.84 -4.1,0.82 -1.59,-0.03 -3.13,-0.58 -4.72,-0.69 -0.79,-0.06 -1.6,0 -2.35,0.28 -0.74,0.28 -1.41,0.79 -1.78,1.5 -0.21,0.4 -0.31,0.86 -0.33,1.31 -0.02,0.46 0.04,0.91 0.15,1.36 0.22,0.88 0.63,1.71 0.96,2.55 1.2,3.07 1.46,6.42 2.53,9.53 z"
               style="filter:url(#blur_beak_shadow_lower-9)" />
            <path
               id="beak_shadow_upper-7"
               opacity="0.3"
               fill="#000000"
               filter="url(#blur_beak_shadow_upper)"
               clip-path="url(#clip_body-3)"
               d="m 77.03,77.2 c 2.85,1.76 5.41,3.93 7.56,6.39 1.99,2.29 3.68,4.89 6.29,6.58 1.83,1.2 4.04,1.87 6.28,2.08 2.63,0.24 5.29,-0.15 7.83,-0.84 2.35,-0.63 4.62,-1.53 6.7,-2.71 3.97,-2.25 7.28,-5.55 11.65,-7.03 0.95,-0.33 1.94,-0.56 2.86,-0.96 0.92,-0.39 1.79,-0.99 2.23,-1.83 0.42,-0.82 0.4,-1.75 0.54,-2.64 0.15,-0.96 0.48,-1.88 0.66,-2.83 0.18,-0.95 0.2,-1.96 -0.24,-2.83 -0.37,-0.72 -1.04,-1.29 -1.81,-1.66 -0.77,-0.36 -1.64,-0.52 -2.51,-0.56 -1.72,-0.08 -3.43,0.33 -5.16,0.47 -2.28,0.19 -4.58,-0.08 -6.87,-0.01 -2.85,0.08 -5.66,0.67 -8.51,0.8 -3.25,0.14 -6.49,-0.34 -9.74,-0.44 -1.41,-0.05 -2.83,-0.03 -4.21,0.2 -1.39,0.22 -2.75,0.65 -3.92,1.37 -1.14,0.69 -2.07,1.64 -3.11,2.45 -0.52,0.41 -1.08,0.78 -1.68,1.07 -0.61,0.28 -1.28,0.48 -1.96,0.51 -0.35,0.01 -0.71,-0.01 -1.05,0.04 -0.59,0.08 -1.13,0.39 -1.47,0.83 -0.34,0.45 -0.47,1.02 -0.36,1.55 z"
               style="filter:url(#blur_beak_shadow_upper-8)" />
          </g>
          <path
             id="beak_base-5"
             fill="url(#fill_beak_base)"
             d="m 91.66,58.53 c 1.53,-1.71 2.57,-3.8 4.03,-5.56 0.73,-0.88 1.58,-1.69 2.57,-2.26 0.99,-0.57 2.15,-0.89 3.29,-0.79 1.27,0.11 2.46,0.74 3.39,1.61 0.93,0.87 1.62,1.97 2.17,3.12 0.53,1.11 0.95,2.28 1.71,3.24 0.81,1.02 1.94,1.71 2.97,2.52 0.51,0.4 1.01,0.83 1.41,1.34 0.41,0.51 0.72,1.1 0.86,1.74 0.13,0.65 0.06,1.33 -0.16,1.95 -0.23,0.62 -0.61,1.18 -1.09,1.64 -0.95,0.92 -2.25,1.42 -3.56,1.6 -2.62,0.37 -5.27,-0.41 -7.92,-0.34 -2.67,0.08 -5.29,1.02 -7.97,0.93 -1.33,-0.05 -2.69,-0.38 -3.79,-1.14 -0.55,-0.39 -1.03,-0.88 -1.38,-1.45 -0.34,-0.57 -0.55,-1.23 -0.58,-1.9 -0.02,-0.64 0.13,-1.28 0.39,-1.86 0.25,-0.59 0.61,-1.12 1.01,-1.62 0.81,-0.99 1.8,-1.81 2.65,-2.77 z"
             style="fill:url(#fill_beak_base-5)" />
          <g
             id="mandible_lower-4">
            <path
               id="mandible_lower_base-8"
               fill="url(#fill_mandible_lower_base)"
               d="m 77.14,75.05 c 0.06,0.26 0.15,0.5 0.28,0.73 0.23,0.38 0.57,0.69 0.93,0.95 0.36,0.27 0.75,0.49 1.13,0.72 2.01,1.27 3.65,3.04 5.11,4.92 1.95,2.52 3.68,5.31 6.29,7.14 1.84,1.3 4.04,2.03 6.28,2.26 2.63,0.26 5.29,-0.16 7.83,-0.91 2.35,-0.69 4.62,-1.66 6.7,-2.95 3.97,-2.44 7.28,-6.02 11.65,-7.63 0.95,-0.35 1.94,-0.6 2.86,-1.03 0.92,-0.44 1.79,-1.08 2.23,-2 0.42,-0.88 0.4,-1.9 0.54,-2.87 0.15,-1.03 0.48,-2.03 0.66,-3.06 0.18,-1.03 0.2,-2.13 -0.24,-3.08 -0.37,-0.78 -1.04,-1.4 -1.81,-1.79 -0.77,-0.4 -1.64,-0.58 -2.51,-0.62 -1.72,-0.08 -3.43,0.36 -5.16,0.52 -2.28,0.21 -4.58,-0.09 -6.87,-0.02 -2.85,0.09 -5.66,0.73 -8.51,0.87 -3.25,0.15 -6.49,-0.35 -9.74,-0.48 -1.41,-0.06 -2.83,-0.04 -4.22,0.2 -1.39,0.23 -2.75,0.71 -3.91,1.51 -1.13,0.78 -2.03,1.84 -3.07,2.74 -0.52,0.45 -1.08,0.86 -1.7,1.16 -0.61,0.3 -1.29,0.49 -1.98,0.47 -0.35,-0.01 -0.72,-0.06 -1.05,0.04 -0.21,0.07 -0.4,0.2 -0.56,0.35 -0.16,0.16 -0.29,0.34 -0.41,0.52 -0.29,0.42 -0.54,0.87 -0.75,1.34 z"
               style="fill:url(#fill_mandible_lower_base-0)" />
            <path
               id="mandible_lower_glare-1"
               fill="#d9b30d"
               filter="url(#blur_mandible_lower_glare)"
               clip-path="url(#clip_mandible_lower-9)"
               d="m 89.9,78.56 c -0.33,1.37 -0.13,2.87 0.56,4.11 0.68,1.24 1.84,2.2 3.19,2.65 1.7,0.57 3.62,0.29 5.21,-0.54 0.93,-0.48 1.77,-1.16 2.3,-2.06 0.27,-0.44 0.46,-0.94 0.53,-1.46 0.06,-0.51 0.02,-1.05 -0.16,-1.54 -0.2,-0.53 -0.56,-1 -0.99,-1.37 -0.44,-0.37 -0.95,-0.64 -1.5,-0.82 -1.08,-0.36 -2.77,-0.66 -3.91,-0.68 -2.02,-0.04 -4.9,0.34 -5.23,1.71 z"
               style="filter:url(#blur_mandible_lower_glare-3)" />
          </g>
          <g
             id="mandible_upper-2">
            <path
               id="mandible_upper_shadow-8"
               fill="#604405"
               filter="url(#blur_mandible_upper_shadow)"
               clip-path="url(#clip_mandible_lower-9)"
               d="m 84.31,67.86 c -1.16,0.68 -2.27,1.43 -3.36,2.2 -0.57,0.41 -1.15,0.84 -1.45,1.47 -0.21,0.44 -0.26,0.94 -0.27,1.43 0,0.5 0.03,0.99 -0.04,1.48 -0.04,0.33 -0.13,0.66 -0.14,0.99 -0.01,0.17 0,0.34 0.04,0.5 0.05,0.16 0.13,0.32 0.24,0.44 0.15,0.16 0.35,0.26 0.56,0.32 0.21,0.06 0.42,0.09 0.64,0.14 1.01,0.24 1.89,0.86 2.66,1.56 0.77,0.69 1.47,1.48 2.28,2.13 2.18,1.78 5.07,2.52 7.89,2.56 2.82,0.05 5.61,-0.54 8.36,-1.16 2.16,-0.49 4.32,-0.99 6.39,-1.76 3.2,-1.18 6.16,-2.96 8.72,-5.19 1.17,-1.01 2.26,-2.12 3.57,-2.94 1.15,-0.73 2.44,-1.21 3.62,-1.9 0.11,-0.06 0.21,-0.13 0.3,-0.2 0.1,-0.08 0.18,-0.18 0.24,-0.28 0.09,-0.19 0.09,-0.42 0.03,-0.62 -0.06,-0.2 -0.18,-0.38 -0.31,-0.55 -0.15,-0.18 -0.31,-0.34 -0.49,-0.5 -1.23,-1.05 -2.89,-1.43 -4.51,-1.56 -1.61,-0.12 -3.24,-0.03 -4.83,-0.3 -1.5,-0.25 -2.92,-0.81 -4.37,-1.27 -1.52,-0.49 -3.07,-0.87 -4.64,-1.13 -3.71,-0.61 -7.52,-0.49 -11.19,0.27 -3.49,0.73 -6.87,2.05 -9.94,3.87 z"
               style="filter:url(#blur_mandible_upper_shadow-6)" />
            <path
               id="mandible_upper_base-9"
               fill="url(#fill_mandible_upper_base)"
               d="m 83.94,63.95 c -1.66,1.12 -3.16,2.49 -4.43,4.04 -0.72,0.89 -1.38,1.86 -1.74,2.94 -0.29,0.86 -0.39,1.76 -0.57,2.65 -0.07,0.33 -0.15,0.66 -0.14,1 0,0.16 0.02,0.33 0.07,0.5 0.05,0.16 0.14,0.31 0.25,0.43 0.2,0.2 0.47,0.31 0.74,0.37 0.28,0.05 0.56,0.06 0.84,0.09 1.25,0.15 2.4,0.75 3.44,1.47 1.04,0.71 2,1.55 3.07,2.22 2.35,1.49 5.16,2.15 7.95,2.26 2.78,0.11 5.56,-0.31 8.3,-0.86 2.17,-0.43 4.33,-0.95 6.39,-1.76 3.16,-1.25 6.01,-3.16 8.72,-5.19 1.24,-0.92 2.46,-1.87 3.57,-2.94 0.37,-0.37 0.74,-0.74 1.14,-1.08 0.4,-0.33 0.85,-0.62 1.35,-0.78 0.76,-0.24 1.58,-0.17 2.37,-0.04 0.59,0.1 1.18,0.23 1.78,0.21 0.3,-0.02 0.6,-0.07 0.88,-0.18 0.28,-0.11 0.54,-0.28 0.73,-0.52 0.25,-0.3 0.38,-0.7 0.38,-1.09 0,-0.4 -0.12,-0.79 -0.32,-1.13 -0.4,-0.68 -1.09,-1.14 -1.81,-1.46 -0.99,-0.44 -2.06,-0.65 -3.11,-0.91 -3.23,-0.78 -6.37,-1.93 -9.34,-3.41 -1.48,-0.73 -2.92,-1.54 -4.37,-2.32 -1.5,-0.8 -3.02,-1.57 -4.64,-2.07 -3.64,-1.1 -7.6,-0.74 -11.19,0.51 -3.98,1.38 -7.58,3.84 -10.31,7.05 z"
               style="fill:url(#linearGradient2644)" />
            <path
               id="mandible_upper_glare-3"
               fill="#f6da4a"
               filter="url(#blur_mandible_upper_glare)"
               clip-path="url(#clip_mandible_upper-1)"
               d="m 109.45,64.75 c -0.2,-0.24 -0.48,-0.42 -0.78,-0.51 -0.3,-0.09 -0.62,-0.09 -0.93,-0.04 -0.62,0.11 -1.18,0.44 -1.7,0.8 -1.47,1.01 -2.77,2.26 -3.91,3.64 -1.5,1.83 -2.74,3.94 -3.16,6.27 -0.07,0.39 -0.11,0.8 -0.07,1.19 0.05,0.4 0.2,0.79 0.49,1.07 0.24,0.25 0.58,0.4 0.92,0.45 0.35,0.05 0.71,0 1.04,-0.11 0.66,-0.22 1.21,-0.69 1.74,-1.15 2.87,-2.58 5.47,-5.66 6.51,-9.38 0.1,-0.37 0.19,-0.75 0.19,-1.14 0,-0.39 -0.1,-0.78 -0.34,-1.09 z"
               style="filter:url(#blur_mandible_upper_glare-5)" />
            <path
               id="naris_left-6"
               opacity="0.8"
               fill="url(#fill_naris_left)"
               filter="url(#blur_naris_left)"
               d="m 92.72,59.06 c -0.77,-0.25 -2.03,1.1 -1.62,1.79 0.11,0.19 0.46,0.43 0.7,0.3 0.35,-0.19 0.64,-0.89 1.02,-1.16 0.25,-0.18 0.2,-0.84 -0.1,-0.93 z"
               style="fill:url(#fill_naris_left-8);filter:url(#blur_naris_left-4)" />
            <path
               id="naris_right-8"
               opacity="0.8"
               fill="url(#fill_naris_right)"
               filter="url(#blur_naris_right)"
               d="m 102.56,59.42 c 0.2,0.64 1.23,0.53 1.83,0.84 0.52,0.27 0.94,0.86 1.53,0.88 0.56,0.01 1.44,-0.2 1.51,-0.76 0.09,-0.73 -0.98,-1.2 -1.67,-1.47 -0.89,-0.34 -2.03,-0.52 -2.86,-0.06 -0.19,0.11 -0.4,0.36 -0.34,0.57 z"
               style="fill:url(#fill_naris_right-1);filter:url(#blur_naris_right-0)" />
          </g>
          <path
             id="beak_corner-0"
             fill="url(#fill_beak_corner)"
             filter="url(#blur_beak_corner)"
             clip-path="url(#clip_beak-0)"
             d="m 129.27,69.15 a 2.42,3.1 16.94 0 1 -2.81,3.04 2.42,3.1 16.94 0 1 -2.12,-3.04 2.42,3.1 16.94 0 1 2.81,-3.05 2.42,3.1 16.94 0 1 2.12,3.05 z"
             style="fill:url(#linearGradient2645);filter:url(#blur_beak_corner-4)" />
        </g>
      </g>
    </g>
  </g>
</svg>
