<?xml version="1.0" encoding="UTF-8" standalone="no"?>
<!-- Created with Inkscape (http://www.inkscape.org/) -->

<svg
   width="31.476952mm"
   height="34.259121mm"
   viewBox="0 0 31.476952 34.259121"
   version="1.1"
   id="svg1"
   xml:space="preserve"
   xmlns:xlink="http://www.w3.org/1999/xlink"
   xmlns="http://www.w3.org/2000/svg"
   xmlns:svg="http://www.w3.org/2000/svg"><defs
     id="defs1"><style
       id="style1">.cls-1{fill:#fff}.cls-2{fill:#326ce5}</style><mask
       id="holes-2"><rect
         x="-60"
         y="-60"
         width="120"
         height="120"
         fill="#ffffff"
         id="rect35-1" /><circle
         id="hole-5"
         cy="-40"
         r="3"
         cx="0" /><use
         xlink:href="#hole-5"
         transform="rotate(72)"
         id="use36-9" /><use
         xlink:href="#hole-5"
         transform="rotate(144)"
         id="use37-9" /><use
         xlink:href="#hole-5"
         transform="rotate(-144)"
         id="use38-1" /><use
         xlink:href="#hole-5"
         transform="rotate(-72)"
         id="use39-4" /></mask></defs><g
     id="layer1"
     transform="translate(-113.45561,-52.984149)"><style
       type="text/css"
       id="style1-0">
	.st0{fill:#2DBCAF;}
	.st1{fill:#5DC9E1;}
	.st2{fill:#FDDD00;}
	.st3{fill:#CE3262;}
	.st4{fill:#00ACD7;}
	.st5{fill:#FFFFFF;}
</style><title
       id="title1">Tux</title><title
       id="title1-3">HTML5 Logo</title><path
       style="fill:#00ff00;stroke-width:0.148274"
       d="m 128.11893,86.767096 c -1.93943,-0.99157 -3.90469,-2.24085 -5.0804,-3.2295 -6.36047,-5.34851 -9.18839,-11.90188 -9.53671,-22.100248 l -0.0462,-1.353466 0.0447,-0.745386 c 0.0246,-0.409963 0.0632,-0.811755 0.0857,-0.892872 l 0.041,-0.147487 0.0921,-0.06034 0.0921,-0.06034 0.46501,-0.05629 c 0.25576,-0.03096 0.91518,-0.110652 1.4654,-0.177091 4.84915,-0.585538 8.89041,-2.007951 12.54587,-4.415805 1.09771,-0.723063 0.89617,-0.720953 1.98255,-0.02075 2.90797,1.87427 5.53829,3.048234 8.4869,3.787858 1.51283,0.379475 3.29292,0.65624 5.19167,0.807192 0.66799,0.0531 0.71745,0.06344 0.81846,0.170957 l 0.0829,0.08828 0.0413,0.213726 0.0413,0.213729 -0.0229,0.588463 c -0.22832,5.85975 -1.04238,9.83926 -2.9011,14.18196 -2.29712,5.36698 -6.49533,10.052 -11.85642,13.23127 -1.02138,0.60571 -0.79678,0.60834 -2.03329,-0.0239 z m 1.73964,-2.90959 c 0.47236,-0.2199 1.52257,-0.9142 2.63394,-1.74133 6.10078,-4.54045 9.60938,-12.25762 9.61202,-21.141664 l 1.5e-4,-0.678607 -0.10097,-0.09357 -0.10096,-0.09357 -0.1952,-0.04186 c -0.10736,-0.02302 -0.3066,-0.04186 -0.44277,-0.04186 -3.06166,0 -7.13899,-1.371578 -10.52533,-3.540631 -0.82934,-0.531216 -0.99694,-0.6221 -1.15558,-0.626611 l -0.11627,-0.0033 -0.0616,0.06163 -0.0616,0.06163 -0.0349,0.483829 -0.0349,0.483829 -0.013,10.611955 c -0.0182,14.86358 -10e-4,16.22691 0.20599,16.33941 0.13735,0.0746 0.14886,0.0735 0.39106,-0.0393 z"
       id="path2659" /></g></svg>
